<?xml version="1.0"?>
<svg width="100" height="100" xmlns="http://www.w3.org/2000/svg" xmlns:svg="http://www.w3.org/2000/svg" version="1.1">
 <metadata/>
 <g class="layer">
  <title>Layer 1</title>
  <g id="svg_1"/>
  <g id="svg_18">
   <polygon fill="#EB743B" id="svg_19" points="51,2 51,98 92,74 92,26 "/>
   <polygon fill="#4E7EC2" id="svg_20" points="48,2 7,26 7,74 48,98 "/>
   <rect fill="#FFFEDB" height="4" id="svg_21" width="6" x="39" y="16"/>
   <rect fill="#FFFEDB" height="4" id="svg_22" width="6" x="39" y="23"/>
   <rect fill="#FFFEDB" height="4" id="svg_23" width="6" x="39" y="30"/>
   <rect fill="#FFFEDB" height="4" id="svg_24" width="6" x="39" y="37"/>
   <rect fill="#FFFEDB" height="4" id="svg_25" width="6" x="39" y="44"/>
   <rect fill="#8DB2E3" height="4" id="svg_26" width="6" x="39" y="51"/>
   <rect fill="#8DB2E3" height="4" id="svg_27" width="6" x="39" y="58"/>
   <rect fill="#8DB2E3" height="4" id="svg_28" width="6" x="39" y="65"/>
   <rect fill="#8DB2E3" height="4" id="svg_29" width="6" x="39" y="72"/>
   <rect fill="#8DB2E3" height="4" id="svg_30" width="6" x="39" y="79"/>
   <rect fill="#FFFEDB" height="4" id="svg_31" width="6" x="30" y="30"/>
   <rect fill="#FFFEDB" height="4" id="svg_32" width="6" x="30" y="37"/>
   <rect fill="#FFFEDB" height="4" id="svg_33" width="6" x="30" y="44"/>
   <rect fill="#8DB2E3" height="4" id="svg_34" width="6" x="30" y="51"/>
   <rect fill="#8DB2E3" height="4" id="svg_35" width="6" x="30" y="58"/>
   <rect fill="#8DB2E3" height="4" id="svg_36" width="6" x="30" y="65"/>
   <rect fill="#FFFEDB" height="4" id="svg_37" width="6" x="21" y="44"/>
   <rect fill="#8DB2E3" height="4" id="svg_38" width="6" x="21" y="51"/>
   <rect fill="#FFFEDB" height="4" id="svg_39" width="6" x="12" y="37"/>
   <rect fill="#FFFEDB" height="4" id="svg_40" width="6" x="12" y="44"/>
   <rect fill="#8DB2E3" height="4" id="svg_41" width="6" x="12" y="51"/>
   <rect fill="#8DB2E3" height="4" id="svg_42" width="6" x="12" y="58"/>
   <path d="m83.281,58.087c-1.239,-1.97 -3.38,-3.148 -5.718,-3.148c-0.666,0 -1.324,0.103 -1.956,0.295c-2.632,-3.125 -5.819,-4.775 -8.603,-5.636c2.235,-1.714 4.208,-3.771 5.909,-6.153c1.74,0.394 3.63,0.127 5.162,-0.832c3.158,-2.006 4.103,-6.197 2.104,-9.348c-1.249,-1.975 -3.39,-3.152 -5.724,-3.152c-1.283,0 -2.533,0.363 -3.616,1.05c-3.146,1.991 -4.093,6.181 -2.105,9.336c0.13,0.207 0.271,0.404 0.422,0.596c-2.514,3.442 -5.708,6.056 -9.519,7.785l-0.014,0.004c-3.53,1.603 -5.623,2.116 -8.623,2.116l0,5c4,0 5.931,-1.125 10.016,-2.898c1.366,-0.023 6.962,0.185 10.991,4.747c-1.507,2.164 -1.655,5.108 -0.16,7.471c1.241,1.97 3.382,3.15 5.721,3.15c1.278,0 2.524,-0.36 3.607,-1.044c1.538,-0.975 2.599,-2.482 2.995,-4.252c0.396,-1.761 0.078,-3.568 -0.889,-5.087zm-10.22,-23.417c0.423,-0.266 0.901,-0.405 1.396,-0.405c0.903,0 1.731,0.456 2.219,1.224c0.771,1.214 0.403,2.836 -0.818,3.61c-0.41,0.261 -0.896,0.398 -1.387,0.398c-0.493,0 -0.974,-0.134 -1.39,-0.391c-0.343,-0.213 -0.625,-0.489 -0.832,-0.817c-0.771,-1.225 -0.407,-2.846 0.812,-3.619zm7.058,27.6c-0.154,0.687 -0.564,1.27 -1.161,1.645c-0.413,0.264 -0.896,0.406 -1.391,0.406c-0.906,0 -1.731,-0.457 -2.21,-1.218c-0.745,-1.18 -0.441,-2.727 0.691,-3.528l0.117,-0.078c1.208,-0.766 2.866,-0.367 3.608,0.808c0.378,0.591 0.498,1.286 0.346,1.965z" fill="#FFFEDB" id="svg_43"/>
  </g>
 </g>
</svg>