<?xml version="1.0" encoding="UTF-8" standalone="no"?>
<!-- Created with Inkscape (http://www.inkscape.org/) -->
<svg xmlns:dc="http://purl.org/dc/elements/1.1/" xmlns:cc="http://creativecommons.org/ns#" xmlns:rdf="http://www.w3.org/1999/02/22-rdf-syntax-ns#" xmlns:svg="http://www.w3.org/2000/svg" xmlns="http://www.w3.org/2000/svg" xmlns:sodipodi="http://sodipodi.sourceforge.net/DTD/sodipodi-0.dtd" xmlns:inkscape="http://www.inkscape.org/namespaces/inkscape" id="svg2" version="1.1" inkscape:version="0.48.1 r9760" width="256" height="256" sodipodi:docname="acoustid-fingerprinter.png">
  <metadata id="metadata8">
    <rdf:RDF>
      <cc:Work rdf:about="">
        <dc:format>image/svg+xml</dc:format>
        <dc:type rdf:resource="http://purl.org/dc/dcmitype/StillImage"/>
        <dc:title/>
      </cc:Work>
    </rdf:RDF>
  </metadata>
  <defs id="defs6"/>
  <sodipodi:namedview pagecolor="#ffffff" bordercolor="#666666" borderopacity="1" objecttolerance="10" gridtolerance="10" guidetolerance="10" inkscape:pageopacity="0" inkscape:pageshadow="2" inkscape:window-width="1024" inkscape:window-height="711" id="namedview4" showgrid="false" inkscape:zoom="1.0117188" inkscape:cx="128" inkscape:cy="128" inkscape:window-x="0" inkscape:window-y="26" inkscape:window-maximized="1" inkscape:current-layer="svg2"/>
  <g id="g3030" transform="translate(-4.942083,2.965251)">
    <path style="fill:#f6e8e8" d="m 154.77796,239.73635 c 1.16962,-1.245 2.78322,-3.83521 3.58579,-5.75601 2.22787,-5.33205 6.10433,-24.96266 10.0671,-50.98034 4.73046,-31.05804 9.02069,-47 12.64843,-47 1.99051,0 4.79775,8.65822 8.75416,27 4.72778,21.91784 7.31771,29.32813 11.83308,33.85672 2.73044,2.73843 3.85222,3.23906 6.0902,2.71793 3.92982,-0.91509 7.54592,-5.58415 10.74048,-13.86801 5.28245,-13.69796 9.2193,-16.80309 18.04936,-14.23613 C 246.56014,174.38154 250,173.10125 250,166.46325 250,161.5364 237.4988,127.0621 233.78592,121.75 c -2.64858,-3.78938 -6.04465,-3.60319 -9.12009,0.5 -1.33978,1.7875 -4.73318,7.35366 -7.54089,12.36925 -6.4884,11.59064 -7.49951,12.49089 -9.55804,8.51012 -0.85671,-1.65669 -4.46223,-12.7092 -8.01227,-24.56115 -10.47639,-34.975809 -14.44646,-44.426683 -19.83256,-47.211941 -2.56289,-1.325323 -3.13494,-1.315778 -5.27746,0.08805 C 169.76124,74.51299 167.49862,81.543088 163.0011,106 c -4.61381,27.1151 -8.0298,39.49043 -10.40597,38.69837 -1.38781,-0.46261 -4.35039,-10.14895 -6.1777,-20.19837 -0.80007,-4.40001 -3.02007,-21.87314 -4.93334,-38.829209 C 133.95141,18.913581 129.88563,2.3059806 121.58516,4.3892642 116.46445,5.6744812 113.52651,15.224045 102.63048,65.999995 94.73739,102.78219 88.49864,126.5765 86.03599,129.29071 85.6414,129.72561 83.46616,122.82332 81.20212,113.95227 74.66507,88.338528 67.60822,76 59.49585,76 54.52015,76 52.67905,79.125309 46.89826,97.384706 40.89885,116.33466 38.20433,123 36.54307,123 c -0.66585,0 -2.93093,-2.49779 -5.03351,-5.55065 -6.60435,-9.58921 -11.81152,-11.97052 -15.12332,-6.91608 -3.99919,6.10354 0.63691,29.23172 9.61505,47.96673 8.23816,17.19088 16.97459,18.77274 23.82826,4.31448 2.7344,-5.76839 7.36712,-19.72226 10.18972,-30.69168 0.66581,-2.58754 1.49358,-4.00995 2.02456,-3.47897 0.49403,0.49403 2.72262,7.86377 4.95242,16.3772 5.602,21.38855 8.71918,31.38274 12.15117,38.95858 C 82.65638,191.72538 85.50676,195 88.74006,195 c 8.5161,0 12.07273,-9.76913 18.30947,-50.29128 C 112.67223,108.17612 116.47716,91 118.94731,91 c 2.7055,0 5.96303,19.24039 9.56582,56.5 4.35707,45.06033 7.87555,68.0556 12.59007,82.28336 3.66515,11.06089 8.99177,14.9378 13.67476,9.95299 z" id="path3060" inkscape:connector-curvature="0"/>
    <path style="fill:#f1d9d9" d="m 154.79189,238.72153 c 1.17728,-1.25316 2.79369,-4.12979 3.59203,-6.39252 2.1189,-6.00561 6.21449,-27.2747 9.11369,-47.32901 3.08111,-21.31253 4.86909,-30.15478 8.12375,-40.17497 2.48534,-7.65166 4.41334,-10.53965 6.2701,-9.39211 1.91286,1.18221 5.33429,12.28895 8.64604,28.06708 3.92754,18.71189 6.781,27.21753 10.74368,32.02495 6.0883,7.38617 11.73122,3.25263 18.0927,-13.25325 4.53195,-11.7589 8.79561,-14.02255 20.1789,-10.71333 7.3079,2.12446 9.44722,0.98589 9.44722,-5.02792 0,-7.9147 -13.60998,-43.58111 -17.6385,-46.2236 -1.91333,-1.25503 -2.41111,-1.16076 -4.72742,0.89521 -1.4239,1.26387 -5.10459,6.79794 -8.1793,12.29794 -3.07472,5.5 -6.41403,10.84165 -7.42069,11.87033 -1.78619,1.82525 -1.86729,1.8132 -3.36493,-0.5 C 206.82512,143.56665 202.98073,131.925 199.12607,119 187.58053,80.286831 183.2232,71 176.6047,71 c -4.839,0 -8.21608,9.194527 -12.64337,34.4232 -5.07294,28.90788 -8.96069,41.9313 -11.96337,40.07554 -1.34197,-0.82938 -4.6317,-12.28912 -6.45869,-22.49874 -0.83657,-4.675 -2.87749,-20.875 -4.53536,-36 C 135.9416,40.815942 131.87893,16.608052 127.87168,8.75 126.33387,5.7344073 125.39833,5 123.09469,5 117.51,5 115.0243,11.928193 106.53904,51.144315 97.57491,92.573545 94.44714,105.82165 90.9172,117.31269 c -3.71805,12.10337 -4.84091,15.09694 -5.43855,14.49929 -0.25597,-0.25597 -1.8339,-6.05588 -3.50651,-12.88869 C 76.24611,95.531718 71.6648,84.546909 65.30711,78.964782 61.33954,75.481215 59.20053,75.267824 55.7169,78.008049 c -1.97791,1.555823 -3.7228,5.665853 -7.74792,18.25 C 41.88778,115.27028 38.24753,124 36.4007,124 35.6713,124 33.26937,121.3418 31.06308,118.09289 26.98883,112.09329 22.71301,108 20.52013,108 c -0.66559,0 -2.0547,0.93321 -3.08692,2.07381 -6.48998,7.17134 5.57791,50.0262 16.72976,59.40987 8.39809,7.06653 14.77892,-0.64988 22.31324,-26.98368 4.44595,-15.53939 4.90012,-16.54366 6.29058,-13.9099 0.55457,1.05044 3.09447,9.7849 5.64422,19.4099 8.08803,30.5314 12.39841,41.4832 17.88482,45.44171 2.55444,1.84306 3.0293,1.88949 5.5,0.53776 6.14223,-3.36045 9.69921,-15.63996 15.2016,-52.47947 4.97717,-33.32305 9.20421,-51.5 11.97629,-51.5 3.02398,0 6.20335,17.88535 10.04366,56.5 7.07573,71.14702 12.38455,94.5 21.48262,94.5 1.18325,0 3.1146,-1.02531 4.29189,-2.27847 z" id="path3058" inkscape:connector-curvature="0"/>
    <path style="fill:#ebc8c8" d="m 154.92952,238.36247 c 3.75744,-4.77681 7.02591,-18.86212 12.03461,-51.86247 4.95717,-32.66079 8.13247,-45.76391 12.09666,-49.9177 1.49168,-1.56302 2.10724,-1.68773 3.32834,-0.67431 2.17426,1.80447 5.14377,11.55301 8.56752,28.12613 5.70055,27.59425 11.26481,37.86123 18.43847,34.02201 2.85004,-1.52529 6.861,-8.09513 9.59843,-15.72194 2.47358,-6.8917 6.67055,-11.84566 10.68587,-12.61324 1.46735,-0.2805 4.87142,0.14437 7.5646,0.94416 9.86226,2.92877 12.88462,0.74736 11.05434,-7.97855 -1.24841,-5.95185 -10.21631,-30.58198 -13.72178,-37.68656 -1.87657,-3.80326 -2.67371,-4.5 -5.14846,-4.5 -2.60532,0 -3.44162,0.88193 -7.58608,8 -9.24114,15.87158 -10.98589,18.5 -12.2804,18.5 -1.94108,0 -4.64804,-7.11904 -11.43021,-30.06034 C 189.46424,87.622106 186.06458,78.950702 181.19875,73.75 c -3.15124,-3.368111 -4.60084,-3.438816 -7.66575,-0.373905 -3.27519,3.275183 -5.90728,12.462184 -9.55245,33.341625 C 159.42056,132.83725 155.77361,146 153.09676,146 148.88618,146 145.6051,130.05471 140.49262,84.746809 133.72115,24.736587 129.70308,6.1287862 123.31476,5.1955707 117.95848,4.4131176 114.9757,13.113765 105.55504,57 101.9541,73.775 97.86586,92.225 96.47006,98 93.11569,111.87837 86.86838,132 85.91382,132 84.96975,132 83.51711,127.58061 81.4764,118.5 75.09666,90.111889 65.78806,73.848887 57.68288,76.930471 54.24158,78.238851 53.14276,80.611361 46.99834,100 c -5.76368,18.18722 -8.30365,24 -10.48712,24 -0.79647,0 -3.3256,-2.5875 -5.62028,-5.75 -2.29469,-3.1625 -5.12138,-6.52749 -6.28155,-7.47776 -2.80818,-2.30014 -6.29643,-2.22552 -7.57421,0.16202 -5.24565,9.8016 8.15006,52.939 18.37584,59.17462 4.1141,2.50876 4.93225,2.40663 8.94492,-1.11654 4.08871,-3.58993 7.25938,-10.85346 12.21919,-27.99234 1.98956,-6.875 4.0428,-12.94624 4.56276,-13.49164 1.46292,-1.53449 2.39999,0.69743 5.84379,13.91883 8.66581,33.26971 13.03678,45.59127 17.89737,50.45186 4.94248,4.94248 10.60502,0.76877 14.03845,-10.34737 2.779,-8.99735 4.50668,-17.97592 8.08786,-42.03168 10.11592,-67.951435 15.25391,-66.008869 22.48208,8.5 4.32488,44.58152 7.45878,65.3954 12.02086,79.83693 4.0296,12.75594 8.75299,16.46024 13.42122,10.52554 z" id="path3056" inkscape:connector-curvature="0"/>
    <path style="fill:#e4b1b1" d="m 154.25209,238.25 c 4.16307,-4.3592 7.06596,-16.74944 12.79103,-54.59531 5.18983,-34.30765 9.55167,-49.13785 14.25517,-48.46739 2.9828,0.42519 5.89137,8.82208 10.15354,29.3127 5.08695,24.45577 9.29485,33.5 15.58617,33.5 3.77187,0 6.79606,-4.0148 11.51419,-15.28578 5.2507,-12.54324 9.50539,-15.3222 18.91677,-12.35553 7.2405,2.28237 9.35963,2.11162 10.71513,-0.86337 1.43032,-3.13922 -0.0833,-8.89656 -7.6761,-29.19798 -9.44828,-25.26244 -10.73781,-25.67797 -21.21438,-6.83591 C 213.12942,144.54771 211.33205,147 209.37069,147 c -2.16034,0 -3.97011,-4.643 -10.92012,-28.0158 -9.15136,-30.775847 -14.30893,-43.647826 -18.54579,-46.285571 -0.87738,-0.546226 -2.69984,-0.715897 -4.04993,-0.377047 -4.54113,1.139751 -7.13164,9.21138 -12.253,38.178418 -3.8415,21.728 -7.09466,33.22526 -9.88032,34.91879 -2.28165,1.38712 -3.1201,0.1356 -5.64015,-8.41879 -2.68207,-9.1044 -4.56652,-21.74801 -8.60518,-57.735937 C 132.75019,19.329359 128.40716,2.0358081 121.06787,5.9636769 117.06363,8.1066825 114.41101,17.19594 105.00601,61 95.81879,103.7898 88.60154,130.89216 85.95914,132.52525 85.02542,133.10232 83.9918,129.81552 79.03269,110.5 72.36179,84.517072 61.87824,70.982864 55.09882,79.601494 c -1.12548,1.430822 -4.75028,11.035143 -8.05511,21.342936 -6.02105,18.77972 -8.97936,24.76262 -11.5268,23.31187 -0.73041,-0.41597 -3.40481,-3.58268 -5.9431,-7.03714 -2.5383,-3.45446 -5.78366,-6.81328 -7.21192,-7.46404 -2.28499,-1.04111 -2.8229,-0.90402 -4.47936,1.14162 -4.37198,5.39917 -0.43143,26.13249 8.76233,46.10326 4.34704,9.44267 8.56661,14 12.96241,14 5.98149,0 10.44866,-8.17609 16.93665,-30.99851 1.95421,-6.87418 4.00001,-12.94542 4.54623,-13.49164 1.43541,-1.43541 2.48999,0.70632 4.91118,9.97401 9.51996,36.43996 13.50374,48.24685 18.20237,53.9471 3.41634,4.1446 5.96373,4.49252 9.19978,1.25647 4.82836,-4.82836 8.35706,-18.58038 13.13445,-51.18743 4.90892,-33.50476 9.26162,-51.5 12.45687,-51.5 3.46788,0 6.74626,18.14645 11.0204,61 5.68863,57.03552 10.41372,81.50541 17.11618,88.63984 2.84521,3.02859 3.91185,2.9702 7.12071,-0.38984 z" id="path3054" inkscape:connector-curvature="0"/>
    <path style="fill:#d88f8f" d="m 153.71061,238.80056 c 4.05994,-5.07992 7.62241,-19.8617 12.24316,-50.80056 5.07767,-33.99818 8.70316,-48.56957 13.06719,-52.51897 1.90261,-1.72184 2.05669,-1.72073 3.98971,0.0286 2.45605,2.22269 5.06178,10.42474 7.93923,24.99034 4.3929,22.23681 8.68066,34.16155 13.14189,36.54913 5.02271,2.68807 9.23887,-1.69504 13.99496,-14.54913 1.30616,-3.5301 3.75506,-7.54369 5.949,-9.75 4.23913,-4.26305 7.24265,-4.70575 15.31353,-2.25713 3.62073,1.0985 5.36354,1.196 6.87914,0.38488 3.09497,-1.65634 1.8873,-8.88064 -4.24234,-25.37772 -7.62482,-20.52118 -9.64744,-24.5 -12.45446,-24.5 -2.48183,0 -4.75734,3.09216 -12.10201,16.44526 -2.10108,3.8199 -4.62206,7.74719 -5.60219,8.72732 -4.05527,4.05527 -5.65704,0.78064 -14.7587,-30.17258 -9.68377,-32.932879 -14.75829,-44 -20.17494,-44 -4.53971,0 -7.49989,8.63347 -12.44869,36.30704 C 159.63086,135.2281 156.14882,147 153,147 c -1.57597,0 -4.05942,-4.5435 -5.56838,-10.18742 C 144.91017,127.38163 143.09965,115.12936 139.55363,83.5 132.99543,25.002859 129.21092,7.0275022 123.27556,6.1837987 118.29496,5.4758122 115.81743,12.893717 106.4703,56.5 96.14946,104.64887 88.52853,133 85.90671,133 84.46598,133 83.37052,129.78397 79.57018,114.39734 74.23278,92.787525 69.03554,81.621097 62.81867,78.406229 56.71279,75.248758 54.5573,78.138408 48.57599,97.5 41.8192,119.3718 39.33981,125 36.46145,125 c -0.82085,0 -3.73935,-3.07954 -6.48557,-6.84341 -7.17557,-9.83461 -10.99309,-11.07016 -12.96458,-4.196 -2.14802,7.48973 3.89456,31.45578 11.65401,46.22204 5.71334,10.8725 10.55369,13.38569 15.53758,8.06737 4.54547,-4.85048 7.67658,-12.86894 14.25282,-36.5 1.77628,-6.38286 3.91322,-7.51691 5.65303,-3 0.58258,1.5125 2.83279,9.5 5.00047,17.75 8.36692,31.84383 12.81901,43.37728 17.72323,45.91335 7.95452,4.11344 12.59802,-7.88113 18.71399,-48.33983 C 111.86811,102.25398 115.1162,89 119.04307,89 c 4.1285,0 6.97367,15.67133 11.92467,65.68168 5.86727,59.26564 11.47692,84.22467 19.13084,85.11888 1.41494,0.1653 3.04035,-0.2847 3.61203,-1 z" id="path3052" inkscape:connector-curvature="0"/>
    <path style="fill:#cd6e6e" d="m 153.70044,237.75 c 3.92016,-4.30457 6.85248,-17.03198 12.76482,-55.40422 5.98515,-38.84478 10.33715,-51.47343 16.42066,-47.64951 2.46028,1.54646 4.97767,9.24963 8.59601,26.30373 5.19036,24.46337 8.09201,32.36428 13.08817,35.63789 2.40606,1.57651 2.69077,1.55842 5.23714,-0.33284 1.71272,-1.27208 4.25127,-5.59304 6.97492,-11.87229 6.74958,-15.56085 9.91219,-17.7951 21.08666,-14.89682 8.13121,2.10896 10.13118,1.62951 10.13118,-2.42877 0,-5.3941 -13.77044,-42.84183 -16.62521,-45.21108 -2.45387,-2.03653 -4.35511,-0.12405 -10.62519,10.688 -9.45725,16.30796 -11.00125,17.73743 -14.22077,13.16591 -0.87152,-1.2375 -2.87736,-6.525 -4.45743,-11.75 -1.58008,-5.225 -5.19293,-17.15 -8.02856,-26.5 C 188.426,88.979437 182.16147,74.691965 178.89006,72.941164 173.6208,70.121139 170.06843,79.062623 164.96153,108 c -5.18369,29.37246 -8.20362,39 -12.23337,39 -4.80319,0 -8.2188,-15.97063 -13.68757,-64 -2.22318,-19.525 -4.73343,-39.775 -5.57833,-45 -4.84013,-29.931921 -9.93697,-38.66450843 -15.27925,-26.178456 -3.05555,7.141472 -4.44226,12.710933 -13.13829,52.767639 C 96.98149,101.73099 92.96005,117.68628 88.98221,128.318 85.50464,137.61263 84.69236,136.53227 79.59486,115.83257 73.05025,89.256472 66.31092,77.085939 58.74905,78.187209 55.62467,78.642227 53.63683,82.751949 48.42788,99.525478 43.25021,116.1983 39.7111,124.51315 37.41758,125.39325 35.67978,126.06011 33.444,123.91938 27.25524,115.66294 13.59901,97.444134 13.71914,127.78509 27.41693,156.5 c 2.36128,4.95 5.45983,10.06875 6.88566,11.375 2.86743,2.62694 6.84068,3.08091 9.27593,1.05983 3.00297,-2.49224 7.3446,-12.74168 11.46651,-27.06944 4.08402,-14.196 6.027,-18.23089 7.86007,-16.32253 1.063,1.10667 4.36794,12.04985 9.65133,31.95714 9.43173,35.53781 17.01505,44.00482 24.28329,27.11304 2.25475,-5.24017 4.98831,-18.84017 8.60244,-42.79894 4.1834,-27.73261 5.96569,-37.07354 8.67939,-45.488417 4.62644,-14.34611 8.80319,-9.540744 12.32009,14.174317 0.81564,5.5 2.85811,23.725 4.53882,40.5 5.59994,55.89259 10.23798,80.05771 16.74601,87.25 2.10307,2.32419 3.50916,2.20651 5.97397,-0.5 z" id="path3050" inkscape:connector-curvature="0"/>
    <path style="fill:#c55757" d="m 153.86417,237.66367 c 3.20099,-3.85697 6.62437,-19.08943 11.61099,-51.66367 5.24004,-34.22962 9.32883,-49.75436 13.72334,-52.10624 4.74411,-2.53896 8.6233,6.17411 13.31354,29.90362 3.85115,19.48426 8.39765,31.40441 12.47119,32.6973 3.71908,1.18039 5.88824,-0.48298 8.86894,-6.80098 1.60713,-3.40653 4.11956,-8.75791 5.58317,-11.89195 2.90412,-6.2186 7.32553,-9.80175 12.0948,-9.80175 1.53674,0 5.20696,0.76059 8.15604,1.69021 4.86613,1.53391 5.50675,1.54543 6.92762,0.12456 1.42027,-1.42027 1.4206,-2.1319 0.003,-7.66347 -2.43903,-9.52049 -13.32763,-37.3061 -15.45194,-39.43042 -1.88085,-1.88084 -1.94177,-1.87721 -3.90761,0.23287 -1.09834,1.17892 -4.40843,6.50912 -7.35576,11.84487 -5.82063,10.53751 -9.03227,14.47234 -11.14935,13.65994 C 206.14176,147.45669 204.14836,142.31437 196.5578,117 188.95788,91.654447 182.41896,75.695817 178.75,73.538983 173.80079,70.629548 170.47444,79.401385 164.92368,110 c -4.40002,24.25516 -7.01327,33.86612 -9.92471,36.50093 -1.92874,1.74549 -2.06941,1.74529 -4.00419,-0.006 C 146.62737,142.54283 143.59387,127.13742 138.9841,85.5 132.54444,27.334194 128.40262,7 122.99464,7 c -4.29512,0 -7.3091,9.749661 -17.00253,55 -12.31993,57.51117 -18.34188,76.90619 -22.02716,70.94329 -0.45826,-0.74148 -2.2857,-7.21955 -4.06098,-14.39572 C 75.64994,101.35163 72.6557,92.679101 68.74481,86.226166 62.80678,76.428452 57.6982,75.550885 54.25295,83.73671 53.15032,86.356519 49.93892,95.7 47.1165,104.5 c -5.22125,16.27928 -8.46831,22.34645 -11.36469,21.235 -0.86239,-0.33093 -3.74255,-3.51602 -6.40036,-7.07797 -5.68264,-7.6158 -7.8725,-9.29942 -9.90335,-7.61396 -4.98501,4.13719 -0.3114,28.36389 9.06264,46.97826 6.21841,12.3481 10.83947,14.91648 15.93739,8.85795 3.58162,-4.25651 5.0482,-7.88778 10.44837,-25.87025 6.47796,-21.57147 8.1816,-21.37856 14.02547,1.58814 7.40332,29.09535 12.27122,42.90749 16.78126,47.61496 3.23349,3.37504 4.32832,3.45884 7.02661,0.53787 4.65055,-5.03437 7.63631,-17.00814 12.68405,-50.86688 5.93379,-39.80204 9.28522,-52.34821 13.81204,-51.705825 1.75349,0.248831 2.67185,1.521628 4.01171,5.559965 2.40808,7.25799 5.23047,26.67994 7.74012,53.26274 4.94074,52.33358 9.9377,80.73348 15.79149,89.75 1.62052,2.49606 5.37987,2.98018 7.09492,0.91367 z M 122.48055,18.251975 c 0.99183,-5.286881 2.4865,-2.677394 3.0466,5.318926 L 126.01249,30.5 123.91705,26.132227 c -1.52271,-3.173949 -1.91534,-5.327823 -1.4365,-7.880252 z" id="path3048" inkscape:connector-curvature="0"/>
    <path style="fill:#c14949" d="m 153.31868,237.20035 c 3.56426,-3.93846 6.93089,-18.31164 11.75111,-50.16924 5.04252,-33.32672 8.17679,-46.29928 12.4946,-51.71433 1.94744,-2.44232 2.47352,-2.62054 4.71746,-1.59813 3.39181,1.54541 6.02506,8.83671 9.81256,27.17039 1.66013,8.03603 3.6126,16.63596 4.3388,19.11096 3.16677,10.79271 7.08642,17 10.73483,17 2.54517,0 6.87736,-6.41144 9.83196,-14.55085 3.30091,-9.09343 8.43072,-14.46762 13.75,-14.40502 2.0625,0.0243 6,0.63918 8.75,1.36645 2.75,0.72727 5.5625,1.10927 6.25,0.84888 1.85501,-0.70258 1.51697,-6.53005 -0.77313,-13.32811 -3.46377,-10.28205 -12.03573,-31.63106 -13.48159,-33.57677 -2.17057,-2.92096 -4.20502,-0.88603 -11.0604,11.063 -12.01765,20.94692 -13.04136,20.36048 -22.80932,-13.06654 -8.69513,-29.75568 -15.33786,-46.259191 -19.21898,-47.748514 -4.79445,-1.839804 -7.69609,6.247669 -13.36768,37.258554 -4.33076,23.67951 -6.74694,32.29141 -9.96174,35.50621 -6.35346,6.35345 -10.50406,-8.79723 -16.07702,-58.685044 C 132.27454,27.476368 128.15258,7 122.75856,7 c -3.81122,0 -6.80027,9.941506 -16.23585,54 -9.78935,45.71046 -17.01493,72.20743 -20.00328,73.35417 -2.32828,0.89344 -3.24075,-1.33541 -7.52177,-18.37296 C 74.31713,97.353688 69.05599,84.907787 64.09915,80.736883 62.31022,79.231597 60.35401,78 59.75202,78 c -2.88918,0 -5.20938,4.736683 -10.85776,22.16606 -9.21628,28.43896 -11.20609,30.2495 -20.14918,18.33394 -4.00686,-5.33863 -5.83636,-7 -7.70843,-7 -3.21938,0 -4.00893,3.70517 -2.85263,13.3867 0.92882,7.77689 6.48251,25.54831 10.39986,33.27884 C 31.67409,164.26376 36.70769,170 38.96873,170 c 5.3477,0 10.21589,-9.115 16.02255,-30 3.21445,-11.56149 5.17927,-16 7.0828,-16 1.64528,0 3.54537,5.54462 9.48791,27.6864 8.17053,30.44321 12.86739,40.75195 18.27894,40.11883 5.8315,-0.68226 9.12664,-11.75915 15.13916,-50.89158 C 111.1859,100.52325 114.48465,88 118.91809,88 c 5.14187,0 7.89305,13.52019 12.61614,62 4.46921,45.8739 8.04494,68.57403 12.68039,80.5 3.18424,8.19236 5.92701,10.21096 9.10406,6.70035 z M 229,126.31854 c 0,-2.01158 1.64646,-0.77848 2.30062,1.72303 0.44504,1.70185 0.28771,1.86166 -0.87929,0.89314 C 229.6396,128.28593 229,127.10865 229,126.31854 z M 58.37263,85.294035 c 0.85315,-0.853148 4.54462,2.645267 6.22975,5.903945 2.64137,5.107851 1.39192,5.056114 -2.72362,-0.11278 -2.26668,-2.846832 -3.84444,-5.452856 -3.50613,-5.791165 z M 176,79.303833 c 0,-5.554992 5.36925,-0.892943 6.62044,5.748441 L 183.26996,88.5 179.63498,85.053833 C 177.5041,83.033636 176,80.654377 176,79.303833 z M 123.75059,34.746721 c -3.17715,-7.315228 -3.48842,-8.764369 -2.73862,-12.75 C 122.05368,16.459331 122.97219,14 123.99858,14 c 1.2316,0 1.52132,1.609414 4.54536,25.25 0.76523,5.9822 -0.93172,4.387941 -4.79335,-4.503279 z" id="path3046" inkscape:connector-curvature="0"/>
    <path style="fill:#be4141" d="m 153.84842,236.46557 c 2.37348,-3.01738 6.22819,-18.7996 9.15075,-37.46557 7.12358,-45.49735 9.48145,-56.44962 13.40682,-62.27448 3.1269,-4.64001 6.38559,-4.36827 9.28737,0.77448 2.15537,3.81991 3.07775,7.3314 8.77661,33.41261 2.75541,12.61033 7.21793,23.31481 10.43797,25.03812 4.22126,2.25915 7.20518,-1.1224 12.0297,-13.63279 4.83147,-12.52843 10.64671,-16.56244 19.84975,-13.76968 2.59193,0.78655 6.01279,1.43496 7.6019,1.44092 2.87622,0.0108 2.88664,-0.0116 2.30357,-4.93465 -0.32214,-2.72 -3.14312,-11.6075 -6.26885,-19.75 -7.61562,-19.83863 -9.37135,-23.46314 -11.19093,-23.10232 -0.82596,0.16378 -3.88216,4.34779 -6.79155,9.29779 -10.29407,17.51421 -12.76759,19.68115 -16.55149,14.5 -1.00419,-1.375 -4.98519,-13.09745 -8.84666,-26.04988 -7.33166,-24.592375 -10.13024,-32.336393 -14.49306,-40.104082 -3.69769,-6.583466 -5.09647,-7.56674 -7.5743,-5.32434 -2.77658,2.512772 -5.32238,11.832911 -9.41778,34.478302 -5.36727,29.67824 -8.39092,39 -12.6502,39 -5.61982,0 -9.01302,-14.81259 -14.39262,-62.829204 -4.02746,-35.947902 -6.62181,-53.783495 -9.51307,-65.400289 -5.49788,-22.0899782 -9.71213,-16.6350781 -18.54458,24.004019 -10.25015,47.162095 -12.57844,57.327014 -15.93982,69.590644 -1.93944,7.07585 -4.39908,14.83835 -5.46587,17.25 -3.60326,8.14576 -5.05841,5.99028 -10.60434,-15.70798 C 72.6552,92.24408 66.89711,80.252379 61.07655,78.730268 57.0149,77.668123 55.34612,80.546642 49.48038,98.732816 c -3.15182,9.771954 -6.82096,19.932484 -8.15364,22.578964 -3.44292,6.83708 -6.16718,6.34693 -12.2666,-2.20701 -5.14115,-7.21006 -7.00819,-8.72242 -9.5594,-7.74343 -1.57005,0.60249 -1.71469,1.7274 -1.27407,9.90915 0.3936,7.30857 1.37084,11.83113 4.69534,21.72951 6.30107,18.76082 12.69869,28.20732 17.97024,26.5342 4.56325,-1.44832 7.27699,-7.75965 16.78386,-39.0342 3.54153,-11.65048 6.69556,-7.93504 12.309,14.5 6.25821,25.01192 12.57015,42.76731 16.29115,45.82676 2.47562,2.03548 5.9317,1.00088 7.88961,-2.3618 2.80956,-4.82537 6.52793,-20.52778 9.34539,-39.46496 6.07522,-40.83373 9.69143,-57.063484 13.47807,-60.49034 1.89613,-1.715977 2.11786,-1.722628 3.89233,-0.116754 3.9961,3.616414 6.60395,18.737884 11.14217,64.607094 4.23575,42.81198 7.4439,63.32672 11.95253,76.43128 3.28988,9.56222 6.23365,11.65979 9.87206,7.03429 z M 228,126.50325 c 0,-0.76187 0.45943,-1.66916 1.02096,-2.0162 1.00909,-0.62366 4.00857,5.25064 3.94744,7.73083 C 232.92604,133.93656 228,128.27066 228,126.50325 z M 63.5,95.350938 c -6.4301,-8.486778 -6.53267,-8.680042 -5.49637,-10.35681 1.23898,-2.004721 4.51276,1.125912 7.65296,7.318343 C 71.49806,103.83179 70.7375,104.90336 63.5,95.350938 z M 175,80.914237 c 0,-1.468141 0.72658,-3.272353 1.61462,-4.009359 1.38359,-1.148278 1.88081,-1.011264 3.47509,0.957578 2.04463,2.525013 3.89601,8.260095 3.90471,12.095752 C 183.99968,92.27774 183.74614,92.167271 179.5,88 176.39353,84.951232 175,82.756957 175,80.914237 z m -51.31793,-41.16314 -4.5998,-10.30507 1.44573,-6.909883 c 1.5626,-7.468416 2.9875,-9.938109 4.40788,-7.639887 0.96228,1.557004 1.55371,4.913884 3.61881,20.540163 2.52383,19.097363 1.95188,19.603819 -4.87262,4.314677 z" id="path3044" inkscape:connector-curvature="0"/>
    <path style="fill:#bb3737" d="m 153.18303,237.28702 c 3.38233,-3.87451 6.81192,-19.0043 11.85233,-52.28702 5.7437,-37.92663 10.0644,-52 15.96464,-52 4.25714,0 7.44852,7.82082 11.5084,28.20262 5.37108,26.9644 10.10899,37.41638 15.94567,35.17663 2.03832,-0.78218 5.79842,-7.22786 8.5818,-14.71121 2.64115,-7.10094 6.90058,-12.16193 11.51836,-13.68594 2.79594,-0.92274 4.40194,-0.82524 8.42667,0.51156 2.73482,0.90836 5.99541,1.50639 7.24575,1.32895 3.9548,-0.56122 2.81069,-7.32609 -4.25349,-25.15013 -5.82745,-14.70355 -8.157,-19.28707 -6.02586,-11.85625 C 234.4495,134.5673 234.503,136 234.06619,136 232.66142,136 228,128.46655 228,126.19625 c 0,-2.79654 2.64589,-2.88731 3.52392,-0.12089 0.36228,1.14145 0.90356,1.83049 1.20284,1.53121 0.29929,-0.29928 -0.227,-1.72109 -1.16952,-3.15956 -1.66105,-2.53508 -1.77467,-2.56021 -3.69945,-0.81831 -1.09218,0.98841 -4.43052,6.11488 -7.41855,11.39217 -12.00542,21.20331 -13.13674,20.42922 -23.962,-16.39557 -5.71704,-19.447887 -10.95142,-34.182292 -12.47852,-35.12609 -0.4786,-0.295789 -0.4491,0.930412 0.0656,2.724893 0.5146,1.794481 0.93568,4.598748 0.93568,6.231703 l 0,2.96901 -5.00004,-4.924856 c -2.75002,-2.708671 -5.26588,-5.762428 -5.59079,-6.786127 C 173.51587,80.899296 175.91106,76 178.18034,76 c 1.06573,0 1.65958,-0.45 1.31966,-1 -0.33992,-0.55 -1.47992,-1 -2.53334,-1 -3.79378,0 -6.5743,8.789737 -11.4926,36.33024 C 160.29838,139.312 157.42141,148 153,148 147.1301,148 143.45215,131.90148 138.03555,82.5 131.79871,25.617634 126.93987,3.4853084 121.65238,7.8735376 118.10815,10.814984 115.90969,19.126476 102.9807,78.463726 95.00269,115.07859 88.91947,135 85.71675,135 83.70383,135 82.26561,131.24541 78.97837,117.40896 75.25043,101.71752 71.82264,91.957072 67.88472,85.820358 64.5749,80.662446 62.43155,79 59.09142,79 c -2.72952,0 -3.9826,2.668303 -9.62712,20.5 -7.51214,23.73174 -10.27651,28.74124 -14.58708,26.43429 -0.92094,-0.49287 -3.74648,-3.79984 -6.27898,-7.34882 -4.72957,-6.6279 -8.1514,-8.89877 -9.70777,-6.44248 -5.10927,8.0635 9.59092,53.50993 18.35746,56.75307 6.00693,2.22224 10.30239,-4.66787 16.81129,-26.96607 C 58.77939,125.75964 59.50106,124 61.41274,124 c 2.86878,0 3.20773,0.96603 13.15734,37.5 5.15624,18.93322 10.63968,30.5 14.45906,30.5 6.36945,0 9.91863,-12.25091 16.5133,-57 4.26112,-28.91437 8.60601,-46.075515 11.99471,-47.375884 6.15087,-2.36031 9.25889,10.734584 13.97393,58.875884 5.3014,54.12822 9.31047,78.00974 14.75159,87.87342 2.56145,4.64342 4.64464,5.52048 6.92036,2.9136 z M 62.66356,95.738115 C 57.16142,88.571668 55.9745,85.173618 58.66104,84.279188 c 1.79451,-0.597449 5.18452,3.557932 8.92976,10.945848 3.37642,6.660374 4.80412,13.166674 2.1274,9.694954 -0.67001,-0.869 -3.8446,-5.000844 -7.05464,-9.181875 z M 124.31374,45.25 C 119.02022,34.038104 118.7922,33.225223 119.3348,27.5 c 0.64652,-6.821918 2.79121,-13.708671 4.44038,-14.258394 1.61106,-0.537019 2.90814,5.215542 5.19908,23.05789 C 131.08666,52.751401 131.38557,57 130.43066,57 c -0.31313,0 -3.06575,-5.2875 -6.11692,-11.75 z" id="path3042" inkscape:connector-curvature="0"/>
    <path style="fill:#b52727" d="m 152.32927,237.71125 c 3.77914,-2.85103 7.02823,-16.75598 13.13458,-56.21125 5.37882,-34.75447 9.20433,-47.57367 14.42278,-48.33036 5.36032,-0.77725 8.38933,5.87488 12.93142,28.39926 6.20254,30.7586 11.4784,39.80966 18.40602,31.57665 1.32103,-1.56995 3.67428,-6.3432 5.22946,-10.60723 4.88267,-13.38744 11.08602,-17.36178 21.81855,-13.97864 7.49836,2.36365 9.17032,1.60839 8.31268,-3.75497 C 245.5652,158.42873 238.05725,140 236.4792,140 234.9101,140 227,129.38404 227,127.27819 c 0,-2.49029 -1.87368,-0.33083 -5.6535,6.51578 C 214.8874,145.49371 212.14938,149 209.47228,149 c -3.45405,0 -5.35739,-4.25977 -12.46778,-27.90343 -6.39273,-21.257292 -10.9752,-34.459205 -11.707,-33.727408 -0.24381,0.243813 0.037,2.172993 0.62403,4.287067 0.58702,2.114074 1.05553,4.968771 1.04112,6.343771 -0.0232,2.21888 -0.82151,1.67314 -7.09879,-4.85317 -6.44729,-6.703059 -7.01795,-7.63139 -6.45458,-10.5 0.33992,-1.730757 1.55603,-4.425829 2.70249,-5.98905 1.94161,-2.647437 1.95781,-2.818767 0.23635,-2.5 -2.82232,0.522614 -6.05312,11.447884 -10.45136,35.34222 -5.58077,30.31872 -8.38852,38.5 -13.21292,38.5 -5.81929,0 -9.4748,-15.93007 -14.68623,-64 C 132.3128,31.563643 127.18565,5.851501 122.69134,7.2406808 119.22372,8.3125115 116.04505,19.017775 107.95868,56.857919 94.52584,119.71687 88.5489,138.9489 83.89329,134.29329 83.25432,133.65432 80.7732,125.35992 78.37969,115.86129 72.24224,91.504923 65.77388,79 59.31261,79 c -2.94562,0 -3.59061,1.418037 -10.91636,24 -5.414,16.68891 -8.14177,22.58138 -10.95285,23.66009 -1.89369,0.72668 -5.14402,-2.21464 -9.49791,-8.59495 -4.32532,-6.33843 -6.83474,-7.93708 -8.62207,-5.49276 -2.85353,3.90243 -0.86134,17.24524 5.04018,33.75698 C 29.74328,161.38105 34.77161,169 39.32569,169 c 5.01228,0 8.51804,-6.611 14.69608,-27.71312 C 58.49006,126.02468 59.40981,124 61.87467,124 c 2.51743,0 3.47305,2.53213 9.67112,25.62602 9.37388,34.9269 14.64875,45.77712 20.06813,41.27943 4.54213,-3.76962 7.38531,-14.91375 12.94822,-50.75184 C 110.93195,99.117203 114.24366,87 119.08933,87 c 5.29776,0 8.49558,16.0399 13.45725,67.5 5.8748,60.93067 12.48133,88.71951 19.78269,83.21125 z M 64.25,100.1548 C 59.7125,94.191701 56,88.653429 56,87.84753 c 0,-0.805899 0.63873,-2.338779 1.41941,-3.4064 1.38875,-1.8992 1.47689,-1.887128 4.08058,0.55887 4.35639,4.092555 14.27518,26.00361 11.76906,25.9984 -0.42298,-8.8e-4 -4.48155,-4.8805 -9.01905,-10.8436 z m 59.3795,-50.257194 -6.70789,-14.602395 1.63079,-7.897605 c 2.83762,-13.742003 5.73707,-17.8591707 7.62858,-10.832446 2.99184,11.114311 7.16929,51.076546 5.11541,48.93484 -0.52745,-0.55 -3.97755,-7.571077 -7.66689,-15.602394 z" id="path3040" inkscape:connector-curvature="0"/>
    <path style="fill:#b11919" d="m 153.25536,236.25 c 3.04933,-3.40905 6.56973,-19.59531 11.799,-54.25 5.98126,-39.63815 10.83408,-52.80599 18.0397,-48.94966 3.31462,1.77393 5.68484,8.53859 10.01251,28.57591 4.29231,19.8736 6.73369,27.62967 10.00681,31.79076 4.24444,5.39593 7.12238,3.06952 12.88662,-10.41701 4.27308,-9.99768 5.95746,-12.40952 10.19798,-14.60238 3.55873,-1.84029 6.9661,-1.76332 13.52951,0.30561 4.67327,1.47312 5.52392,1.50802 6.29628,0.25831 1.49618,-2.42087 -2.71188,-16.90595 -6.33762,-21.81548 -1.20238,-1.62813 -4.97123,-6.60403 -8.37522,-11.05756 l -6.18906,-8.09733 -5.45008,9.25442 c -6.43918,10.93396 -9.01891,13.65445 -11.48033,12.1068 -3.08097,-1.93721 -4.98992,-6.64452 -11.66948,-28.77591 -6.86252,-22.737605 -9.00782,-28.398639 -7.89241,-20.82648 0.34433,2.3375 0.21977,4.25 -0.27679,4.25 -1.15267,0 -14.77924,-13.877557 -16.10256,-16.399154 -0.89235,-1.700383 -1.11111,-1.543389 -2.09013,1.5 -0.60141,1.869535 -2.463,11.299574 -4.13687,20.955644 -4.6396,26.7646 -7.891,37.13199 -12.06024,38.45526 -6.58603,2.09033 -10.43045,-12.85876 -15.9474,-62.01175 -3.45464,-30.778999 -6.50021,-52.500991 -8.4825,-60.5 -1.93637,-7.813707 -1.82213,-5.165697 0.46031,10.669853 2.68421,18.622981 3.90572,33.060626 3.06357,36.209572 -0.6455,2.413603 -0.88689,2.177892 -3.47452,-3.39281 -11.12138,-23.942292 -13.57987,-29.68976 -13.5608,-31.702462 0.0373,-3.932248 3.78829,-19.515924 5.4893,-22.805317 1.03142,-1.994529 2.14706,-2.940315 3.05665,-2.591272 1.5383,0.590302 1.79447,-0.280469 0.82542,-2.8057765 C 125.05917,8.7118044 123.98958,8 123.01616,8 119.44606,8 116.46951,18.105922 107.01876,62.314059 96.15657,113.12457 90.29657,133.90474 86.40962,135.39631 83.95388,136.33867 81.97109,131.60463 77.50811,114.14337 72.88037,96.037501 68.35574,85.322363 63.67327,81.37996 57.88598,76.507353 57.05298,77.656994 49.45694,101 c -6.5137,20.01695 -8.80974,24.79946 -12.33023,25.68305 -2.69299,0.67589 -3.93656,-0.45826 -9.8038,-8.94117 -6.90907,-9.98922 -10.37168,-7.42628 -8.47718,6.2746 1.94934,14.09749 10.36473,36.46243 15.88995,42.22952 6.47774,6.7613 10.99431,1.53883 17.62648,-20.38136 1.89117,-6.25055 3.94523,-13.25689 4.56459,-15.56964 1.10498,-4.12611 3.32977,-7.295 5.12163,-7.295 2.0622,0 4.13763,5.56254 9.42109,25.25035 6.87388,25.61417 10.87515,36.83655 14.52813,40.74708 3.42656,3.66815 5.36058,3.18097 8.01315,-2.0185 3.24808,-6.36676 5.71013,-17.01289 8.94987,-38.7 4.41386,-29.54672 8.73933,-51.055287 11.31797,-56.27893 1.74798,-3.540957 2.75421,-4.5 4.72141,-4.5 5.607,0 8.31127,12.52259 13.05256,60.44217 4.31571,43.6183 7.56668,65.17093 11.97439,79.38529 3.1028,10.00614 5.86785,12.67955 9.22841,8.92254 z M 64.64657,103.35834 C 59.34096,96.405433 55,89.85085 55,88.792603 55,85.755482 56.89529,83 58.98429,83 c 3.32422,0 10.82995,12.333892 15.15404,24.90207 4.03127,11.71709 2.27496,10.87635 -9.49176,-4.54373 z m 63.27448,-84.775007 c 0.0434,-1.054166 -0.19292,-1.644791 -0.52522,-1.3125 -0.33229,0.332292 -0.36781,1.194792 -0.0789,1.916667 0.31922,0.797733 0.55618,0.560776 0.60416,-0.604167 z" id="path3038" inkscape:connector-curvature="0"/>
    <path style="fill:#ae1212" d="m 152.81972,236.71723 c 3.01463,-3.63242 6.57092,-19.69226 11.6209,-52.47894 5.69777,-36.99238 9.6403,-50.46754 15.17185,-51.85587 5.55237,-1.39356 8.88225,5.81611 13.95165,30.20734 4.57119,21.99415 9.03089,33.41024 13.05172,33.41024 2.6724,0 5.93759,-4.72929 9.20622,-13.33427 2.45788,-6.4706 4.18515,-9.34296 7.32309,-12.1779 3.96624,-3.58326 4.29868,-3.68971 9.73069,-3.11603 3.09329,0.32669 7.31166,0.87591 9.37416,1.22049 3.65371,0.61043 3.75,0.54785 3.75,-2.4374 0,-4.39212 -4.40091,-15.90301 -7.26828,-19.01072 -1.34183,-1.45429 -4.78976,-5.79417 -7.66207,-9.64417 -2.8723,-3.85 -5.6907,-7 -6.26311,-7 -0.5724,0 -2.93069,3.32286 -5.24064,7.38414 -9.57258,16.83019 -13.01856,16.22084 -19.01376,-3.36218 -8.84526,-28.89262 -9.96295,-32.06087 -10.3265,-29.27196 -0.47546,3.64737 -1.39323,3.47294 -5.26158,-1 -5.74131,-6.638629 -14.18912,-15.358269 -14.53977,-15.00762 -0.18728,0.187275 -1.71626,7.971853 -3.39773,17.29906 -6.68913,37.10491 -10.699,46.68493 -17.11164,40.88157 C 145.46177,143.39296 142.60236,128.99402 137.51865,85 135.58022,68.225 133.83542,53.825 133.6413,53 c -0.19412,-0.825 -0.13645,5.25 0.12815,13.5 0.33981,10.595039 0.16807,14.706336 -0.58482,14 -0.58625,-0.55 -4.95752,-9.325 -9.71392,-19.5 -8.14958,-17.433732 -8.61499,-18.78818 -8.07502,-23.5 1.25152,-10.920774 5.93232,-25.5 8.18702,-25.5 1.64171,0 1.91435,-2.5747639 0.37349,-3.5270729 C 120.69344,6.4564306 117.61782,15.242984 110.99537,45.5 99.54548,97.812852 97.63434,106.0148 94.3351,117 c -4.38383,14.59651 -6.24804,18.5 -8.8351,18.5 -1.64334,0 -2.54969,-1.69414 -5.08241,-9.5 -1.69533,-5.225 -3.32658,-8.825 -3.625,-8 -0.3663,1.01265 -0.88494,1.1751 -1.5963,0.5 C 73.81703,117.19104 55.82482,93.698434 54.40311,91.350135 53.49467,89.849617 52.50856,92.026123 48.66319,104.01918 42.82031,122.24208 40.51317,126.5 36.48199,126.5 c -2.5063,0 -3.77005,-1.09958 -8.33248,-7.25 C 24.78504,114.7145 22.06538,112 20.88571,112 19.22054,112 19,112.80588 19,118.89052 c 0,14.9444 10.56942,44.16035 17.65553,48.80334 5.79269,3.79552 9.72818,-2.47244 17.01094,-27.09287 4.56356,-15.42777 6.01922,-18.31932 8.7037,-17.28918 2.52814,0.97013 4.21763,5.39036 9.05855,23.69994 6.11918,23.14427 8.10811,29.33609 11.89678,37.0363 2.57327,5.22998 3.67338,6.50976 5.80856,6.75718 2.23679,0.2592 2.95118,-0.34987 4.73681,-4.03849 3.30406,-6.82527 5.83392,-18.18236 9.61031,-43.14273 7.55308,-49.922821 10.74552,-60.248971 17.50773,-56.629943 4.13837,2.214785 6.85378,16.460433 11.05672,58.005933 4.97357,49.16315 7.23778,64.85393 11.47197,79.5 3.61022,12.48774 6.22619,15.9235 9.30212,12.21723 z M 75.95773,109.35534 C 76.03663,107.21867 71.78348,94.522209 69.431,89.871796 67.11966,85.302729 61.64902,79 59.99451,79 59.08496,79 56,81.810257 56,82.638816 c 0,0.272778 0.81001,0.238871 1.80003,-0.07535 3.54796,-1.126079 9.48254,7.293014 15.81539,22.436534 1.26502,3.025 2.31906,4.9849 2.34231,4.35534 z M 132.768,48 c 0,-1.925 -0.2058,-2.7125 -0.45733,-1.75 -0.25152,0.9625 -0.25152,2.5375 0,3.5 0.25153,0.9625 0.45733,0.175 0.45733,-1.75 z m -0.96295,-7.5 c 0.0204,-1.65 -0.18706,-2.446064 -0.46099,-1.769032 -0.27392,0.677033 -0.29059,2.027033 -0.037,3 0.25349,0.972968 0.47761,0.419032 0.49799,-1.230968 z M 130.84211,34 c 0,-1.375 -0.22698,-1.9375 -0.50439,-1.25 -0.27741,0.6875 -0.27741,1.8125 0,2.5 0.27741,0.6875 0.50439,0.125 0.50439,-1.25 z" id="path3036" inkscape:connector-curvature="0"/>
    <path style="fill:#a80101" d="m 152.26808,236.25627 c 0.87599,-0.96796 2.08116,-3.04463 2.67814,-4.61482 1.73404,-4.56087 5.71851,-25.46676 9.08003,-47.64145 4.81965,-31.79344 8.59147,-46.5341 12.90627,-50.43893 1.11199,-1.00634 3.05958,-1.57715 4.72905,-1.38603 4.49913,0.51508 7.81385,8.42487 11.91737,28.43798 3.90784,19.05877 6.62314,28.10288 9.55717,31.83289 4.225,5.37121 7.55621,2.47358 12.8058,-11.13906 5.01816,-13.01252 11.7254,-17.31188 21.70351,-13.912 6.25052,2.12977 8.35458,2.05685 8.35458,-0.28951 0,-3.45292 -3.97827,-14.84261 -5.67085,-16.23553 -0.91548,-0.7534 -4.80044,-5.61046 -8.63325,-10.79349 -7.82537,-10.58208 -7.30724,-10.541 -12.22028,-0.96888 -5.35525,10.43371 -10.35301,13.40648 -14.23717,8.46857 -1.04869,-1.33319 -4.31139,-10.34316 -7.25043,-20.02214 -3.69482,-12.16792 -5.6642,-17.27769 -6.38231,-16.55958 -0.71811,0.71811 -4.18132,-2.09346 -11.22347,-9.11165 l -10.18489,-10.15023 -1.07622,5.383795 c -0.59192,2.961085 -2.21037,11.745795 -3.59655,19.521575 -2.68372,15.05432 -5.75499,26.25804 -8.23616,30.04479 -2.05026,3.12909 -6.70803,3.13285 -8.75613,0.007 -3.36703,-5.13874 -6.81947,-21.86777 -9.94511,-48.18963 -0.84904,-7.15 -1.71107,-14.35 -1.91561,-16 -0.20977,-1.692134 -0.43723,-0.711234 -0.52174,2.25 -0.0824,2.8875 -0.52042,5.25 -0.97335,5.25 -0.45294,0 -5.45633,-10.0125 -11.11865,-22.25 l -10.29511,-22.25 0.48867,-7 0.48867,-7 -1.34922,5.5 c -0.74208,3.025 -3.62516,16.075 -6.40686,29 -6.0961,28.325159 -13.12088,55.95092 -16.2153,63.76851 -1.88007,4.74972 -2.72189,5.78397 -4.91445,6.03785 -2.31144,0.26766 -2.83971,-0.23779 -4.18064,-4 -0.84419,-2.3685 -1.78617,-5.49009 -2.0933,-6.93687 -0.30713,-1.44678 -1.38956,-2.84786 -2.40541,-3.11351 -1.01584,-0.26565 -6.75383,-6.82635 -12.75107,-14.57935 -5.99725,-7.752994 -11.18997,-13.776915 -11.53939,-13.386492 -0.34941,0.390424 -2.32919,5.884862 -4.3995,12.209862 -6.12686,18.71817 -9.47106,23.78602 -14.01718,21.24189 -0.86493,-0.48405 -3.91347,-3.99899 -6.77452,-7.81099 -2.86106,-3.81199 -5.87496,-6.9309 -6.69757,-6.9309 -3.87178,0 -1.87138,16.03858 4.09505,32.8328 C 30.57457,160.76875 35.21551,168 39.63826,168 c 4.45451,0 7.12371,-5.95744 16.57764,-37 2.04616,-6.71872 2.56461,-7.53239 4.97692,-7.81091 3.76838,-0.43508 4.76068,1.87419 11.34122,26.39314 C 80.37788,178.80824 85.38657,191 89.54953,191 c 3.93367,0 8.07511,-13.04344 11.9115,-37.51521 7.64444,-48.76283 10.0981,-60.383299 13.72291,-64.991505 C 116.26261,87.121978 117.94275,86 118.91759,86 c 6.1719,0 8.94753,12.60673 14.09095,64 5.47564,54.7128 10.38315,81.42455 15.87201,86.3919 1.6594,1.50174 1.91499,1.49151 3.38753,-0.13563 z M 71.4198,96 C 68.76896,86.202684 60.07482,76.833856 57.5,81 c -0.33992,0.55 0.23008,1 1.26667,1 2.43659,0 5.72238,3.547971 9.94675,10.740413 C 70.57395,95.908186 71.79183,97.375 71.4198,96 z M 117.32047,24.775201 C 119.51826,16.025768 121.76625,11 123.48204,11 c 0.88266,0 1.22873,-0.590159 0.87959,-1.5 -0.94583,-2.4647885 -2.03196,-1.7369659 -4.10381,2.75 -2.33866,5.064765 -5.78057,17.560586 -5.04075,18.300399 0.28692,0.286925 1.23345,-2.311914 2.1034,-5.775198 z" id="path3034" inkscape:connector-curvature="0"/>
    <path style="fill:#9a0000" d="m 150.71121,234.2092 c 2.13337,-1.3726 4.41138,-8.28141 4.97661,-15.09322 0.51722,-6.23309 0.10733,-7.976 -7.08251,-30.11598 -7.1921,-22.14692 -10.44241,-29.49623 -12.24696,-27.69169 -0.98102,0.98102 2.18519,33.57052 4.68203,48.19169 3.06034,17.92095 6.51248,26.74127 9.67083,24.7092 z m 59.84655,-41.65701 c 2.24589,-3.42766 4.34976,-9.46462 4.37442,-12.55219 0.0158,-1.97828 -1.52621,-3.59679 -7.3891,-7.75567 -8.88401,-6.30193 -10.10222,-6.83557 -10.89404,-4.77212 -0.96341,2.51061 2.12449,15.4929 5.1205,21.52779 3.21176,6.46949 6.10934,7.64068 8.78822,3.55219 z M 91.41442,188.09456 C 93.30681,186.00349 96,177.98271 96,174.43789 c 0,-1.62685 -2.62014,-4.37333 -9.52425,-9.98349 -5.23833,-4.25658 -9.82135,-7.44213 -10.18448,-7.079 -1.53539,1.53539 7.13656,27.22989 10.41149,30.84864 2.0257,2.23839 2.58263,2.22308 4.71166,-0.12948 z M 43.4433,163.77749 c 3.21055,-4.5837 2.144,-6.72792 -8.74356,-17.57843 -5.66514,-5.64586 -10.58125,-9.98422 -10.92468,-9.64079 -0.67945,0.67945 0.63977,5.19497 4.59097,15.71433 2.97146,7.91098 3.27787,8.50134 5.95705,11.4774 2.64946,2.94305 7.06875,2.95637 9.12022,0.0275 z" id="path3032" inkscape:connector-curvature="0"/>
  </g>
</svg>