<?xml version="1.0" encoding="UTF-8" standalone="no"?>
<!-- Generator: Adobe Illustrator 19.0.0, SVG Export Plug-In . SVG Version: 6.00 Build 0)  -->

<svg
   xmlns:dc="http://purl.org/dc/elements/1.1/"
   xmlns:cc="http://creativecommons.org/ns#"
   xmlns:rdf="http://www.w3.org/1999/02/22-rdf-syntax-ns#"
   xmlns:svg="http://www.w3.org/2000/svg"
   xmlns="http://www.w3.org/2000/svg"
   xmlns:sodipodi="http://sodipodi.sourceforge.net/DTD/sodipodi-0.dtd"
   xmlns:inkscape="http://www.inkscape.org/namespaces/inkscape"
   version="1.1"
   id="Layer_1"
   x="0px"
   y="0px"
   viewBox="0 0 286.053 286.053"
   style="enable-background:new 0 0 286.053 286.053;"
   xml:space="preserve"
   sodipodi:docname="download (1).svg"
   inkscape:version="0.92.1 r"><metadata
     id="metadata41"><rdf:RDF><cc:Work
         rdf:about=""><dc:format>image/svg+xml</dc:format><dc:type
           rdf:resource="http://purl.org/dc/dcmitype/StillImage" /></cc:Work></rdf:RDF></metadata><defs
     id="defs39" /><sodipodi:namedview
     pagecolor="#ffffff"
     bordercolor="#666666"
     borderopacity="1"
     objecttolerance="10"
     gridtolerance="10"
     guidetolerance="10"
     inkscape:pageopacity="0"
     inkscape:pageshadow="2"
     inkscape:window-width="1366"
     inkscape:window-height="708"
     id="namedview37"
     showgrid="false"
     inkscape:zoom="0.82502191"
     inkscape:cx="143.0265"
     inkscape:cy="143.0265"
     inkscape:window-x="0"
     inkscape:window-y="28"
     inkscape:window-maximized="1"
     inkscape:current-layer="Layer_1" /><path
     inkscape:connector-curvature="0"
     id="path2"
     d="m 129.162,204.922 c 10.62,10.62 16.672,11.031 27.72,0 l 81.212,-83.242 c 7.625,-12.846 1.386,-23.349 -13.856,-23.349 H 187.721 V 17.878 C 187.723,8.01 179.713,0 169.845,0 H 116.21 C 106.341,0 98.332,8.01 98.332,17.878 V 98.331 H 61.806 c -15.241,0 -21.481,10.512 -13.856,23.349 z m 139.014,36.436 H 17.878 C 8.01,241.358 0,249.367 0,259.236 v 8.939 c 0,9.878 8.01,17.878 17.878,17.878 h 250.297 c 9.869,0 17.878,-8.001 17.878,-17.878 v -8.939 c 10e-4,-9.869 -8.009,-17.878 -17.877,-17.878 z"
     style="fill:#008080" /><g
     id="g6" /><g
     id="g8" /><g
     id="g10" /><g
     id="g12" /><g
     id="g14" /><g
     id="g16" /><g
     id="g18" /><g
     id="g20" /><g
     id="g22" /><g
     id="g24" /><g
     id="g26" /><g
     id="g28" /><g
     id="g30" /><g
     id="g32" /><g
     id="g34" /></svg>