<?xml version="1.0" encoding="iso-8859-1"?>
<!-- Generator: Adobe Illustrator 19.0.0, SVG Export Plug-In . SVG Version: 6.00 Build 0)  -->
<svg version="1.1" id="Capa_1" xmlns="http://www.w3.org/2000/svg" xmlns:xlink="http://www.w3.org/1999/xlink" x="0px" y="0px"
	 viewBox="0 0 52 52" style="enable-background:new 0 0 52 52;" xml:space="preserve">
<path style="fill:#C7CAC7;" d="M48.872,22.898c-4.643-0.893-6.772-6.318-3.976-10.13l1.964-2.678l-4.243-4.243l-2.638,1.787
	c-3.914,2.652-9.256,0.321-9.974-4.351L29.5,0h-6l-0.777,4.041c-0.873,4.54-6.105,6.708-9.933,4.115L9.383,5.847L5.14,10.09
	l1.964,2.678c2.796,3.812,0.666,9.237-3.976,10.13L0,23.5v6l3.283,0.505c4.673,0.719,7.003,6.061,4.351,9.975l-1.787,2.637
	l4.243,4.243l2.678-1.964c3.812-2.796,9.237-0.667,10.13,3.976L23.5,52h6l0.355-2.309c0.735-4.776,6.274-7.071,10.171-4.213
	l1.884,1.382l4.243-4.243l-1.787-2.637c-2.651-3.914-0.321-9.256,4.351-9.975L52,29.5v-6L48.872,22.898z M26.5,31
	c-2.485,0-4.5-2.015-4.5-4.5s2.015-4.5,4.5-4.5s4.5,2.015,4.5,4.5S28.985,31,26.5,31z"/>
<path style="fill:#556080;" d="M26.5,17c-5.247,0-9.5,4.253-9.5,9.5s4.253,9.5,9.5,9.5s9.5-4.253,9.5-9.5S31.747,17,26.5,17z
	 M26.5,31c-2.485,0-4.5-2.015-4.5-4.5s2.015-4.5,4.5-4.5s4.5,2.015,4.5,4.5S28.985,31,26.5,31z"/>
<g>
</g>
<g>
</g>
<g>
</g>
<g>
</g>
<g>
</g>
<g>
</g>
<g>
</g>
<g>
</g>
<g>
</g>
<g>
</g>
<g>
</g>
<g>
</g>
<g>
</g>
<g>
</g>
<g>
</g>
</svg>
