<?xml version="1.0" encoding="UTF-8" standalone="no"?>
<!-- Generator: Adobe Illustrator 19.0.0, SVG Export Plug-In . SVG Version: 6.00 Build 0)  -->

<svg
   xmlns:dc="http://purl.org/dc/elements/1.1/"
   xmlns:cc="http://creativecommons.org/ns#"
   xmlns:rdf="http://www.w3.org/1999/02/22-rdf-syntax-ns#"
   xmlns:svg="http://www.w3.org/2000/svg"
   xmlns="http://www.w3.org/2000/svg"
   xmlns:sodipodi="http://sodipodi.sourceforge.net/DTD/sodipodi-0.dtd"
   xmlns:inkscape="http://www.inkscape.org/namespaces/inkscape"
   version="1.1"
   id="Capa_1"
   x="0px"
   y="0px"
   viewBox="0 0 47 47"
   style="enable-background:new 0 0 47 47;"
   xml:space="preserve"
   sodipodi:docname="save.svg"
   inkscape:version="0.92.1 r"><metadata
     id="metadata57"><rdf:RDF><cc:Work
         rdf:about=""><dc:format>image/svg+xml</dc:format><dc:type
           rdf:resource="http://purl.org/dc/dcmitype/StillImage" /></cc:Work></rdf:RDF></metadata><defs
     id="defs55" /><sodipodi:namedview
     pagecolor="#ffffff"
     bordercolor="#666666"
     borderopacity="1"
     objecttolerance="10"
     gridtolerance="10"
     guidetolerance="10"
     inkscape:pageopacity="0"
     inkscape:pageshadow="2"
     inkscape:window-width="830"
     inkscape:window-height="480"
     id="namedview53"
     showgrid="false"
     inkscape:zoom="5.0212766"
     inkscape:cx="23.5"
     inkscape:cy="23.5"
     inkscape:window-x="0"
     inkscape:window-y="28"
     inkscape:window-maximized="0"
     inkscape:current-layer="Capa_1" /><polygon
     style="fill:#424A60;"
     points="46.5,8 46.5,47 0.5,47 0.5,0 38.5,0 "
     id="polygon2" /><rect
     x="7.5"
     y="26"
     style="fill:#e6e6e6"
     width="31"
     height="21"
     id="rect4" /><rect
     x="7.5"
     y="26"
     style="fill:#e6e6e6"
     width="31"
     height="12.037"
     id="rect6" /><rect
     x="9.5"
     style="fill:#e6e6e6"
     width="26"
     height="16"
     id="rect8" /><g
     id="g16"><path
       style="fill:#FFFFFF;"
       d="M12.5,31h7c0.553,0,1-0.447,1-1s-0.447-1-1-1h-7c-0.553,0-1,0.447-1,1S11.947,31,12.5,31z"
       id="path10" /><path
       style="fill:#f9f9f9"
       d="M22.5,33h-10c-0.553,0-1,0.447-1,1s0.447,1,1,1h10c0.553,0,1-0.447,1-1S23.053,33,22.5,33z"
       id="path12" /></g><rect
     x="27.5"
     y="4"
     style="fill:none;stroke:#424A60;stroke-width:2;stroke-linecap:round;stroke-miterlimit:10;"
     width="4"
     height="8"
     id="rect18" /><polygon
     style="fill:#e6e6e6"
     points="24.5,16 9.5,16 9.5,0 16.5,0 "
     id="polygon20" /><g
     id="g22" /><g
     id="g24" /><g
     id="g26" /><g
     id="g28" /><g
     id="g30" /><g
     id="g32" /><g
     id="g34" /><g
     id="g36" /><g
     id="g38" /><g
     id="g40" /><g
     id="g42" /><g
     id="g44" /><g
     id="g46" /><g
     id="g48" /><g
     id="g50" /></svg>