<?xml version="1.0" encoding="iso-8859-1"?>
<!-- Generator: Adobe Illustrator 19.0.0, SVG Export Plug-In . SVG Version: 6.00 Build 0)  -->
<svg version="1.1" id="Capa_1" xmlns="http://www.w3.org/2000/svg" xmlns:xlink="http://www.w3.org/1999/xlink" x="0px" y="0px"
	 viewBox="0 0 58 58" style="enable-background:new 0 0 58 58;" xml:space="preserve">
<path style="fill:#EFCE4A;" d="M46.324,58H1.565c-1.03,0-1.779-0.978-1.51-1.973l10.166-27.871C10.405,27.474,11.024,27,11.731,27
	H56.49c1.03,0,1.51,0.984,1.51,1.973L47.834,56.844C47.65,57.526,47.031,58,46.324,58z"/>
<path style="fill:#EBBA16;" d="M50.268,18H48v9h4v-7.268C52,18.775,51.224,18,50.268,18z"/>
<path style="fill:#EBBA16;" d="M4,11H1.732C0.776,11,0,11.775,0,12.732V55.46c0.069,0.002,0.138,0.006,0.205,0.01L4,45.122V11z"/>
<path style="fill:#F4EFDC;" d="M10.221,28.156C10.405,27.474,11.024,27,11.731,27h2H48V15V0H33H10v28.761L10.221,28.156z"/>
<g>
	<path style="fill:#CEC9AE;" d="M17,16h24c0.552,0,1-0.447,1-1s-0.448-1-1-1H17c-0.552,0-1,0.447-1,1S16.448,16,17,16z"/>
	<path style="fill:#CEC9AE;" d="M17,9h10c0.552,0,1-0.447,1-1s-0.448-1-1-1H17c-0.552,0-1,0.447-1,1S16.448,9,17,9z"/>
	<path style="fill:#CEC9AE;" d="M41,21H17c-0.552,0-1,0.447-1,1s0.448,1,1,1h24c0.552,0,1-0.447,1-1S41.552,21,41,21z"/>
</g>
<polygon style="fill:#CEC9AE;" points="10,28.761 10,2 7,2 7,36.986 "/>
<polygon style="fill:#D1BF86;" points="7,36.986 7,4 4,4 4,45.211 "/>
<g>
</g>
<g>
</g>
<g>
</g>
<g>
</g>
<g>
</g>
<g>
</g>
<g>
</g>
<g>
</g>
<g>
</g>
<g>
</g>
<g>
</g>
<g>
</g>
<g>
</g>
<g>
</g>
<g>
</g>
</svg>
