<?xml version="1.0" encoding="iso-8859-1"?>
<!-- Generator: Adobe Illustrator 19.0.0, SVG Export Plug-In . SVG Version: 6.00 Build 0)  -->
<svg version="1.1" id="Layer_1" xmlns="http://www.w3.org/2000/svg" xmlns:xlink="http://www.w3.org/1999/xlink" x="0px" y="0px"
	 viewBox="0 0 512.001 512.001" style="enable-background:new 0 0 512.001 512.001;" xml:space="preserve">
<path style="fill:#F4BE8E;" d="M466.475,7.812L214.289,260.005l37.709,37.711L504.176,45.529c5.031-5.047,7.812-11.734,7.812-18.858
	c0-7.125-2.781-13.812-7.812-18.859C499.145,2.781,492.442,0,485.317,0C478.208,0,471.506,2.781,466.475,7.812z"/>
<path style="fill:#FFCE54;" d="M153.963,508.863L3.133,358.041c-2.422-2.422-3.531-5.859-2.984-9.25
	c0.547-3.375,2.695-6.297,5.757-7.828c58.662-29.327,125.753-81.317,126.425-81.849c4.25-3.296,10.289-2.921,14.086,0.891
	l105.582,105.582c3.805,3.797,4.18,9.844,0.875,14.094c-0.516,0.672-52.498,67.763-81.833,126.417
	c-1.531,3.062-4.445,5.219-7.827,5.766C159.83,512.41,156.385,511.301,153.963,508.863z"/>
<g>
	<path style="fill:#F6BB42;" d="M20.468,375.384l15.429,15.422c9.961-5.344,42.741-23.328,64.123-39.296
		c4.711-3.531,5.68-10.219,2.156-14.938c-3.531-4.719-10.21-5.672-14.929-2.156c-23.562,17.609-63.794,38.858-64.201,39.062
		C22.069,373.993,21.21,374.634,20.468,375.384z"/>
	<path style="fill:#F6BB42;" d="M133.635,482.817c12.375-29.593,51.021-80.06,51.404-80.575c3.594-4.672,2.719-11.358-1.961-14.952
		c-4.671-3.578-11.367-2.703-14.952,1.969c-1.586,2.062-37.631,49.138-52.42,81.355l15.633,15.625
		C132.292,485.286,133.081,484.146,133.635,482.817z"/>
	<path style="fill:#F6BB42;" d="M86.09,441.006l30.163-30.17c4.164-4.172,4.164-10.922,0-15.078c-4.163-4.171-10.913-4.171-15.077,0
		l-30.171,30.155l0,0L86.09,441.006L86.09,441.006z"/>
</g>
<path style="fill:#E6E9ED;" d="M232.858,406.773c11.633-16.28,19.812-26.827,20.015-27.093c3.305-4.25,2.93-10.297-0.875-14.094
	L146.417,260.005c-3.797-3.812-9.836-4.187-14.086-0.891c-0.266,0.219-10.82,8.391-27.1,20.039L232.858,406.773z"/>
<g>
	<path style="fill:#CCD1D9;" d="M146.417,305.262c-4.164-4.172-4.164-10.921,0-15.093l7.546-7.531
		c4.164-4.172,10.914-4.172,15.078,0c4.171,4.156,4.171,10.906,0,15.078l-7.539,7.546
		C157.338,309.417,150.588,309.417,146.417,305.262z"/>
	<path style="fill:#CCD1D9;" d="M176.587,335.416L176.587,335.416c-4.164-4.156-4.164-10.922,0-15.077l7.539-7.547
		c4.164-4.155,10.922-4.155,15.085,0l0,0c4.164,4.172,4.164,10.921,0,15.093l-7.546,7.531
		C187.5,339.588,180.751,339.588,176.587,335.416z"/>
	<path style="fill:#CCD1D9;" d="M206.75,365.587c-4.164-4.172-4.164-10.921,0-15.077l7.539-7.547c4.172-4.172,10.922-4.172,15.085,0
		c4.164,4.156,4.164,10.922,0,15.078l-7.539,7.546C217.671,369.759,210.914,369.759,206.75,365.587z"/>
</g>
<path style="fill:#ED5564;" d="M267.084,365.587c2.289-2.297,3.414-5.499,3.055-8.718l-7.539-67.872
	c-0.266-2.406-1.344-4.656-3.062-6.359l-30.163-30.179c-1.711-1.719-3.953-2.797-6.367-3.062l-67.865-7.531
	c-3.227-0.359-6.43,0.766-8.718,3.047l-23.75,21.515l122.902,122.91L267.084,365.587z"/>
<g>
</g>
<g>
</g>
<g>
</g>
<g>
</g>
<g>
</g>
<g>
</g>
<g>
</g>
<g>
</g>
<g>
</g>
<g>
</g>
<g>
</g>
<g>
</g>
<g>
</g>
<g>
</g>
<g>
</g>
</svg>
