<?xml version="1.0" encoding="UTF-8" standalone="no"?>
<svg
   xmlns:dc="http://purl.org/dc/elements/1.1/"
   xmlns:cc="http://creativecommons.org/ns#"
   xmlns:rdf="http://www.w3.org/1999/02/22-rdf-syntax-ns#"
   xmlns:svg="http://www.w3.org/2000/svg"
   xmlns="http://www.w3.org/2000/svg"
   xmlns:sodipodi="http://sodipodi.sourceforge.net/DTD/sodipodi-0.dtd"
   xmlns:inkscape="http://www.inkscape.org/namespaces/inkscape"
   version="1.1"
   id="Capa_1"
   x="0px"
   y="0px"
   viewBox="0 0 58 58"
   style="enable-background:new 0 0 58 58;"
   xml:space="preserve"
   sodipodi:docname="edit-copy.svg"
   inkscape:version="1.0.1 (3bc2e813f5, 2020-09-07)"><metadata
   id="metadata71"><rdf:RDF><cc:Work
       rdf:about=""><dc:format>image/svg+xml</dc:format><dc:type
         rdf:resource="http://purl.org/dc/dcmitype/StillImage" /><dc:title></dc:title></cc:Work></rdf:RDF></metadata><defs
   id="defs69">
	
	

		
		
		
		
		
		
		
		
		
		
		
		
	</defs><sodipodi:namedview
   pagecolor="#ffffff"
   bordercolor="#666666"
   borderopacity="1"
   objecttolerance="10"
   gridtolerance="10"
   guidetolerance="10"
   inkscape:pageopacity="0"
   inkscape:pageshadow="2"
   inkscape:window-width="1848"
   inkscape:window-height="1016"
   id="namedview67"
   showgrid="false"
   inkscape:zoom="7.4310345"
   inkscape:cx="18.432788"
   inkscape:cy="25.472802"
   inkscape:window-x="72"
   inkscape:window-y="27"
   inkscape:window-maximized="1"
   inkscape:current-layer="Capa_1" />
<g
   id="g115"
   transform="matrix(0.85892673,0,0,0.85892673,0.28214655,0)"><polygon
     style="fill:#545e73"
     points="2,58 49,58 49,2 34,2 30,2 30,5 21,5 21,2 17,2 2,2 "
     id="polygon2" /><rect
     x="21"
     style="fill:#404656"
     width="9"
     height="5"
     id="rect4"
     y="0" /><polygon
     style="fill:#8697cb"
     points="37,2 30,2 30,5 21,5 21,2 14,2 14,8 37,8 "
     id="polygon8" /></g><g
   id="g972"
   transform="matrix(0.90104204,0,0,0.90104204,5.5687605,5.6041745)"><rect
     id="rect137"
     width="36"
     height="43.902"
     x="20.274"
     y="12.729869"
     style="fill:#efebde;fill-opacity:1;stroke-width:1.244;stroke-miterlimit:4;stroke-dasharray:none" /><g
     id="g82"
     transform="matrix(0.87804878,0,0,0.87804878,15.883756,8.3396248)"><path
       style="fill:#d5d0bb"
       d="M 24,16 H 11 c -0.553,0 -1,-0.447 -1,-1 0,-0.553 0.447,-1 1,-1 h 13 c 0.553,0 1,0.447 1,1 0,0.553 -0.447,1 -1,1 z"
       id="path10" /><path
       style="fill:#d5d0bb"
       d="M 24,47 H 11 c -0.553,0 -1,-0.447 -1,-1 0,-0.553 0.447,-1 1,-1 h 13 c 0.553,0 1,0.447 1,1 0,0.553 -0.447,1 -1,1 z"
       id="path12" /><path
       style="fill:#d5d0bb"
       d="M 40,22 H 11 c -0.553,0 -1,-0.447 -1,-1 0,-0.553 0.447,-1 1,-1 h 29 c 0.553,0 1,0.447 1,1 0,0.553 -0.447,1 -1,1 z"
       id="path14" /><path
       style="fill:#d5d0bb"
       d="M 40,34 H 11 c -0.553,0 -1,-0.447 -1,-1 0,-0.553 0.447,-1 1,-1 h 29 c 0.553,0 1,0.447 1,1 0,0.553 -0.447,1 -1,1 z"
       id="path16" /><path
       style="fill:#d5d0bb"
       d="M 40,41 H 11 c -0.553,0 -1,-0.447 -1,-1 0,-0.553 0.447,-1 1,-1 h 29 c 0.553,0 1,0.447 1,1 0,0.553 -0.447,1 -1,1 z"
       id="path18" /><path
       style="fill:#d5d0bb"
       d="M 25,28 H 11 c -0.553,0 -1,-0.447 -1,-1 0,-0.553 0.447,-1 1,-1 h 14 c 0.553,0 1,0.447 1,1 0,0.553 -0.447,1 -1,1 z"
       id="path20" /><path
       style="fill:#d5d0bb"
       d="m 40,28 h -7 c -0.553,0 -1,-0.447 -1,-1 0,-0.553 0.447,-1 1,-1 h 7 c 0.553,0 1,0.447 1,1 0,0.553 -0.447,1 -1,1 z"
       id="path22" /><path
       style="fill:#d5d0bb"
       d="M 29,28 C 28.729,28 28.479,27.899 28.29,27.71 28.109,27.52 28,27.26 28,27 c 0,-0.271 0.1,-0.521 0.29,-0.71 0.38,-0.38 1.04,-0.37 1.42,0 0.189,0.189 0.29,0.439 0.29,0.71 0,0.27 -0.11,0.52 -0.29,0.71 C 29.52,27.89 29.27,28 29,28 Z"
       id="path24" /></g></g><g
   id="g32">
		
		
	</g>
<g
   id="g36">
</g>
<g
   id="g38">
</g>
<g
   id="g40">
</g>
<g
   id="g42">
</g>
<g
   id="g44">
</g>
<g
   id="g46">
</g>
<g
   id="g48">
</g>
<g
   id="g50">
</g>
<g
   id="g52">
</g>
<g
   id="g54">
</g>
<g
   id="g56">
</g>
<g
   id="g58">
</g>
<g
   id="g60">
</g>
<g
   id="g62">
</g>
<g
   id="g64">
</g>
</svg>
