<?xml version="1.0" encoding="UTF-8" standalone="no"?>
<!-- Generator: Adobe Illustrator 18.0.0, SVG Export Plug-In . SVG Version: 6.00 Build 0)  -->

<svg
   xmlns:dc="http://purl.org/dc/elements/1.1/"
   xmlns:cc="http://creativecommons.org/ns#"
   xmlns:rdf="http://www.w3.org/1999/02/22-rdf-syntax-ns#"
   xmlns:svg="http://www.w3.org/2000/svg"
   xmlns="http://www.w3.org/2000/svg"
   xmlns:sodipodi="http://sodipodi.sourceforge.net/DTD/sodipodi-0.dtd"
   xmlns:inkscape="http://www.inkscape.org/namespaces/inkscape"
   version="1.1"
   id="Capa_1"
   x="0px"
   y="0px"
   viewBox="0 0 58.981 58.981"
   style="enable-background:new 0 0 58.981 58.981;"
   xml:space="preserve"
   sodipodi:docname="file-19.svg"
   inkscape:version="0.92.1 r"><metadata
     id="metadata65"><rdf:RDF><cc:Work
         rdf:about=""><dc:format>image/svg+xml</dc:format><dc:type
           rdf:resource="http://purl.org/dc/dcmitype/StillImage" /></cc:Work></rdf:RDF></metadata><defs
     id="defs63"><filter
       style="color-interpolation-filters:sRGB;"
       inkscape:label="Greyscale"
       id="filter4508"><feColorMatrix
         values="0.21 0.72 0.072 0 0 0.21 0.72 0.072 0 0 0.21 0.72 0.072 0 0 0 0 0 1 0 "
         id="feColorMatrix4506" /></filter><filter
       style="color-interpolation-filters:sRGB;"
       inkscape:label="Greyscale"
       id="filter4512"><feColorMatrix
         values="0.21 0.72 0.072 0 0 0.21 0.72 0.072 0 0 0.21 0.72 0.072 0 0 0 0 0 1 0 "
         id="feColorMatrix4510" /></filter><filter
       style="color-interpolation-filters:sRGB;"
       inkscape:label="Greyscale"
       id="filter4516"><feColorMatrix
         values="0.21 0.72 0.072 0 0 0.21 0.72 0.072 0 0 0.21 0.72 0.072 0 0 0 0 0 1 0 "
         id="feColorMatrix4514" /></filter><filter
       style="color-interpolation-filters:sRGB;"
       inkscape:label="Greyscale"
       id="filter4520"><feColorMatrix
         values="0.21 0.72 0.072 0 0 0.21 0.72 0.072 0 0 0.21 0.72 0.072 0 0 0 0 0 1 0 "
         id="feColorMatrix4518" /></filter><filter
       style="color-interpolation-filters:sRGB;"
       inkscape:label="Greyscale"
       id="filter4524"><feColorMatrix
         values="0.21 0.72 0.072 0 0 0.21 0.72 0.072 0 0 0.21 0.72 0.072 0 0 0 0 0 1 0 "
         id="feColorMatrix4522" /></filter><filter
       style="color-interpolation-filters:sRGB;"
       inkscape:label="Greyscale"
       id="filter4528"><feColorMatrix
         values="0.21 0.72 0.072 0 0 0.21 0.72 0.072 0 0 0.21 0.72 0.072 0 0 0 0 0 1 0 "
         id="feColorMatrix4526" /></filter><filter
       style="color-interpolation-filters:sRGB;"
       inkscape:label="Greyscale"
       id="filter4532"><feColorMatrix
         values="0.21 0.72 0.072 0 0 0.21 0.72 0.072 0 0 0.21 0.72 0.072 0 0 0 0 0 1 0 "
         id="feColorMatrix4530" /></filter><filter
       style="color-interpolation-filters:sRGB;"
       inkscape:label="Greyscale"
       id="filter4536"><feColorMatrix
         values="0.21 0.72 0.072 0 0 0.21 0.72 0.072 0 0 0.21 0.72 0.072 0 0 0 0 0 1 0 "
         id="feColorMatrix4534" /></filter><filter
       style="color-interpolation-filters:sRGB;"
       inkscape:label="Greyscale"
       id="filter4540"><feColorMatrix
         values="0.21 0.72 0.072 0 0 0.21 0.72 0.072 0 0 0.21 0.72 0.072 0 0 0 0 0 1 0 "
         id="feColorMatrix4538" /></filter><filter
       style="color-interpolation-filters:sRGB;"
       inkscape:label="Greyscale"
       id="filter4544"><feColorMatrix
         values="0.21 0.72 0.072 0 0 0.21 0.72 0.072 0 0 0.21 0.72 0.072 0 0 0 0 0 1 0 "
         id="feColorMatrix4542" /></filter><filter
       style="color-interpolation-filters:sRGB;"
       inkscape:label="Greyscale"
       id="filter4548"><feColorMatrix
         values="0.21 0.72 0.072 0 0 0.21 0.72 0.072 0 0 0.21 0.72 0.072 0 0 0 0 0 1 0 "
         id="feColorMatrix4546" /></filter><filter
       style="color-interpolation-filters:sRGB;"
       inkscape:label="Greyscale"
       id="filter4552"><feColorMatrix
         values="0.21 0.72 0.072 0 0 0.21 0.72 0.072 0 0 0.21 0.72 0.072 0 0 0 0 0 1 0 "
         id="feColorMatrix4550" /></filter><filter
       style="color-interpolation-filters:sRGB;"
       inkscape:label="Greyscale"
       id="filter4556"><feColorMatrix
         values="0.21 0.72 0.072 0 0 0.21 0.72 0.072 0 0 0.21 0.72 0.072 0 0 0 0 0 1 0 "
         id="feColorMatrix4554" /></filter><filter
       style="color-interpolation-filters:sRGB;"
       inkscape:label="Greyscale"
       id="filter4560"><feColorMatrix
         values="0.21 0.72 0.072 0 0 0.21 0.72 0.072 0 0 0.21 0.72 0.072 0 0 0 0 0 1 0 "
         id="feColorMatrix4558" /></filter><filter
       style="color-interpolation-filters:sRGB;"
       inkscape:label="Greyscale"
       id="filter4564"><feColorMatrix
         values="0.21 0.72 0.072 0 0 0.21 0.72 0.072 0 0 0.21 0.72 0.072 0 0 0 0 0 1 0 "
         id="feColorMatrix4562" /></filter><filter
       style="color-interpolation-filters:sRGB;"
       inkscape:label="Greyscale"
       id="filter4568"><feColorMatrix
         values="0.21 0.72 0.072 0 0 0.21 0.72 0.072 0 0 0.21 0.72 0.072 0 0 0 0 0 1 0 "
         id="feColorMatrix4566" /></filter><filter
       style="color-interpolation-filters:sRGB;"
       inkscape:label="Greyscale"
       id="filter4572"><feColorMatrix
         values="0.21 0.72 0.072 0 0 0.21 0.72 0.072 0 0 0.21 0.72 0.072 0 0 0 0 0 1 0 "
         id="feColorMatrix4570" /></filter></defs><sodipodi:namedview
     pagecolor="#ffffff"
     bordercolor="#666666"
     borderopacity="1"
     objecttolerance="10"
     gridtolerance="10"
     guidetolerance="10"
     inkscape:pageopacity="0"
     inkscape:pageshadow="2"
     inkscape:window-width="1366"
     inkscape:window-height="708"
     id="namedview61"
     showgrid="false"
     inkscape:zoom="4.0012886"
     inkscape:cx="-24.49211"
     inkscape:cy="28.99066"
     inkscape:window-x="0"
     inkscape:window-y="28"
     inkscape:window-maximized="1"
     inkscape:current-layer="Capa_1" /><g
     id="g18"
     style="filter:url(#filter4508)"><polygon
       id="polygon2"
       points="0.482,0 0.482,58 45.482,58 45.482,14 31.482,0 "
       style="fill:#efebde" /><g
       id="g14"><path
         inkscape:connector-curvature="0"
         id="path4"
         d="m 10.482,23 h 25 c 0.552,0 1,-0.447 1,-1 0,-0.553 -0.448,-1 -1,-1 h -25 c -0.552,0 -1,0.447 -1,1 0,0.553 0.447,1 1,1 z"
         style="fill:#d5d0bb" /><path
         inkscape:connector-curvature="0"
         id="path6"
         d="m 10.482,15 h 10 c 0.552,0 1,-0.447 1,-1 0,-0.553 -0.448,-1 -1,-1 h -10 c -0.552,0 -1,0.447 -1,1 0,0.553 0.447,1 1,1 z"
         style="fill:#d5d0bb" /><path
         inkscape:connector-curvature="0"
         id="path8"
         d="m 35.482,29 h -25 c -0.552,0 -1,0.447 -1,1 0,0.553 0.448,1 1,1 h 25 c 0.552,0 1,-0.447 1,-1 0,-0.553 -0.448,-1 -1,-1 z"
         style="fill:#d5d0bb" /><path
         inkscape:connector-curvature="0"
         id="path10"
         d="m 35.482,37 h -25 c -0.552,0 -1,0.447 -1,1 0,0.553 0.448,1 1,1 h 25 c 0.552,0 1,-0.447 1,-1 0,-0.553 -0.448,-1 -1,-1 z"
         style="fill:#d5d0bb" /><path
         inkscape:connector-curvature="0"
         id="path12"
         d="m 35.482,45 h -25 c -0.552,0 -1,0.447 -1,1 0,0.553 0.448,1 1,1 h 25 c 0.552,0 1,-0.447 1,-1 0,-0.553 -0.448,-1 -1,-1 z"
         style="fill:#d5d0bb" /></g><polygon
       id="polygon16"
       points="45.482,14 31.482,0 31.482,14 "
       style="fill:#d5d0bb" /></g><g
     id="g30"
     style="filter:url(#filter4512)" /><g
     id="g32"
     style="filter:url(#filter4516)" /><g
     id="g34"
     style="filter:url(#filter4520)" /><g
     id="g36"
     style="filter:url(#filter4524)" /><g
     id="g38"
     style="filter:url(#filter4528)" /><g
     id="g40"
     style="filter:url(#filter4532)" /><g
     id="g42"
     style="filter:url(#filter4536)" /><g
     id="g44"
     style="filter:url(#filter4540)" /><g
     id="g46"
     style="filter:url(#filter4544)" /><g
     id="g48"
     style="filter:url(#filter4548)" /><g
     id="g50"
     style="filter:url(#filter4552)" /><g
     id="g52"
     style="filter:url(#filter4556)" /><g
     id="g54"
     style="filter:url(#filter4560)" /><g
     id="g56"
     style="filter:url(#filter4564)" /><g
     id="g58"
     style="filter:url(#filter4568)" /><path
     inkscape:connector-curvature="0"
     style="fill:#008080;stroke-width:0.54613936;filter:url(#filter4572)"
     d="M 58.303524,29.173759 C 58.185557,29.070533 58.029908,29.023571 57.87262,29.04214 l -16.930319,2.190564 c -0.272524,0.03549 -0.476234,0.267062 -0.476234,0.541771 v 3.28612 2.300339 14.218738 c -0.948644,-1.086817 -2.428136,-1.788607 -4.095499,-1.788607 -2.865593,0 -5.188323,2.064953 -5.188323,4.611601 0,2.546647 2.32273,4.6116 5.188323,4.6116 2.865593,0 5.188324,-2.064953 5.188324,-4.6116 0,-0.181319 -0.01475,-0.35936 -0.03769,-0.535763 0.02185,-0.05899 0.03769,-0.120697 0.03769,-0.187326 V 37.840444 l 15.83804,-2.049661 v 10.326948 c -0.94919,-1.086271 -2.428681,-1.78806 -4.096045,-1.78806 -2.865593,0 -5.188323,2.064954 -5.188323,4.611602 0,2.546647 2.32273,4.6116 5.188323,4.6116 2.865593,0 5.188324,-2.064953 5.188324,-4.6116 0,-0.05024 -0.0066,-0.09885 -0.0082,-0.14855 0.0011,-0.01475 0.0082,-0.02731 0.0082,-0.04206 V 35.169276 32.869484 29.58391 c 0,-0.157288 -0.06772,-0.30693 -0.185687,-0.410151 z"
     id="path2" /></svg>