<?xml version="1.0" encoding="iso-8859-1"?>
<!-- Generator: Adobe Illustrator 19.0.0, SVG Export Plug-In . SVG Version: 6.00 Build 0)  -->
<svg version="1.1" id="Capa_1" xmlns="http://www.w3.org/2000/svg" xmlns:xlink="http://www.w3.org/1999/xlink" x="0px" y="0px"
	 viewBox="0 0 58 58" style="enable-background:new 0 0 58 58;" xml:space="preserve">
<circle style="fill:#7FABDA;" cx="29" cy="29" r="29"/>
<path style="fill:#1A9172;" d="M43.887,4.486c0.121-0.042,0.219-0.112,0.32-0.179C39.785,1.578,34.578,0,29,0
	c-6.134,0-11.819,1.909-16.504,5.159c0.025,0.116,0.057,0.231,0.108,0.341c1.978,4.262,4.523,11.496,8.869,13.163
	c2.113,0.81,4.066,0.505,6.069,1.486c0.214,0.104,0.527,0.348,0.661,0.545c1.018,1.489,0.432,3.671,1.442,4.205
	c0.799,0.422,1.253,1.285,0.912,2.122c-1.393,3.418-0.188,7.327,3.052,10.01c2.28,1.888,0.382,6.264-1.536,9.7
	c-0.686,1.229,0.537,2.648,1.862,2.177c2.096-0.746,3.831-1.827,5.84-3.555c2.913-2.505,3.543-5.235,6.43-7.362
	c0.032-0.023,0.056-0.052,0.069-0.09c0.738-2.164,3.031-6.887,0.717-8.09c-2.16-1.122-2.968-4.371-5.076-6.585
	c-0.242-0.254-0.586-0.38-0.934-0.425c-2.584-0.333-3.746-2.298-5.485-0.991c-1.302,0.979-2.766,0.383-3.22-1.182
	c-0.148-0.51-0.409-0.965-1.346-1.254c-0.712-0.219-1.058-1.026-0.802-1.725c0.004-0.01,0.007-0.021,0.011-0.031
	c0.343-0.934-1.589-0.792-2.571-0.628c-0.275,0.046,0.659-1.065,0.352-0.885c-1.208,0.713-2.707-0.518-2.643-1.919
	c0.066-1.421,0.331-1.353,2.767-1.633c2.622-1.221,3.891-0.331,3.807,2.668c1.621,0.24,2.187-0.476,1.699-2.149
	c-0.143-0.489-0.028-1.034,0.282-1.437C36.82,7.749,39.315,6.055,43.887,4.486z"/>
<g>
</g>
<g>
</g>
<g>
</g>
<g>
</g>
<g>
</g>
<g>
</g>
<g>
</g>
<g>
</g>
<g>
</g>
<g>
</g>
<g>
</g>
<g>
</g>
<g>
</g>
<g>
</g>
<g>
</g>
</svg>
