<?xml version="1.0" encoding="UTF-8" standalone="no"?>
<!-- Generator: Adobe Illustrator 19.0.0, SVG Export Plug-In . SVG Version: 6.00 Build 0)  -->

<svg
   xmlns:dc="http://purl.org/dc/elements/1.1/"
   xmlns:cc="http://creativecommons.org/ns#"
   xmlns:rdf="http://www.w3.org/1999/02/22-rdf-syntax-ns#"
   xmlns:svg="http://www.w3.org/2000/svg"
   xmlns="http://www.w3.org/2000/svg"
   xmlns:sodipodi="http://sodipodi.sourceforge.net/DTD/sodipodi-0.dtd"
   xmlns:inkscape="http://www.inkscape.org/namespaces/inkscape"
   version="1.1"
   id="Capa_1"
   x="0px"
   y="0px"
   viewBox="0 0 58 58"
   style="enable-background:new 0 0 58 58;"
   xml:space="preserve"
   sodipodi:docname="battery-10.svg"
   inkscape:version="0.92.1 r"><metadata
     id="metadata43"><rdf:RDF><cc:Work
         rdf:about=""><dc:format>image/svg+xml</dc:format><dc:type
           rdf:resource="http://purl.org/dc/dcmitype/StillImage" /><dc:title></dc:title></cc:Work></rdf:RDF></metadata><defs
     id="defs41" /><sodipodi:namedview
     pagecolor="#ffffff"
     bordercolor="#666666"
     borderopacity="1"
     objecttolerance="10"
     gridtolerance="10"
     guidetolerance="10"
     inkscape:pageopacity="0"
     inkscape:pageshadow="2"
     inkscape:window-width="830"
     inkscape:window-height="480"
     id="namedview39"
     showgrid="false"
     inkscape:zoom="4.0689655"
     inkscape:cx="29"
     inkscape:cy="29"
     inkscape:window-x="0"
     inkscape:window-y="28"
     inkscape:window-maximized="0"
     inkscape:current-layer="Capa_1" /><path
     style="fill:#e7eced"
     d="M 41.536,56 H 16.464 C 15.103,56 14,54.897 14,53.536 V 4.464 C 14,3.103 15.103,2 16.464,2 H 41.536 C 42.897,2 44,3.103 44,4.464 V 53.536 C 44,54.897 42.897,56 41.536,56 Z"
     id="path4"
     inkscape:connector-curvature="0" /><path
     style="fill:#43d45c;stroke-width:1.10478795;fill-opacity:1"
     d="M 14,8.3983051 V 52.992549 C 14,54.653726 15.103,56 16.464,56 H 41.536 C 42.897,56 44,54.653726 44,52.992549 V 8.3983051 Z"
     id="path6"
     inkscape:connector-curvature="0" /><g
     id="g8"
     transform="translate(0,-2)" /><g
     id="g10"
     transform="translate(0,-2)" /><g
     id="g12"
     transform="translate(0,-2)" /><g
     id="g14"
     transform="translate(0,-2)" /><g
     id="g16"
     transform="translate(0,-2)" /><g
     id="g18"
     transform="translate(0,-2)" /><g
     id="g20"
     transform="translate(0,-2)" /><g
     id="g22"
     transform="translate(0,-2)" /><g
     id="g24"
     transform="translate(0,-2)" /><g
     id="g26"
     transform="translate(0,-2)" /><g
     id="g28"
     transform="translate(0,-2)" /><g
     id="g30"
     transform="translate(0,-2)" /><g
     id="g32"
     transform="translate(0,-2)" /><g
     id="g34"
     transform="translate(0,-2)" /><g
     id="g36"
     transform="translate(0,-2)" /></svg>