<?xml version="1.0" encoding="UTF-8" standalone="no"?>
<!-- Generator: Adobe Illustrator 19.0.0, SVG Export Plug-In . SVG Version: 6.00 Build 0)  -->

<svg
   xmlns:dc="http://purl.org/dc/elements/1.1/"
   xmlns:cc="http://creativecommons.org/ns#"
   xmlns:rdf="http://www.w3.org/1999/02/22-rdf-syntax-ns#"
   xmlns:svg="http://www.w3.org/2000/svg"
   xmlns="http://www.w3.org/2000/svg"
   xmlns:sodipodi="http://sodipodi.sourceforge.net/DTD/sodipodi-0.dtd"
   xmlns:inkscape="http://www.inkscape.org/namespaces/inkscape"
   version="1.1"
   id="Capa_1"
   x="0px"
   y="0px"
   viewBox="0 0 64 64"
   xml:space="preserve"
   sodipodi:docname="match-90.svg"
   inkscape:version="0.92.4 5da689c313, 2019-01-14"
   width="64"
   height="64"
   inkscape:export-filename="/home/phw/devel/musicbrainz/picard/resources/img-src/match-90.png"
   inkscape:export-xdpi="24"
   inkscape:export-ydpi="24"><metadata
     id="metadata43"><rdf:RDF><cc:Work
         rdf:about=""><dc:format>image/svg+xml</dc:format><dc:type
           rdf:resource="http://purl.org/dc/dcmitype/StillImage" /><dc:title></dc:title></cc:Work></rdf:RDF></metadata><defs
     id="defs41" /><sodipodi:namedview
     pagecolor="#ffffff"
     bordercolor="#666666"
     borderopacity="1"
     objecttolerance="10"
     gridtolerance="10"
     guidetolerance="10"
     inkscape:pageopacity="0"
     inkscape:pageshadow="2"
     inkscape:window-width="1920"
     inkscape:window-height="1016"
     id="namedview39"
     showgrid="false"
     inkscape:zoom="4.0689655"
     inkscape:cx="29.983051"
     inkscape:cy="27.771186"
     inkscape:window-x="1920"
     inkscape:window-y="27"
     inkscape:window-maximized="0"
     inkscape:current-layer="Capa_1" /><path
     style="fill:#e7eced;stroke-width:1.05174756"
     d="M 45.371733,60 H 18.628267 C 17.176533,60 16,58.856148 16,57.444741 V 6.5552593 C 16,5.1438519 17.176533,4 18.628267,4 H 45.371733 C 46.823467,4 48,5.1438519 48,6.5552593 V 57.444741 C 48,58.856148 46.823467,60 45.371733,60 Z"
     id="path4"
     inkscape:connector-curvature="0" /><path
     style="fill:#43d45c;fill-opacity:1;stroke-width:1.19256961"
     d="M 16,8 V 56.714666 C 16,58.529333 17.176533,60 18.628267,60 H 45.371733 C 46.823467,60 48,58.529333 48,56.714666 V 8 Z"
     id="path6"
     inkscape:connector-curvature="0" /><g
     id="g8"
     transform="translate(0,4)" /><g
     id="g10"
     transform="translate(0,4)" /><g
     id="g12"
     transform="translate(0,4)" /><g
     id="g14"
     transform="translate(0,4)" /><g
     id="g16"
     transform="translate(0,4)" /><g
     id="g18"
     transform="translate(0,4)" /><g
     id="g20"
     transform="translate(0,4)" /><g
     id="g22"
     transform="translate(0,4)" /><g
     id="g24"
     transform="translate(0,4)" /><g
     id="g26"
     transform="translate(0,4)" /><g
     id="g28"
     transform="translate(0,4)" /><g
     id="g30"
     transform="translate(0,4)" /><g
     id="g32"
     transform="translate(0,4)" /><g
     id="g34"
     transform="translate(0,4)" /><g
     id="g36"
     transform="translate(0,4)" /></svg>