<?xml version="1.0" encoding="UTF-8" standalone="no"?>
<!-- Generator: Adobe Illustrator 17.0.0, SVG Export Plug-In . SVG Version: 6.00 Build 0)  -->

<svg
   xmlns:dc="http://purl.org/dc/elements/1.1/"
   xmlns:cc="http://creativecommons.org/ns#"
   xmlns:rdf="http://www.w3.org/1999/02/22-rdf-syntax-ns#"
   xmlns:svg="http://www.w3.org/2000/svg"
   xmlns="http://www.w3.org/2000/svg"
   xmlns:sodipodi="http://sodipodi.sourceforge.net/DTD/sodipodi-0.dtd"
   xmlns:inkscape="http://www.inkscape.org/namespaces/inkscape"
   version="1.1"
   id="Layer_1"
   x="0px"
   y="0px"
   width="150"
   height="150"
   viewBox="0 0 150 150"
   enable-background="new 0 0 375 150"
   xml:space="preserve"
   inkscape:version="0.91 r13725"
   sodipodi:docname="picard.svg"><metadata
     id="metadata8145"><rdf:RDF><cc:Work
         rdf:about=""><dc:format>image/svg+xml</dc:format><dc:type
           rdf:resource="http://purl.org/dc/dcmitype/StillImage" /><dc:title></dc:title></cc:Work></rdf:RDF></metadata><defs
     id="defs8143" /><sodipodi:namedview
     pagecolor="#ffffff"
     bordercolor="#666666"
     borderopacity="1"
     objecttolerance="10"
     gridtolerance="10"
     guidetolerance="10"
     inkscape:pageopacity="0"
     inkscape:pageshadow="2"
     inkscape:window-width="661"
     inkscape:window-height="480"
     id="namedview8141"
     showgrid="false"
     fit-margin-top="2"
     fit-margin-left="2"
     fit-margin-right="2"
     fit-margin-bottom="2"
     inkscape:zoom="0.96266667"
     inkscape:cx="48.546277"
     inkscape:cy="73.823"
     inkscape:window-x="0"
     inkscape:window-y="0"
     inkscape:window-maximized="0"
     inkscape:current-layer="g8035" /><g
     id="g8033"
     transform="translate(-2.354,1.177)" /><g
     id="g8035"
     transform="translate(-2.354,1.177)"><g
       id="g8037"
       transform="translate(9.4995,-1)"><g
         id="g8039"><polygon
           points="70.354,146.823 131.355,111.823 131.355,37.823 70.354,2.823 "
           id="polygon8041"
           style="fill:#eb743b" /><polygon
           points="4.354,37.823 4.354,111.823 65.354,146.823 65.354,2.823 "
           id="polygon8043"
           style="fill:#771b85" /><g
           id="g8045"><g
             id="g8047"><path
               d="m 41.814,45.301 -17.973,8.664 -9.75,52.414 17.17,-4.354 14.453,10.237 9.754,-52.414 -13.654,-14.547 z m -3.56,18.508 c -3.023,-0.563 -5.018,-3.469 -4.455,-6.492 0.563,-3.024 3.469,-5.019 6.492,-4.456 3.025,0.564 5.02,3.47 4.457,6.493 -0.562,3.022 -3.471,5.017 -6.494,4.455 z"
               id="path8049"
               inkscape:connector-curvature="0"
               style="fill:#591463" /><path
               d="m 65.393,42.229 c -0.201,-0.046 -0.406,-0.094 -0.615,-0.143 -5.787,-1.35 -16.445,-3.828 -24.182,8.8 -0.439,-0.078 -0.887,-0.12 -1.33,-0.12 -3.641,0 -6.767,2.602 -7.432,6.185 -0.371,1.988 0.055,4 1.199,5.667 1.143,1.666 2.867,2.788 4.855,3.157 0.459,0.086 0.926,0.129 1.391,0.129 3.641,0 6.77,-2.601 7.436,-6.185 0.508,-2.73 -0.533,-5.393 -2.492,-7.097 6.209,-9.772 14.258,-7.898 19.646,-6.642 0.547,0.128 1.053,0.246 1.524,0.345 l 0,-4.096 z m -22.61,16.758 c -0.355,1.904 -2.24,3.208 -4.162,2.855 -1.936,-0.36 -3.215,-2.227 -2.856,-4.161 0.315,-1.689 1.785,-2.916 3.5,-2.916 0.221,0 0.441,0.021 0.66,0.061 1.934,0.361 3.216,2.228 2.858,4.161 z"
               id="path8051"
               inkscape:connector-curvature="0"
               style="fill:#591463" /></g><g
             id="g8053"><path
               d="m 41.814,42.896 -17.972,8.664 -9.75,52.414 17.17,-4.354 14.453,10.237 9.754,-52.414 -13.655,-14.547 z m -3.56,18.507 c -3.023,-0.563 -5.018,-3.469 -4.455,-6.492 0.563,-3.024 3.469,-5.019 6.492,-4.456 3.025,0.563 5.02,3.47 4.457,6.493 -0.562,3.023 -3.471,5.018 -6.494,4.455 z"
               id="path8055"
               inkscape:connector-curvature="0"
               style="fill:#b66bc2" /><path
               d="m 65.393,39.823 c -0.201,-0.046 -0.406,-0.094 -0.615,-0.143 -5.787,-1.35 -16.445,-3.828 -24.182,8.8 -0.439,-0.078 -0.887,-0.12 -1.33,-0.12 -3.641,0 -6.767,2.602 -7.432,6.185 -0.371,1.988 0.055,4 1.199,5.667 1.143,1.666 2.867,2.788 4.855,3.157 0.459,0.086 0.926,0.129 1.391,0.129 3.641,0 6.77,-2.601 7.436,-6.185 0.508,-2.73 -0.533,-5.393 -2.492,-7.097 6.209,-9.771 14.258,-7.899 19.646,-6.642 0.547,0.128 1.053,0.246 1.524,0.345 l 0,-4.096 z m -22.61,16.759 c -0.355,1.904 -2.24,3.208 -4.162,2.855 -1.936,-0.36 -3.215,-2.227 -2.856,-4.161 0.315,-1.689 1.785,-2.916 3.5,-2.916 0.221,0 0.441,0.021 0.66,0.061 1.934,0.36 3.216,2.227 2.858,4.161 z"
               id="path8057"
               inkscape:connector-curvature="0"
               style="fill:#fffedb" /></g></g><g
           id="g8059"><g
             id="g8061"
             style="opacity:0.07000002"><path
               d="m 87.656,94.557 c 0.386,-0.645 1.066,-1.03 1.819,-1.03 0.378,0 0.752,0.104 1.078,0.297 1,0.601 1.331,1.899 0.735,2.898 -0.385,0.646 -1.064,1.032 -1.817,1.032 -0.379,0 -0.755,-0.104 -1.084,-0.301 -0.483,-0.288 -0.826,-0.748 -0.964,-1.294 -0.138,-0.549 -0.055,-1.117 0.233,-1.602 z m 12.603,22.362 c -0.49,0.421 -1.018,0.509 -1.373,0.509 -0.621,0 -1.207,-0.269 -1.608,-0.734 -0.758,-0.885 -0.654,-2.222 0.231,-2.981 0.492,-0.423 1.018,-0.512 1.373,-0.512 0.617,0 1.201,0.268 1.605,0.74 0.368,0.43 0.547,0.976 0.504,1.538 -0.043,0.562 -0.302,1.072 -0.732,1.44 z"
               id="path8063"
               inkscape:connector-curvature="0" /><path
               d="m 79.355,48.434 c 0.07,0.018 0.142,0.034 0.212,0.046 -0.072,-0.012 -0.142,-0.028 -0.212,-0.046 z"
               id="path8065"
               inkscape:connector-curvature="0" /><path
               d="m 90.734,58.08 c 0.169,-0.267 0.395,-0.49 0.673,-0.661 0.335,-0.207 0.722,-0.316 1.121,-0.316 0.4,0 0.79,0.112 1.122,0.321 0.987,0.627 1.283,1.935 0.66,2.919 -0.392,0.618 -1.063,0.988 -1.795,0.988 -0.397,0 -0.785,-0.113 -1.124,-0.327 -0.984,-0.624 -1.278,-1.937 -0.657,-2.924 z m 6.379,-20.187 c -0.6,0.951 -1.938,1.271 -2.912,0.653 l -0.096,-0.063 c -0.914,-0.647 -1.161,-1.897 -0.558,-2.851 0.386,-0.613 1.053,-0.98 1.784,-0.98 0.397,0 0.787,0.113 1.124,0.326 0.479,0.304 0.813,0.775 0.937,1.33 0.123,0.546 0.026,1.107 -0.279,1.585 z"
               id="path8067"
               inkscape:connector-curvature="0" /><path
               d="m 113.88,49.491 c 0.388,-0.614 1.054,-0.98 1.783,-0.98 0.399,0 0.79,0.113 1.125,0.325 0.48,0.304 0.813,0.775 0.937,1.33 0.122,0.546 0.024,1.106 -0.279,1.584 -0.598,0.951 -1.938,1.272 -2.912,0.653 L 114.44,52.34 c -0.918,-0.646 -1.163,-1.896 -0.56,-2.849 z m 0,23.463 c 0.388,-0.614 1.054,-0.98 1.783,-0.98 0.399,0 0.79,0.112 1.125,0.326 0.48,0.304 0.813,0.774 0.937,1.329 0.122,0.546 0.024,1.107 -0.279,1.585 -0.598,0.95 -1.938,1.271 -2.912,0.652 l -0.094,-0.063 c -0.918,-0.646 -1.163,-1.896 -0.56,-2.849 z m 0,26.303 c 0.388,-0.613 1.054,-0.979 1.783,-0.979 0.399,0 0.79,0.112 1.125,0.325 0.48,0.304 0.813,0.775 0.937,1.33 0.122,0.547 0.024,1.106 -0.279,1.584 -0.598,0.951 -1.938,1.271 -2.912,0.653 l -0.094,-0.063 c -0.918,-0.647 -1.163,-1.896 -0.56,-2.85 z"
               id="path8069"
               inkscape:connector-curvature="0" /><path
               d="m 103.53,108.927 c -1.165,-1.36 -2.858,-2.139 -4.648,-2.139 -1.459,0 -2.875,0.525 -3.983,1.477 -1.612,1.383 -2.326,3.429 -2.087,5.397 -1.948,0.7 -4.258,1.365 -5.328,1.332 -0.821,-0.044 -1.302,-0.346 -2.224,-0.972 -1.172,-0.795 -2.418,-1.512 -4.149,-1.847 2.936,-2.761 6.009,-6.83 8.584,-12.834 2.061,-0.076 3.976,-1.193 5.038,-2.972 1.725,-2.896 0.773,-6.659 -2.124,-8.394 -0.949,-0.565 -2.032,-0.864 -3.134,-0.864 -2.146,0 -4.161,1.144 -5.261,2.986 -0.838,1.405 -1.079,3.05 -0.678,4.636 0.351,1.393 1.16,2.59 2.302,3.429 -4.053,9.218 -9.219,13.081 -12.565,14.685 -0.128,0.045 -0.248,0.101 -0.36,0.168 -1.187,0.531 -2.05,0.704 -2.559,0.808 l 0,4 c 0.275,-0.03 1.885,-0.118 4.247,-1.192 5.348,-1.357 6.839,-0.354 8.407,0.709 1.021,0.692 2.291,1.554 4.263,1.656 0.1,0.005 0.204,0.008 0.309,0.008 2.109,0 5.172,-1.022 7.021,-1.723 1.144,1.116 2.676,1.75 4.285,1.75 l 0,0 c 1.461,0 2.876,-0.524 3.983,-1.476 1.24,-1.062 1.993,-2.546 2.118,-4.176 0.125,-1.631 -0.392,-3.214 -1.457,-4.452 z M 87.656,92.151 c 0.386,-0.645 1.066,-1.03 1.819,-1.03 0.378,0 0.752,0.104 1.078,0.297 1,0.601 1.331,1.899 0.735,2.898 -0.385,0.646 -1.064,1.032 -1.817,1.032 -0.379,0 -0.755,-0.104 -1.084,-0.301 -0.483,-0.288 -0.826,-0.748 -0.964,-1.294 -0.138,-0.548 -0.055,-1.116 0.233,-1.602 z m 12.603,22.363 c -0.49,0.421 -1.018,0.509 -1.373,0.509 -0.621,0 -1.207,-0.269 -1.608,-0.734 -0.758,-0.885 -0.654,-2.222 0.231,-2.981 0.492,-0.423 1.018,-0.512 1.373,-0.512 0.617,0 1.201,0.269 1.605,0.74 0.368,0.43 0.547,0.976 0.504,1.538 -0.043,0.562 -0.302,1.072 -0.732,1.44 z"
               id="path8071"
               inkscape:connector-curvature="0" /><path
               d="m 79.355,46.028 c 0.07,0.018 0.142,0.034 0.212,0.046 -0.072,-0.011 -0.142,-0.027 -0.212,-0.046 z"
               id="path8073"
               inkscape:connector-curvature="0" /><path
               d="m 101.305,33.027 c -0.357,-1.599 -1.317,-2.964 -2.708,-3.844 -0.98,-0.617 -2.109,-0.944 -3.265,-0.944 -2.117,0 -4.053,1.066 -5.174,2.85 -1.354,2.138 -1.218,4.799 0.144,6.759 -3.646,4.124 -8.706,4.313 -9.942,4.293 -3.692,-1.604 -7.234,-2.164 -10.005,-2.317 l 0,3.996 c 2.441,0.143 5.553,0.685 8.748,2.136 0.005,0.002 0.01,0.002 0.015,0.005 3.445,1.563 6.334,3.928 8.607,7.041 -0.136,0.173 -0.265,0.352 -0.382,0.538 -1.796,2.854 -0.942,6.644 1.903,8.444 0.98,0.622 2.111,0.951 3.27,0.951 2.113,0 4.051,-1.065 5.183,-2.852 1.806,-2.851 0.951,-6.642 -1.908,-8.453 -1.384,-0.871 -3.092,-1.113 -4.667,-0.755 -1.538,-2.154 -3.323,-4.017 -5.345,-5.566 2.517,-0.778 5.401,-2.269 7.78,-5.096 0.572,0.172 1.166,0.267 1.77,0.267 2.116,0 4.051,-1.068 5.172,-2.849 0.874,-1.375 1.16,-3.009 0.804,-4.604 z M 90.734,55.675 c 0.169,-0.267 0.395,-0.49 0.673,-0.661 0.335,-0.207 0.722,-0.316 1.121,-0.316 0.4,0 0.79,0.112 1.122,0.321 0.987,0.627 1.283,1.936 0.66,2.919 -0.392,0.618 -1.063,0.988 -1.795,0.988 -0.397,0 -0.785,-0.113 -1.124,-0.327 -0.984,-0.624 -1.278,-1.937 -0.657,-2.924 z m 6.379,-20.188 c -0.6,0.951 -1.938,1.271 -2.912,0.653 l -0.096,-0.063 c -0.914,-0.647 -1.161,-1.897 -0.558,-2.851 0.386,-0.613 1.053,-0.98 1.784,-0.98 0.397,0 0.787,0.113 1.124,0.326 0.479,0.304 0.813,0.775 0.937,1.33 0.123,0.547 0.026,1.108 -0.279,1.585 z"
               id="path8075"
               inkscape:connector-curvature="0" /><path
               d="m 110,74.011 c 0.425,1.035 1.136,1.962 2.109,2.649 0.072,0.052 0.151,0.105 0.283,0.191 0.981,0.621 2.11,0.949 3.268,0.949 2.116,0 4.052,-1.068 5.173,-2.849 0.875,-1.375 1.16,-3.01 0.805,-4.604 -0.358,-1.598 -1.318,-2.964 -2.709,-3.844 -0.98,-0.617 -2.109,-0.944 -3.266,-0.944 -0.125,0 -0.25,0.008 -0.375,0.018 -0.71,-3.157 -0.919,-7.769 0.035,-11.265 0.112,0.011 0.225,0.024 0.337,0.024 2.116,0 4.052,-1.067 5.173,-2.849 0.875,-1.375 1.16,-3.009 0.805,-4.604 -0.358,-1.599 -1.318,-2.964 -2.709,-3.844 -0.98,-0.617 -2.109,-0.944 -3.266,-0.944 -2.114,0 -4.051,1.066 -5.173,2.85 -1.603,2.532 -1.12,5.804 1.025,7.765 0.021,0.02 0.048,0.037 0.071,0.059 -1.349,4.518 -1.146,10.324 -0.036,14.417 -0.143,0.132 -0.294,0.254 -0.426,0.399 -0.229,0.255 -0.445,0.526 -0.634,0.824 -0.318,0.502 -0.551,1.033 -0.71,1.578 -3.371,0.488 -5.198,1.671 -6.824,2.729 -2.035,1.324 -3.961,2.572 -9.636,2.665 -1.964,-0.23 -3.553,-0.177 -5.29,-0.116 -1.431,0.052 -2.91,0.106 -4.849,0.003 -1.335,-0.071 -2.104,-0.882 -3.458,-2.424 -1.803,-2.055 -4.219,-4.649 -9.369,-5.023 l 0,4 c 3.295,0.3 4.796,1.888 6.356,3.667 1.487,1.694 3.175,3.615 6.256,3.782 2.118,0.114 3.76,0.052 5.208,0.001 2.491,-0.092 4.453,-0.161 7.855,0.684 2.607,0.643 12.099,9.673 14.773,14.322 -0.108,0.142 -0.219,0.282 -0.314,0.434 -1.743,2.755 -1.026,6.385 1.619,8.251 0.072,0.052 0.151,0.104 0.283,0.191 0.981,0.621 2.11,0.948 3.268,0.948 2.116,0 4.052,-1.068 5.173,-2.849 0.875,-1.374 1.16,-3.009 0.805,-4.603 -0.358,-1.6 -1.318,-2.965 -2.709,-3.845 -0.98,-0.617 -2.109,-0.944 -3.266,-0.944 -0.528,0 -1.047,0.067 -1.543,0.195 -2.561,-4.187 -8.652,-10.455 -13.189,-13.792 1.813,-0.628 3.05,-1.435 4.212,-2.188 1.429,-0.927 2.616,-1.687 4.859,-2.064 z m 3.88,-26.925 c 0.388,-0.614 1.054,-0.98 1.783,-0.98 0.399,0 0.79,0.113 1.125,0.325 0.48,0.304 0.813,0.775 0.937,1.33 0.122,0.546 0.024,1.106 -0.279,1.584 -0.598,0.951 -1.938,1.272 -2.912,0.653 l -0.094,-0.063 c -0.918,-0.646 -1.163,-1.896 -0.56,-2.849 z m 0,23.463 c 0.388,-0.614 1.054,-0.98 1.783,-0.98 0.399,0 0.79,0.112 1.125,0.326 0.48,0.304 0.813,0.774 0.937,1.329 0.122,0.546 0.024,1.107 -0.279,1.585 -0.598,0.95 -1.938,1.271 -2.912,0.652 l -0.094,-0.063 c -0.918,-0.646 -1.163,-1.896 -0.56,-2.849 z m 0,26.303 c 0.388,-0.613 1.054,-0.979 1.783,-0.979 0.399,0 0.79,0.112 1.125,0.325 0.48,0.304 0.813,0.775 0.937,1.33 0.122,0.547 0.024,1.106 -0.279,1.584 -0.598,0.951 -1.938,1.271 -2.912,0.653 l -0.094,-0.063 c -0.918,-0.647 -1.163,-1.896 -0.56,-2.85 z"
               id="path8077"
               inkscape:connector-curvature="0" /></g><g
             id="g8079"><g
               id="g8081"><path
                 d="m 103.53,111.927 c -1.165,-1.36 -2.858,-2.139 -4.648,-2.139 -1.459,0 -2.875,0.525 -3.983,1.477 -1.612,1.383 -2.326,3.429 -2.087,5.397 -1.948,0.7 -4.258,1.365 -5.328,1.332 -0.821,-0.044 -1.302,-0.346 -2.224,-0.972 -1.172,-0.795 -2.418,-1.512 -4.149,-1.847 2.936,-2.761 6.009,-6.83 8.584,-12.834 2.061,-0.076 3.976,-1.193 5.038,-2.972 1.725,-2.896 0.773,-6.659 -2.124,-8.394 -0.949,-0.565 -2.032,-0.864 -3.134,-0.864 -2.146,0 -4.161,1.144 -5.261,2.986 -0.838,1.405 -1.079,3.05 -0.678,4.636 0.351,1.393 1.16,2.59 2.302,3.429 -4.053,9.218 -9.219,13.081 -12.565,14.685 -0.128,0.045 -0.248,0.101 -0.36,0.168 -1.187,0.531 -2.05,0.704 -2.559,0.808 l 0,4 c 0.275,-0.03 1.885,-0.118 4.247,-1.192 5.348,-1.357 6.839,-0.354 8.407,0.709 1.021,0.692 2.291,1.554 4.263,1.656 0.1,0.005 0.204,0.008 0.309,0.008 2.109,0 5.172,-1.022 7.021,-1.723 1.144,1.116 2.676,1.75 4.285,1.75 l 0,0 c 1.461,0 2.876,-0.524 3.983,-1.476 1.24,-1.062 1.993,-2.546 2.118,-4.176 0.125,-1.631 -0.392,-3.214 -1.457,-4.452 z M 87.656,95.151 c 0.386,-0.645 1.066,-1.03 1.819,-1.03 0.378,0 0.752,0.104 1.078,0.297 1,0.601 1.331,1.899 0.735,2.898 -0.385,0.646 -1.064,1.032 -1.817,1.032 -0.379,0 -0.755,-0.104 -1.084,-0.301 -0.483,-0.288 -0.826,-0.748 -0.964,-1.294 -0.138,-0.548 -0.055,-1.116 0.233,-1.602 z m 12.603,22.363 c -0.49,0.421 -1.018,0.509 -1.373,0.509 -0.621,0 -1.207,-0.269 -1.608,-0.734 -0.758,-0.885 -0.654,-2.222 0.231,-2.981 0.492,-0.423 1.018,-0.512 1.373,-0.512 0.617,0 1.201,0.269 1.605,0.74 0.368,0.43 0.547,0.976 0.504,1.538 -0.043,0.562 -0.302,1.072 -0.732,1.44 z"
                 id="path8083"
                 inkscape:connector-curvature="0"
                 style="fill:#d3562c" /><path
                 d="m 79.355,48.434 c 0.07,0.018 0.142,0.034 0.212,0.046 -0.072,-0.012 -0.142,-0.028 -0.212,-0.046 z"
                 id="path8085"
                 inkscape:connector-curvature="0" /><path
                 d="m 101.305,36.031 c -0.357,-1.599 -1.317,-2.964 -2.708,-3.844 -0.98,-0.617 -2.109,-0.944 -3.265,-0.944 -2.117,0 -4.053,1.066 -5.174,2.85 -1.354,2.138 -1.218,4.799 0.144,6.759 -3.646,4.124 -8.706,4.313 -9.942,4.293 -3.692,-1.604 -7.234,-2.164 -10.005,-2.317 l 0,3.996 c 2.441,0.144 5.553,0.686 8.748,2.136 0.005,0.002 0.01,0.002 0.015,0.005 3.445,1.563 6.334,3.928 8.607,7.041 -0.136,0.173 -0.265,0.352 -0.382,0.538 -1.796,2.854 -0.942,6.644 1.903,8.444 0.98,0.622 2.111,0.951 3.27,0.951 2.113,0 4.051,-1.065 5.183,-2.852 1.806,-2.851 0.951,-6.642 -1.908,-8.453 -1.384,-0.871 -3.092,-1.113 -4.667,-0.755 -1.538,-2.154 -3.323,-4.017 -5.345,-5.566 2.517,-0.778 5.401,-2.269 7.78,-5.096 0.572,0.172 1.166,0.267 1.77,0.267 2.116,0 4.051,-1.068 5.172,-2.849 0.874,-1.375 1.16,-3.009 0.804,-4.604 z M 90.734,58.679 c 0.169,-0.267 0.395,-0.49 0.673,-0.661 0.335,-0.207 0.722,-0.316 1.121,-0.316 0.4,0 0.79,0.112 1.122,0.321 0.987,0.627 1.283,1.936 0.66,2.919 -0.392,0.618 -1.063,0.988 -1.795,0.988 -0.397,0 -0.785,-0.113 -1.124,-0.327 -0.984,-0.624 -1.278,-1.937 -0.657,-2.924 z m 6.379,-20.188 c -0.6,0.951 -1.938,1.271 -2.912,0.653 l -0.096,-0.063 c -0.914,-0.647 -1.161,-1.897 -0.558,-2.851 0.386,-0.613 1.053,-0.98 1.784,-0.98 0.397,0 0.787,0.113 1.124,0.326 0.479,0.304 0.813,0.775 0.937,1.33 0.123,0.547 0.026,1.108 -0.279,1.585 z"
                 id="path8087"
                 inkscape:connector-curvature="0"
                 style="fill:#d3562c" /><path
                 d="m 110,77.011 c 0.425,1.035 1.136,1.962 2.109,2.649 0.072,0.052 0.151,0.105 0.283,0.191 0.981,0.621 2.11,0.949 3.268,0.949 2.116,0 4.052,-1.068 5.173,-2.849 0.875,-1.375 1.16,-3.01 0.805,-4.604 -0.358,-1.598 -1.318,-2.964 -2.709,-3.844 -0.98,-0.617 -2.109,-0.944 -3.266,-0.944 -0.125,0 -0.25,0.008 -0.375,0.018 -0.71,-3.157 -0.919,-7.769 0.035,-11.265 0.112,0.011 0.225,0.024 0.337,0.024 2.116,0 4.052,-1.067 5.173,-2.849 0.875,-1.375 1.16,-3.009 0.805,-4.604 -0.358,-1.599 -1.318,-2.964 -2.709,-3.844 -0.98,-0.617 -2.109,-0.944 -3.266,-0.944 -2.114,0 -4.051,1.066 -5.173,2.85 -1.603,2.532 -1.12,5.804 1.025,7.765 0.021,0.02 0.048,0.037 0.071,0.059 -1.349,4.518 -1.146,10.324 -0.036,14.417 -0.143,0.132 -0.294,0.254 -0.426,0.399 -0.229,0.255 -0.445,0.526 -0.634,0.824 -0.318,0.502 -0.551,1.033 -0.71,1.578 -3.371,0.488 -5.198,1.671 -6.824,2.729 -2.035,1.324 -3.961,2.572 -9.636,2.665 -1.964,-0.23 -3.553,-0.177 -5.29,-0.116 -1.431,0.052 -2.91,0.106 -4.849,0.003 -1.335,-0.071 -2.104,-0.882 -3.458,-2.424 -1.803,-2.055 -4.219,-4.649 -9.369,-5.023 l 0,4 c 3.295,0.3 4.796,1.888 6.356,3.667 1.487,1.694 3.175,3.615 6.256,3.782 2.118,0.114 3.76,0.052 5.208,0.001 2.491,-0.092 4.453,-0.161 7.855,0.684 2.607,0.643 12.099,9.673 14.773,14.322 -0.108,0.142 -0.219,0.282 -0.314,0.434 -1.743,2.755 -1.026,6.385 1.619,8.251 0.072,0.052 0.151,0.104 0.283,0.191 0.981,0.621 2.11,0.948 3.268,0.948 2.116,0 4.052,-1.068 5.173,-2.849 0.875,-1.374 1.16,-3.009 0.805,-4.603 -0.358,-1.6 -1.318,-2.965 -2.709,-3.845 -0.98,-0.617 -2.109,-0.944 -3.266,-0.944 -0.528,0 -1.047,0.067 -1.543,0.195 -2.561,-4.187 -8.652,-10.455 -13.189,-13.792 1.813,-0.628 3.05,-1.435 4.212,-2.188 1.429,-0.927 2.616,-1.687 4.859,-2.064 z m 3.88,-26.925 c 0.388,-0.614 1.054,-0.98 1.783,-0.98 0.399,0 0.79,0.113 1.125,0.325 0.48,0.304 0.813,0.775 0.937,1.33 0.122,0.546 0.024,1.106 -0.279,1.584 -0.598,0.951 -1.938,1.272 -2.912,0.653 l -0.094,-0.063 c -0.918,-0.646 -1.163,-1.896 -0.56,-2.849 z m 0,23.463 c 0.388,-0.614 1.054,-0.98 1.783,-0.98 0.399,0 0.79,0.112 1.125,0.326 0.48,0.304 0.813,0.774 0.937,1.329 0.122,0.546 0.024,1.107 -0.279,1.585 -0.598,0.95 -1.938,1.271 -2.912,0.652 l -0.094,-0.063 c -0.918,-0.646 -1.163,-1.896 -0.56,-2.849 z m 0,26.303 c 0.388,-0.613 1.054,-0.979 1.783,-0.979 0.399,0 0.79,0.112 1.125,0.325 0.48,0.304 0.813,0.775 0.937,1.33 0.122,0.547 0.024,1.106 -0.279,1.584 -0.598,0.951 -1.938,1.271 -2.912,0.653 l -0.094,-0.063 c -0.918,-0.647 -1.163,-1.896 -0.56,-2.85 z"
                 id="path8089"
                 inkscape:connector-curvature="0"
                 style="fill:#d3562c" /></g><g
               id="g8091"><path
                 d="m 103.53,108.927 c -1.165,-1.36 -2.858,-2.139 -4.648,-2.139 -1.459,0 -2.875,0.525 -3.983,1.477 -1.612,1.383 -2.326,3.429 -2.087,5.397 -1.948,0.7 -4.258,1.365 -5.328,1.332 -0.821,-0.044 -1.302,-0.346 -2.224,-0.972 -1.172,-0.795 -2.418,-1.512 -4.149,-1.847 2.936,-2.761 6.009,-6.83 8.584,-12.834 2.061,-0.076 3.976,-1.193 5.038,-2.972 1.725,-2.896 0.773,-6.659 -2.124,-8.394 -0.949,-0.565 -2.032,-0.864 -3.134,-0.864 -2.146,0 -4.161,1.144 -5.261,2.986 -0.838,1.405 -1.079,3.05 -0.678,4.636 0.351,1.393 1.16,2.59 2.302,3.429 -4.053,9.218 -9.219,13.081 -12.565,14.685 -0.128,0.045 -0.248,0.101 -0.36,0.168 -1.187,0.531 -2.05,0.704 -2.559,0.808 l 0,4 c 0.275,-0.03 1.885,-0.118 4.247,-1.192 5.348,-1.357 6.839,-0.354 8.407,0.709 1.021,0.692 2.291,1.554 4.263,1.656 0.1,0.005 0.204,0.008 0.309,0.008 2.109,0 5.172,-1.022 7.021,-1.723 1.144,1.116 2.676,1.75 4.285,1.75 l 0,0 c 1.461,0 2.876,-0.524 3.983,-1.476 1.24,-1.062 1.993,-2.546 2.118,-4.176 0.125,-1.631 -0.392,-3.214 -1.457,-4.452 z M 87.656,92.151 c 0.386,-0.645 1.066,-1.03 1.819,-1.03 0.378,0 0.752,0.104 1.078,0.297 1,0.601 1.331,1.899 0.735,2.898 -0.385,0.646 -1.064,1.032 -1.817,1.032 -0.379,0 -0.755,-0.104 -1.084,-0.301 -0.483,-0.288 -0.826,-0.748 -0.964,-1.294 -0.138,-0.548 -0.055,-1.116 0.233,-1.602 z m 12.603,22.363 c -0.49,0.421 -1.018,0.509 -1.373,0.509 -0.621,0 -1.207,-0.269 -1.608,-0.734 -0.758,-0.885 -0.654,-2.222 0.231,-2.981 0.492,-0.423 1.018,-0.512 1.373,-0.512 0.617,0 1.201,0.269 1.605,0.74 0.368,0.43 0.547,0.976 0.504,1.538 -0.043,0.562 -0.302,1.072 -0.732,1.44 z"
                 id="path8093"
                 inkscape:connector-curvature="0"
                 style="fill:#fffedb" /><path
                 d="m 79.355,46.028 c 0.07,0.018 0.142,0.034 0.212,0.046 -0.072,-0.011 -0.142,-0.027 -0.212,-0.046 z"
                 id="path8095"
                 inkscape:connector-curvature="0"
                 style="fill:#fffedb" /><path
                 d="m 101.305,33.027 c -0.357,-1.599 -1.317,-2.964 -2.708,-3.844 -0.98,-0.617 -2.109,-0.944 -3.265,-0.944 -2.117,0 -4.053,1.066 -5.174,2.85 -1.354,2.138 -1.218,4.799 0.144,6.759 -3.646,4.124 -8.706,4.313 -9.942,4.293 -3.692,-1.604 -7.234,-2.164 -10.005,-2.317 l 0,3.996 c 2.441,0.143 5.553,0.685 8.748,2.136 0.005,0.002 0.01,0.002 0.015,0.005 3.445,1.563 6.334,3.928 8.607,7.041 -0.136,0.173 -0.265,0.352 -0.382,0.538 -1.796,2.854 -0.942,6.644 1.903,8.444 0.98,0.622 2.111,0.951 3.27,0.951 2.113,0 4.051,-1.065 5.183,-2.852 1.806,-2.851 0.951,-6.642 -1.908,-8.453 -1.384,-0.871 -3.092,-1.113 -4.667,-0.755 -1.538,-2.154 -3.323,-4.017 -5.345,-5.566 2.517,-0.778 5.401,-2.269 7.78,-5.096 0.572,0.172 1.166,0.267 1.77,0.267 2.116,0 4.051,-1.068 5.172,-2.849 0.874,-1.375 1.16,-3.009 0.804,-4.604 z M 90.734,55.675 c 0.169,-0.267 0.395,-0.49 0.673,-0.661 0.335,-0.207 0.722,-0.316 1.121,-0.316 0.4,0 0.79,0.112 1.122,0.321 0.987,0.627 1.283,1.936 0.66,2.919 -0.392,0.618 -1.063,0.988 -1.795,0.988 -0.397,0 -0.785,-0.113 -1.124,-0.327 -0.984,-0.624 -1.278,-1.937 -0.657,-2.924 z m 6.379,-20.188 c -0.6,0.951 -1.938,1.271 -2.912,0.653 l -0.096,-0.063 c -0.914,-0.647 -1.161,-1.897 -0.558,-2.851 0.386,-0.613 1.053,-0.98 1.784,-0.98 0.397,0 0.787,0.113 1.124,0.326 0.479,0.304 0.813,0.775 0.937,1.33 0.123,0.547 0.026,1.108 -0.279,1.585 z"
                 id="path8097"
                 inkscape:connector-curvature="0"
                 style="fill:#fffedb" /><path
                 d="m 110,74.011 c 0.425,1.035 1.136,1.962 2.109,2.649 0.072,0.052 0.151,0.105 0.283,0.191 0.981,0.621 2.11,0.949 3.268,0.949 2.116,0 4.052,-1.068 5.173,-2.849 0.875,-1.375 1.16,-3.01 0.805,-4.604 -0.358,-1.598 -1.318,-2.964 -2.709,-3.844 -0.98,-0.617 -2.109,-0.944 -3.266,-0.944 -0.125,0 -0.25,0.008 -0.375,0.018 -0.71,-3.157 -0.919,-7.769 0.035,-11.265 0.112,0.011 0.225,0.024 0.337,0.024 2.116,0 4.052,-1.067 5.173,-2.849 0.875,-1.375 1.16,-3.009 0.805,-4.604 -0.358,-1.599 -1.318,-2.964 -2.709,-3.844 -0.98,-0.617 -2.109,-0.944 -3.266,-0.944 -2.114,0 -4.051,1.066 -5.173,2.85 -1.603,2.532 -1.12,5.804 1.025,7.765 0.021,0.02 0.048,0.037 0.071,0.059 -1.349,4.518 -1.146,10.324 -0.036,14.417 -0.143,0.132 -0.294,0.254 -0.426,0.399 -0.229,0.255 -0.445,0.526 -0.634,0.824 -0.318,0.502 -0.551,1.033 -0.71,1.578 -3.371,0.488 -5.198,1.671 -6.824,2.729 -2.035,1.324 -3.961,2.572 -9.636,2.665 -1.964,-0.23 -3.553,-0.177 -5.29,-0.116 -1.431,0.052 -2.91,0.106 -4.849,0.003 -1.335,-0.071 -2.104,-0.882 -3.458,-2.424 -1.803,-2.055 -4.219,-4.649 -9.369,-5.023 l 0,4 c 3.295,0.3 4.796,1.888 6.356,3.667 1.487,1.694 3.175,3.615 6.256,3.782 2.118,0.114 3.76,0.052 5.208,0.001 2.491,-0.092 4.453,-0.161 7.855,0.684 2.607,0.643 12.099,9.673 14.773,14.322 -0.108,0.142 -0.219,0.282 -0.314,0.434 -1.743,2.755 -1.026,6.385 1.619,8.251 0.072,0.052 0.151,0.104 0.283,0.191 0.981,0.621 2.11,0.948 3.268,0.948 2.116,0 4.052,-1.068 5.173,-2.849 0.875,-1.374 1.16,-3.009 0.805,-4.603 -0.358,-1.6 -1.318,-2.965 -2.709,-3.845 -0.98,-0.617 -2.109,-0.944 -3.266,-0.944 -0.528,0 -1.047,0.067 -1.543,0.195 -2.561,-4.187 -8.652,-10.455 -13.189,-13.792 1.813,-0.628 3.05,-1.435 4.212,-2.188 1.429,-0.927 2.616,-1.687 4.859,-2.064 z m 3.88,-26.925 c 0.388,-0.614 1.054,-0.98 1.783,-0.98 0.399,0 0.79,0.113 1.125,0.325 0.48,0.304 0.813,0.775 0.937,1.33 0.122,0.546 0.024,1.106 -0.279,1.584 -0.598,0.951 -1.938,1.272 -2.912,0.653 l -0.094,-0.063 c -0.918,-0.646 -1.163,-1.896 -0.56,-2.849 z m 0,23.463 c 0.388,-0.614 1.054,-0.98 1.783,-0.98 0.399,0 0.79,0.112 1.125,0.326 0.48,0.304 0.813,0.774 0.937,1.329 0.122,0.546 0.024,1.107 -0.279,1.585 -0.598,0.95 -1.938,1.271 -2.912,0.652 l -0.094,-0.063 c -0.918,-0.646 -1.163,-1.896 -0.56,-2.849 z m 0,26.303 c 0.388,-0.613 1.054,-0.979 1.783,-0.979 0.399,0 0.79,0.112 1.125,0.325 0.48,0.304 0.813,0.775 0.937,1.33 0.122,0.547 0.024,1.106 -0.279,1.584 -0.598,0.951 -1.938,1.271 -2.912,0.653 l -0.094,-0.063 c -0.918,-0.647 -1.163,-1.896 -0.56,-2.85 z"
                 id="path8099"
                 inkscape:connector-curvature="0"
                 style="fill:#fffedb" /></g></g></g></g></g></g></svg>