<?xml version="1.0" encoding="iso-8859-1"?>
<!-- Generator: Adobe Illustrator 19.0.0, SVG Export Plug-In . SVG Version: 6.00 Build 0)  -->
<svg version="1.1" id="Capa_1" xmlns="http://www.w3.org/2000/svg" xmlns:xlink="http://www.w3.org/1999/xlink" x="0px" y="0px"
	 viewBox="0 0 55.568 55.568" style="enable-background:new 0 0 55.568 55.568;" xml:space="preserve">
<path style="fill:#E3CDA4;" d="M44.472,0.784H31.294L6.848,25.151l23.734,23.785L55,24.599V11.288L44.472,0.784z M43.015,15.654
	c-1.621,0-2.935-1.314-2.935-2.935s1.314-2.935,2.935-2.935c1.621,0,2.935,1.314,2.935,2.935S44.636,15.654,43.015,15.654z"/>
<polygon style="fill:#CBB895;" points="6.877,25.138 1,30.999 24.734,54.784 30.637,48.898 "/>
<path style="fill:#BFA380;" d="M43.015,9.784c1.621,0,2.935,1.314,2.935,2.935s-1.314,2.935-2.935,2.935
	c-1.621,0-2.935-1.314-2.935-2.935S41.394,9.784,43.015,9.784 M43.015,5.784c-3.824,0-6.935,3.111-6.935,6.935
	s3.111,6.935,6.935,6.935c3.824,0,6.935-3.111,6.935-6.935S46.839,5.784,43.015,5.784L43.015,5.784z"/>
<path style="fill:#D75A4A;" d="M53.866,26.284c-0.07-0.121-0.161-0.22-0.266-0.299l-1.412,1.398
	c0.526,0.983,4.22,8.578-2.895,15.694c-2.741,2.739-9.128,3.895-13.912,1.172c-4.812-2.738-6.378-8.497-4.412-16.218
	c0.137-0.535-0.187-1.08-0.722-1.216c-0.537-0.143-1.079,0.187-1.216,0.722c-2.98,11.703,2.079,16.583,5.36,18.45
	c2.143,1.219,4.695,1.809,7.215,1.808c3.501,0,6.935-1.138,9.101-3.304C59.275,35.923,53.921,26.38,53.866,26.284z"/>
<path style="fill:#D75A4A;" d="M43.764,15.546c0.698-0.185,1.299-0.61,1.69-1.195L42.6,11.984
	C22.251-3.278,0.636,11.816,0.419,11.971c-0.449,0.32-0.554,0.945-0.232,1.395s0.946,0.554,1.395,0.232
	c0.203-0.145,20.627-14.409,39.78-0.044L43.764,15.546z"/>
<g>
</g>
<g>
</g>
<g>
</g>
<g>
</g>
<g>
</g>
<g>
</g>
<g>
</g>
<g>
</g>
<g>
</g>
<g>
</g>
<g>
</g>
<g>
</g>
<g>
</g>
<g>
</g>
<g>
</g>
</svg>
