<?xml version="1.0" encoding="iso-8859-1"?>
<!-- Generator: Adobe Illustrator 19.0.0, SVG Export Plug-In . SVG Version: 6.00 Build 0)  -->
<svg version="1.1" id="Capa_1" xmlns="http://www.w3.org/2000/svg" xmlns:xlink="http://www.w3.org/1999/xlink" x="0px" y="0px"
	 viewBox="0 0 56.598 56.598" style="enable-background:new 0 0 56.598 56.598;" xml:space="preserve">
<rect x="-6.142" y="31.306" transform="matrix(0.7071 -0.7071 0.7071 0.7071 -17.7016 25.8758)" style="fill:#424A60;" width="57.052" height="6"/>
<path style="fill:#EBBA16;" d="M40.506,9c-0.552,0-1-0.447-1-1V1c0-0.553,0.448-1,1-1s1,0.447,1,1v7C41.506,8.553,41.058,9,40.506,9
	z"/>
<path style="fill:#EBBA16;" d="M40.506,32c-0.552,0-1-0.447-1-1v-7c0-0.553,0.448-1,1-1s1,0.447,1,1v7
	C41.506,31.553,41.058,32,40.506,32z"/>
<path style="fill:#EBBA16;" d="M55.506,17h-7c-0.552,0-1-0.447-1-1s0.448-1,1-1h7c0.552,0,1,0.447,1,1S56.058,17,55.506,17z"/>
<path style="fill:#EBBA16;" d="M32.506,17h-7c-0.552,0-1-0.447-1-1s0.448-1,1-1h7c0.552,0,1,0.447,1,1S33.058,17,32.506,17z"/>
<path style="fill:#EBBA16;" d="M46.506,11c-0.256,0-0.512-0.098-0.707-0.293c-0.391-0.391-0.391-1.023,0-1.414l4.95-4.95
	c0.391-0.391,1.023-0.391,1.414,0s0.391,1.023,0,1.414l-4.95,4.95C47.018,10.902,46.762,11,46.506,11z"/>
<path style="fill:#EBBA16;" d="M51.456,27.95c-0.256,0-0.512-0.098-0.707-0.293l-4.95-4.95c-0.391-0.391-0.391-1.023,0-1.414
	s1.023-0.391,1.414,0l4.95,4.95c0.391,0.391,0.391,1.023,0,1.414C51.967,27.853,51.711,27.95,51.456,27.95z"/>
<path style="fill:#EBBA16;" d="M34.506,11c-0.256,0-0.512-0.098-0.707-0.293l-4.95-4.95c-0.391-0.391-0.391-1.023,0-1.414
	s1.023-0.391,1.414,0l4.95,4.95c0.391,0.391,0.391,1.023,0,1.414C35.018,10.902,34.762,11,34.506,11z"/>
<rect x="30.327" y="16.175" transform="matrix(-0.7071 0.7071 -0.7071 -0.7071 77.6005 6.2057)" style="fill:#7383BF;" width="14.376" height="5.999"/>
<g>
</g>
<g>
</g>
<g>
</g>
<g>
</g>
<g>
</g>
<g>
</g>
<g>
</g>
<g>
</g>
<g>
</g>
<g>
</g>
<g>
</g>
<g>
</g>
<g>
</g>
<g>
</g>
<g>
</g>
</svg>
