<?xml version="1.0" encoding="UTF-8" standalone="no"?>
<!-- Generator: Adobe Illustrator 17.0.0, SVG Export Plug-In . SVG Version: 6.00 Build 0)  -->

<svg
   xmlns:dc="http://purl.org/dc/elements/1.1/"
   xmlns:cc="http://creativecommons.org/ns#"
   xmlns:rdf="http://www.w3.org/1999/02/22-rdf-syntax-ns#"
   xmlns:svg="http://www.w3.org/2000/svg"
   xmlns="http://www.w3.org/2000/svg"
   xmlns:sodipodi="http://sodipodi.sourceforge.net/DTD/sodipodi-0.dtd"
   xmlns:inkscape="http://www.inkscape.org/namespaces/inkscape"
   version="1.1"
   id="Layer_1"
   x="0px"
   y="0px"
   width="100"
   height="100"
   viewBox="0 0 100 100"
   enable-background="new 0 0 245 100"
   xml:space="preserve"
   inkscape:version="0.91 r13725"
   sodipodi:docname="Picard_logo_small_no_text.svg"><metadata
     id="metadata65"><rdf:RDF><cc:Work
         rdf:about=""><dc:format>image/svg+xml</dc:format><dc:type
           rdf:resource="http://purl.org/dc/dcmitype/StillImage" /><dc:title></dc:title></cc:Work></rdf:RDF></metadata><defs
     id="defs63" /><sodipodi:namedview
     pagecolor="#ffffff"
     bordercolor="#666666"
     borderopacity="1"
     objecttolerance="10"
     gridtolerance="10"
     guidetolerance="10"
     inkscape:pageopacity="0"
     inkscape:pageshadow="2"
     inkscape:window-width="1221"
     inkscape:window-height="725"
     id="namedview61"
     showgrid="false"
     fit-margin-left="2"
     fit-margin-top="2"
     fit-margin-right="2"
     fit-margin-bottom="2"
     inkscape:zoom="1"
     inkscape:cx="-19.5"
     inkscape:cy="50"
     inkscape:window-x="0"
     inkscape:window-y="0"
     inkscape:window-maximized="0"
     inkscape:current-layer="g5" /><g
     id="g3" /><g
     id="g5"><g
       id="g7"
       transform="translate(5.5,0)"><polygon
         points="46,98 87,74 87,26 46,2 "
         id="polygon9"
         style="fill:#eb743b" /><polygon
         points="2,26 2,74 43,98 43,2 "
         id="polygon11"
         style="fill:#771b85" /><path
         d="m 78.281,58.087 c -1.239,-1.97 -3.38,-3.148 -5.718,-3.148 -0.666,0 -1.324,0.103 -1.956,0.295 -2.632,-3.125 -5.819,-4.775 -8.602,-5.636 2.235,-1.714 4.208,-3.771 5.909,-6.153 1.74,0.394 3.63,0.127 5.162,-0.832 3.158,-2.006 4.103,-6.197 2.104,-9.348 -1.249,-1.975 -3.39,-3.152 -5.724,-3.152 -1.283,0 -2.533,0.363 -3.616,1.05 -3.146,1.991 -4.093,6.181 -2.105,9.336 0.13,0.207 0.27,0.404 0.422,0.596 -2.514,3.442 -5.708,6.056 -9.519,7.785 l -0.014,0.004 C 51.093,50.487 49,51 46,51 l 0,5 c 4,0 5.931,-1.125 10.016,-2.898 1.366,-0.024 6.962,0.184 10.991,4.747 -1.507,2.164 -1.655,5.108 -0.16,7.471 1.241,1.97 3.382,3.15 5.721,3.15 1.278,0 2.524,-0.36 3.607,-1.044 1.538,-0.975 2.599,-2.482 2.995,-4.252 0.396,-1.761 0.078,-3.568 -0.889,-5.087 z M 68.061,34.67 c 0.423,-0.266 0.901,-0.405 1.396,-0.405 0.903,0 1.731,0.456 2.219,1.224 0.772,1.214 0.403,2.836 -0.818,3.61 -0.41,0.261 -0.896,0.399 -1.387,0.399 -0.493,0 -0.974,-0.134 -1.39,-0.391 -0.343,-0.213 -0.625,-0.489 -0.832,-0.817 -0.771,-1.226 -0.407,-2.847 0.812,-3.62 z m 7.058,27.6 c -0.154,0.687 -0.564,1.27 -1.161,1.645 -0.413,0.264 -0.896,0.406 -1.391,0.406 -0.906,0 -1.731,-0.457 -2.21,-1.218 -0.745,-1.18 -0.441,-2.727 0.691,-3.528 l 0.117,-0.078 c 1.208,-0.766 2.866,-0.367 3.608,0.808 0.378,0.591 0.498,1.286 0.346,1.965 z"
         id="path13"
         inkscape:connector-curvature="0"
         style="fill:#fffedb" /><g
         id="g15"><path
           d="m 27.125,26.467 -12.1,5.832 -6.564,35.289 11.56,-2.932 9.73,6.893 6.567,-35.29 -9.193,-9.792 z m -3.04,16.073 c -2.034,-0.379 -3.378,-2.336 -2.999,-4.37 0.379,-2.037 2.336,-3.38 4.371,-3.001 2.036,0.379 3.379,2.336 3.002,4.373 -0.38,2.034 -2.338,3.377 -4.374,2.998 z"
           id="path17"
           inkscape:connector-curvature="0"
           style="fill:#b66bc2" /><path
           d="m 35.352,26.587 c -2.783,0.86 -5.971,2.511 -8.603,5.636 -0.632,-0.192 -1.29,-0.295 -1.956,-0.295 -2.338,0 -4.478,1.179 -5.718,3.148 -0.967,1.52 -1.285,3.326 -0.889,5.087 0.396,1.769 1.457,3.277 2.995,4.252 1.083,0.684 2.329,1.044 3.608,1.044 2.339,0 4.479,-1.181 5.721,-3.15 1.495,-2.362 1.347,-5.307 -0.16,-7.471 C 34.379,30.276 41.634,29.817 43,29.84 l 0,-4.442 c -2.458,-0.147 -4.865,0.329 -7.648,1.189 z m -12.77,10.706 c 0.742,-1.175 2.4,-1.573 3.608,-0.808 l 0.117,0.078 c 1.133,0.802 1.437,2.349 0.691,3.528 -0.479,0.761 -1.304,1.218 -2.21,1.218 -0.494,0 -0.978,-0.143 -1.391,-0.406 C 22.8,40.528 22.39,39.945 22.236,39.258 22.085,38.58 22.205,37.885 22.582,37.293 Z"
           id="path19"
           inkscape:connector-curvature="0"
           style="fill:#fffedb" /></g></g><g
       id="g21" /><g
       id="g37" /></g></svg>