<?xml version="1.0" encoding="UTF-8" standalone="no"?>
<!-- Created with Inkscape (http://www.inkscape.org/) -->

<svg
   xmlns:dc="http://purl.org/dc/elements/1.1/"
   xmlns:cc="http://creativecommons.org/ns#"
   xmlns:rdf="http://www.w3.org/1999/02/22-rdf-syntax-ns#"
   xmlns:svg="http://www.w3.org/2000/svg"
   xmlns="http://www.w3.org/2000/svg"
   xmlns:xlink="http://www.w3.org/1999/xlink"
   xmlns:sodipodi="http://sodipodi.sourceforge.net/DTD/sodipodi-0.dtd"
   xmlns:inkscape="http://www.inkscape.org/namespaces/inkscape"
   version="1.0"
   width="1000"
   height="1000"
   id="svg5496"
   sodipodi:version="0.32"
   inkscape:version="0.47pre2 r22153"
   sodipodi:docname="PicardV6-32.svg"
   inkscape:output_extension="org.inkscape.output.svg.inkscape"
   inkscape:export-filename="C:\Users\NX\picard\resources\images\24x24\picard.png"
   inkscape:export-xdpi="2.1600001"
   inkscape:export-ydpi="2.1600001">
  <metadata
     id="metadata5594">
    <rdf:RDF>
      <cc:Work
         rdf:about="">
        <dc:format>image/svg+xml</dc:format>
        <dc:type
           rdf:resource="http://purl.org/dc/dcmitype/StillImage" />
        <dc:title></dc:title>
      </cc:Work>
    </rdf:RDF>
  </metadata>
  <sodipodi:namedview
     inkscape:window-height="738"
     inkscape:window-width="1280"
     inkscape:pageshadow="2"
     inkscape:pageopacity="0.0"
     guidetolerance="10.0"
     gridtolerance="10.0"
     objecttolerance="10.0"
     borderopacity="1.0"
     bordercolor="#666666"
     pagecolor="#ffffff"
     id="base"
     showgrid="false"
     showguides="true"
     inkscape:guide-bbox="true"
     inkscape:zoom="0.25"
     inkscape:cx="-53.65435"
     inkscape:cy="764.53807"
     inkscape:window-x="-8"
     inkscape:window-y="-8"
     inkscape:current-layer="svg5496"
     inkscape:window-maximized="1">
    <sodipodi:guide
       orientation="horizontal"
       position="200"
       id="guide5596" />
  </sodipodi:namedview>
  <defs
     id="defs5498">
    <inkscape:perspective
       sodipodi:type="inkscape:persp3d"
       inkscape:vp_x="0 : 500 : 1"
       inkscape:vp_y="0 : 1000 : 0"
       inkscape:vp_z="1000 : 500 : 1"
       inkscape:persp3d-origin="500 : 333.33333 : 1"
       id="perspective134" />
    <linearGradient
       id="linearGradient3507">
      <stop
         style="stop-color:#c1913e;stop-opacity:1;"
         offset="0"
         id="stop3509" />
      <stop
         style="stop-color:#dabe8c;stop-opacity:0;"
         offset="1"
         id="stop3511" />
    </linearGradient>
    <linearGradient
       id="linearGradient6592">
      <stop
         style="stop-color:#ffffff;stop-opacity:1;"
         offset="0"
         id="stop6594" />
      <stop
         style="stop-color:#ffffff;stop-opacity:0.66666669;"
         offset="1"
         id="stop6596" />
    </linearGradient>
    <linearGradient
       id="linearGradient6208">
      <stop
         style="stop-color:#d1d1d1;stop-opacity:1;"
         offset="0"
         id="stop6210" />
      <stop
         style="stop-color:#272727;stop-opacity:1;"
         offset="1"
         id="stop6212" />
    </linearGradient>
    <linearGradient
       id="linearGradient6178">
      <stop
         style="stop-color:#ffffff;stop-opacity:1;"
         offset="0"
         id="stop6180" />
      <stop
         id="stop3483"
         offset="0.5"
         style="stop-color:#ffffff;stop-opacity:0.49803922;" />
      <stop
         style="stop-color:#ffffff;stop-opacity:0;"
         offset="1"
         id="stop6182" />
    </linearGradient>
    <linearGradient
       id="linearGradient6160">
      <stop
         style="stop-color:#7f79ce;stop-opacity:1;"
         offset="0"
         id="stop6162" />
      <stop
         style="stop-color:#3d3b7d;stop-opacity:1;"
         offset="1"
         id="stop6164" />
    </linearGradient>
    <linearGradient
       id="linearGradient4322">
      <stop
         style="stop-color:#f2f2f2;stop-opacity:1;"
         offset="0"
         id="stop4324" />
      <stop
         style="stop-color:#cbcbcb;stop-opacity:1;"
         offset="1"
         id="stop4326" />
    </linearGradient>
    <linearGradient
       id="linearGradient3576">
      <stop
         style="stop-color:#ffdfbf;stop-opacity:1;"
         offset="0"
         id="stop3578" />
      <stop
         style="stop-color:#fd7e00;stop-opacity:1;"
         offset="1"
         id="stop3580" />
    </linearGradient>
    <radialGradient
       inkscape:collect="always"
       xlink:href="#linearGradient6178"
       id="radialGradient6166"
       cx="345.77982"
       cy="450.33051"
       fx="345.77982"
       fy="450.33051"
       r="379.06976"
       gradientTransform="matrix(3.8191952,2.1460174,-0.5755229,1.0138297,-726.73295,-715.74882)"
       gradientUnits="userSpaceOnUse" />
    <radialGradient
       inkscape:collect="always"
       xlink:href="#linearGradient6178"
       id="radialGradient6428"
       gradientUnits="userSpaceOnUse"
       gradientTransform="matrix(4.3393477,1.655853,-0.3513108,1.4633917,-942.9823,-629.48258)"
       cx="345.77982"
       cy="450.33051"
       fx="345.77982"
       fy="450.33051"
       r="379.06976" />
    <filter
       inkscape:collect="always"
       id="filter3387">
      <feGaussianBlur
         inkscape:collect="always"
         stdDeviation="4.3630274"
         id="feGaussianBlur3389" />
    </filter>
    <radialGradient
       inkscape:collect="always"
       xlink:href="#linearGradient3576"
       id="radialGradient3523"
       cx="557.64166"
       cy="487.48129"
       fx="557.64166"
       fy="487.48129"
       r="403.75812"
       gradientTransform="matrix(1,0,0,1.1712857,-73.365854,-84.620529)"
       gradientUnits="userSpaceOnUse" />
    <radialGradient
       inkscape:collect="always"
       xlink:href="#linearGradient6160"
       id="radialGradient4717"
       cx="-215.58578"
       cy="715.08765"
       fx="-215.58578"
       fy="715.08765"
       r="333.01013"
       gradientTransform="matrix(1.7296771,-0.4816977,0.71047345,2.5511638,-22.952866,-780.15282)"
       gradientUnits="userSpaceOnUse" />
    <radialGradient
       inkscape:collect="always"
       xlink:href="#linearGradient4322"
       id="radialGradient4719"
       cx="962.02008"
       cy="478.19446"
       fx="962.02008"
       fy="478.19446"
       r="306.39626"
       gradientTransform="matrix(1.8010058,-0.5482438,0.3796792,1.2472641,-1252.6134,641.12477)"
       gradientUnits="userSpaceOnUse" />
    <radialGradient
       inkscape:collect="always"
       xlink:href="#linearGradient6592"
       id="radialGradient4721"
       cx="627.68744"
       cy="451.66452"
       fx="627.68744"
       fy="451.66452"
       r="239.69086"
       gradientTransform="matrix(0.9398039,-0.3329117,0.3170602,0.8495364,-96.730512,329.95128)"
       gradientUnits="userSpaceOnUse" />
    <filter
       inkscape:collect="always"
       id="filter4791">
      <feGaussianBlur
         inkscape:collect="always"
         stdDeviation="1.1791919"
         id="feGaussianBlur4793" />
    </filter>
    <filter
       inkscape:collect="always"
       id="filter4729">
      <feGaussianBlur
         inkscape:collect="always"
         stdDeviation="1.231875"
         id="feGaussianBlur4731" />
    </filter>
    <radialGradient
       inkscape:collect="always"
       xlink:href="#linearGradient6208"
       id="radialGradient4733"
       cx="411.5"
       cy="191.71875"
       fx="411.5"
       fy="191.71875"
       r="67.018997"
       gradientTransform="matrix(1,0,0,0.95616915,0,10.403197)"
       gradientUnits="userSpaceOnUse" />
    <inkscape:perspective
       id="perspective5101"
       inkscape:persp3d-origin="0.5 : 0.33333333 : 1"
       inkscape:vp_z="1 : 0.5 : 1"
       inkscape:vp_y="0 : 1000 : 0"
       inkscape:vp_x="0 : 0.5 : 1"
       sodipodi:type="inkscape:persp3d" />
    <inkscape:perspective
       id="perspective5123"
       inkscape:persp3d-origin="0.5 : 0.33333333 : 1"
       inkscape:vp_z="1 : 0.5 : 1"
       inkscape:vp_y="0 : 1000 : 0"
       inkscape:vp_x="0 : 0.5 : 1"
       sodipodi:type="inkscape:persp3d" />
    <filter
       inkscape:collect="always"
       id="filter5149">
      <feGaussianBlur
         inkscape:collect="always"
         stdDeviation="7.7766665"
         id="feGaussianBlur5151" />
    </filter>
    <filter
       inkscape:collect="always"
       id="filter5153">
      <feGaussianBlur
         inkscape:collect="always"
         stdDeviation="7.4564371"
         id="feGaussianBlur5155" />
    </filter>
    <inkscape:perspective
       id="perspective3151"
       inkscape:persp3d-origin="0.5 : 0.33333333 : 1"
       inkscape:vp_z="1 : 0.5 : 1"
       inkscape:vp_y="0 : 1000 : 0"
       inkscape:vp_x="0 : 0.5 : 1"
       sodipodi:type="inkscape:persp3d" />
    <filter
       inkscape:collect="always"
       id="filter4058">
      <feGaussianBlur
         inkscape:collect="always"
         stdDeviation="7.7712194"
         id="feGaussianBlur4060" />
    </filter>
    <filter
       inkscape:collect="always"
       id="filter4070">
      <feGaussianBlur
         inkscape:collect="always"
         stdDeviation="22.63835"
         id="feGaussianBlur4072" />
    </filter>
    <filter
       inkscape:collect="always"
       id="filter3783">
      <feGaussianBlur
         inkscape:collect="always"
         stdDeviation="1.2889578"
         id="feGaussianBlur3785" />
    </filter>
    <filter
       inkscape:collect="always"
       id="filter3787">
      <feGaussianBlur
         inkscape:collect="always"
         stdDeviation="1.2889578"
         id="feGaussianBlur3789" />
    </filter>
    <filter
       inkscape:collect="always"
       id="filter3791">
      <feGaussianBlur
         inkscape:collect="always"
         stdDeviation="1.2889578"
         id="feGaussianBlur3793" />
    </filter>
    <filter
       inkscape:collect="always"
       id="filter3795">
      <feGaussianBlur
         inkscape:collect="always"
         stdDeviation="1.195802"
         id="feGaussianBlur3797" />
    </filter>
  </defs>
  <path
     clip-rule="evenodd"
     d="m 180.10305,667.1547 -0.10414,3.2975 -5.42842,201.82266 -0.0572,3.3373 c -1.34209,49.8248 13.08475,69.0622 54.31579,71.8823 l 539.13688,37.1357 c 47.17125,3.2454 64.52415,-15.2041 64.80625,-68.9977 l 0.0133,-3.6214 1.5785,-330.65296 0.0259,-3.54025 0.5349,-116.25309 0.9152,-188.47977 0.5375,-113.85257 c 0.2375,-50.90399 -16.4492,-68.922023 -62.21644,-67.553533 l -524.3299,15.824903 c -40.20558,1.19003 -55.18898,18.86575 -56.46474,66.20738 l -2.83271,105.83654 -7.50026,278.96131 -2.93041,108.64568 z M 456.63327,217.4524 c -8.32434,-29.67851 10.0789,-56.40584 41.05826,-59.75401 30.98568,-3.30758 62.82926,18.02637 71.15365,47.7049 8.32434,29.67852 -10.0789,56.40584 -41.05826,59.75401 -30.98568,3.30759 -62.82925,-18.02637 -71.15365,-47.7049 z"
     id="path3339"
     style="opacity:0.3317308;fill:#000000;fill-opacity:1;fill-rule:evenodd;stroke:none;filter:url(#filter4058)"
     transform="matrix(0.99311266,0,0,0.97955155,-65.416879,23.16196)" />
  <path
     clip-rule="evenodd"
     d="m 179.24718,699.80235 0.58612,3.1524 36.82554,192.72889 0.64162,3.1795 c 9.08936,47.5802 27.59835,62.5464 69.57084,55.8293 l 548.88646,-87.585 c 48.0235,-7.66671 61.5754,-29.12492 50.5909,-80.22939 l -0.745,-3.43912 -67.6744,-314.08775 -0.7156,-3.36502 -23.8135,-110.42444 -38.5603,-179.04078 -23.3083,-108.147351 c -10.4238,-48.35256 -30.9456,-61.6469598 -76.5935,-49.92235 L 132.00564,152.91292 C 91.902436,163.2012 80.566606,183.3855 89.202376,228.59461 l 19.325274,101.06458 50.90368,266.39095 19.81585,103.75221 z m 183.3466,-489.67989 c -14.5712,-26.26304 -1.699,-55.81477 28.69227,-66.04885 30.40617,-10.19711 66.83483,2.79058 81.40604,29.05363 14.57126,26.26305 1.699,55.81478 -28.69237,66.04895 -30.40601,10.19708 -66.83458,-2.79069 -81.40594,-29.05373 z"
     id="path3357"
     style="opacity:0.45;fill:#000000;fill-opacity:1;fill-rule:evenodd;stroke:none;filter:url(#filter3387)" />
  <path
     clip-rule="evenodd"
     d="m 196.01314,709.80235 0.58612,3.1524 36.82554,192.72888 0.64162,3.17953 c 9.08936,47.58013 27.59835,62.54633 69.57084,55.82933 l 548.88648,-87.58502 c 48.0235,-7.66674 61.5754,-29.12495 50.5909,-80.22942 l -0.7451,-3.43912 -67.6743,-314.08775 -0.7156,-3.36502 -23.8135,-110.42444 -38.5604,-179.04078 -23.3082,-108.147351 c -10.4239,-48.35256 -30.9456,-61.64696 -76.5935,-49.92235 L 148.7716,162.91292 c -40.1032,10.28828 -51.439034,30.47258 -42.80326,75.68169 l 19.32527,101.06458 50.90368,266.39095 19.81585,103.75221 z m 183.3466,-489.67989 c -14.5712,-26.26304 -1.699,-55.81477 28.69227,-66.04885 30.40617,-10.19711 66.83483,2.79058 81.40603,29.05363 14.5713,26.26305 1.699,55.81478 -28.69236,66.04895 -30.40601,10.19708 -66.83458,-2.79069 -81.40594,-29.05373 z"
     id="path6464"
     style="fill:#000000;fill-opacity:1;fill-rule:evenodd;stroke:none;filter:url(#filter4070)" />
  <path
     clip-rule="evenodd"
     d="m 175.31435,700.82876 0.58612,3.1524 36.82554,192.72888 0.64162,3.17953 c 9.08936,47.58014 27.59835,62.54638 69.57084,55.82932 l 548.88651,-87.58501 c 48.02345,-7.66674 61.57533,-29.12495 50.59089,-80.22942 L 881.6708,784.46534 813.99645,470.37759 813.28083,467.01257 789.46734,356.58813 750.90699,177.54735 727.59877,69.400005 C 717.17489,21.047441 696.65311,7.7530411 651.00521,19.477648 L 128.07281,153.93933 c -40.103204,10.28828 -51.439034,30.47258 -42.803264,75.68169 l 19.325274,101.06458 50.90368,266.39095 19.81585,103.75221 z m 183.3466,-489.67989 c -14.5712,-26.26304 -1.699,-55.81477 28.69227,-66.04885 30.40617,-10.19711 66.83483,2.79058 81.40604,29.05363 14.57126,26.26305 1.699,55.81478 -28.69237,66.04895 -30.40601,10.19708 -66.83458,-2.79069 -81.40594,-29.05373 z"
     id="path6420"
     style="fill:url(#radialGradient3523);fill-opacity:1;fill-rule:evenodd;stroke:#d79c10;stroke-width:15;stroke-linecap:round;stroke-linejoin:round;stroke-miterlimit:4;stroke-opacity:1;stroke-dasharray:none" />
  <path
     clip-rule="evenodd"
     d="m 84.445787,257.7897 c -8.63577,-56.49616 2.70006,-81.71974 42.803263,-94.57662 L 650.18145,-4.818724 c 45.6479,-14.65181 66.16968,1.961712 76.59356,62.386127 L 788.64358,416.45582 C 707.1476,553.10146 561.13853,663.99224 389.3315,706.84899 305.90606,727.64764 226.05407,729.96596 154.67474,716.98533 L 84.445787,257.7897 z M 357.83719,234.70573 c -14.5712,-32.81995 -1.699,-69.74966 28.69227,-82.53881 30.40617,-12.74295 66.83483,3.48729 81.40604,36.30725 14.57126,32.81997 1.699,69.74968 -28.69237,82.53894 -30.40601,12.74292 -66.83458,-3.48742 -81.40594,-36.30738 z"
     id="path6422"
     style="opacity:0.4;fill:url(#radialGradient6428);fill-opacity:1;fill-rule:evenodd;stroke:none" />
  <path
     clip-rule="evenodd"
     d="m 180.10305,667.1547 -0.10414,3.2975 -5.42842,201.82266 -0.0572,3.3373 c -1.34209,49.8248 13.08475,69.0622 54.31579,71.8823 l 539.13688,37.1357 c 47.17125,3.2454 64.52415,-15.2041 64.80625,-68.9977 l 0.0133,-3.6214 1.5785,-330.65296 0.0259,-3.54025 0.5349,-116.25309 0.9152,-188.47977 0.5375,-113.85257 c 0.2375,-50.90399 -16.4492,-68.922023 -62.21644,-67.553533 L 249.83117,107.50379 c -40.20558,1.19003 -55.18898,18.86575 -56.46474,66.20738 l -2.83271,105.83654 -7.50026,278.96131 -2.93041,108.64568 z M 456.63327,217.4524 c -8.32434,-29.67851 10.0789,-56.40584 41.05826,-59.75401 30.98568,-3.30758 62.82926,18.02637 71.15365,47.7049 8.32434,29.67852 -10.0789,56.40584 -41.05826,59.75401 -30.98568,3.30759 -62.82925,-18.02637 -71.15365,-47.7049 z"
     id="path6430"
     style="fill:#000000;fill-opacity:1;fill-rule:evenodd;stroke:none;filter:url(#filter5149)"
     transform="matrix(0.9952368,0,0,0.9952368,-88.535023,-8.430293)" />
  <path
     clip-rule="evenodd"
     d="m 78.902926,650.33049 -0.10414,3.2975 -5.42842,201.82261 -0.05715,3.33736 c -1.34209,49.82474 13.08475,69.06217 54.315794,71.88227 l 539.13688,37.13569 c 47.17124,3.24541 64.52411,-15.20407 64.80627,-68.99769 l 0.0133,-3.6214 1.57843,-330.65294 0.0259,-3.54025 0.53491,-116.25309 0.91524,-188.47977 0.53745,-113.85257 C 735.41495,91.504221 718.72823,73.486185 672.961,74.854676 L 148.63105,90.679579 C 108.42547,91.869611 93.442066,109.54533 92.166306,156.88696 l -2.83271,105.83654 -7.50026,278.96131 -2.93041,108.64568 z M 355.43315,200.62819 c -8.32434,-29.67851 10.0789,-56.40584 41.05826,-59.75401 30.98568,-3.30758 62.82926,18.02637 71.15365,47.7049 8.32434,29.67852 -10.0789,56.40584 -41.05826,59.75401 -30.98568,3.30759 -62.82925,-18.02637 -71.15365,-47.7049 z"
     id="path2504"
     style="fill:url(#radialGradient4717);fill-opacity:1;fill-rule:evenodd;stroke:#312958;stroke-width:30;stroke-linecap:round;stroke-linejoin:round;stroke-miterlimit:4;stroke-opacity:1;stroke-dasharray:none" />
  <g
     id="layer1" />
  <path
     clip-rule="evenodd"
     d="m 94.97695,160.51589 c 1.26895,-43.82114 16.17237,-60.18242 56.16333,-61.283959 L 672.67124,84.583822 c 45.52291,-1.266724 62.12055,15.411428 61.88427,62.530028 l -1.44494,279.84983 C 633.41748,511.36347 477.13402,563.01294 307.84615,558.64475 225.64593,556.51512 149.89923,541.40034 84.699141,516.69884 L 94.97695,160.51589 z m 261.86148,40.48848 c -8.27992,-27.4715 10.02509,-52.2113 40.83907,-55.31049 30.82027,-3.06161 62.49386,16.68588 70.77382,44.1574 8.27989,27.47153 -10.02509,52.21131 -40.83908,55.31051 -30.82028,3.06162 -62.49386,-16.68588 -70.77381,-44.15742 z"
     id="path2506"
     style="opacity:0.2;fill:url(#radialGradient6166);fill-opacity:1;fill-rule:evenodd;stroke:none" />
  <path
     style="opacity:0.7;fill:none;stroke:#e2ba56;stroke-width:55.76869583;stroke-linecap:butt;stroke-linejoin:miter;stroke-miterlimit:4;stroke-opacity:1;stroke-dasharray:none"
     d="m 212.80227,420.45284 c 34.797,13.18098 59.51458,57.35178 90.62654,82.43106 88.07208,104.8419 110.08784,301.46466 40.64407,399.40641"
     id="path4745" />
  <path
     style="opacity:0.7;fill:none;stroke:#e2ba56;stroke-width:55.76869583;stroke-linecap:butt;stroke-linejoin:miter;stroke-miterlimit:4;stroke-opacity:1;stroke-dasharray:none"
     d="m 144.64012,539.67109 c 54.71702,0.5665 105.67541,66.53657 130.94901,135.6453 22.35228,67.93687 19.17704,154.05459 -22.22762,190.78642"
     id="path4751" />
  <path
     style="opacity:0.7;fill:none;stroke:#e2ba56;stroke-width:55.76869583;stroke-linecap:butt;stroke-linejoin:miter;stroke-miterlimit:4;stroke-opacity:1;stroke-dasharray:none"
     d="m 100.90898,632.07966 c 42.22913,-6.12642 76.94876,33.50378 91.60571,78.36839 12.48288,44.40075 3.96495,104.43795 -30.60731,134.81728"
     id="path4751-1" />
  <path
     style="opacity:0.32456138;fill:#000000;fill-opacity:1;fill-rule:evenodd;stroke:#000000;stroke-width:10;stroke-linecap:round;stroke-linejoin:round;stroke-miterlimit:4;stroke-opacity:1;stroke-dasharray:none;filter:url(#filter5153)"
     id="path6544"
     d="m 697.18592,739.39517 1.7709,-573.10835 -504.85274,218.62582 1.88637,438.40651 c -20.9425,-6.58303 -46.58166,-6.66002 -72.68278,1.3089 -56.128974,17.13127 -93.317305,64.98334 -83.115544,106.86833 10.20178,41.88502 63.943924,61.94202 120.034394,44.81082 55.7055,-17.01581 92.73985,-64.25192 83.34651,-105.90593 0.96244,-105.09745 5.58211,-383.62496 5.58211,-383.62496 l 402.37308,-176.16334 -1.9248,388.05213 c -20.5576,-6.00557 -45.3883,-5.85158 -70.681,1.88636 -56.1289,17.13127 -93.3173,64.98334 -83.1155,106.86833 10.2018,41.885 63.9439,61.94206 120.0344,44.81078 56.129,-17.13127 93.3173,-64.98333 83.1155,-106.86832 -0.5005,-2.04035 -1.0779,-4.04221 -1.7709,-5.96708 z"
     clip-rule="evenodd"
     transform="matrix(0.9712936,-0.02789374,0.02594466,0.9857016,285.77368,-33.680966)" />
  <path
     style="fill:#aca8c3;fill-opacity:1;fill-rule:evenodd;stroke:#383858;stroke-width:30;stroke-linecap:round;stroke-linejoin:round;stroke-miterlimit:4;stroke-opacity:1;stroke-dasharray:none;"
     d="m 942.0084,89.36152 c -1.21765,0.0482 -2.41464,0.33014 -3.52577,0.83055 L 460.64928,301.80928 c -3.47765,1.53803 -5.70316,5.00161 -5.65688,8.80391 l 5.0512,404.33985 c -19.17171,-3.40147 -40.60213,-2.09492 -62.21265,4.698 -28.3881,8.92055 -51.99664,25.54435 -67.45544,45.76707 -15.45882,20.22273 -22.87762,44.5615 -17.01586,67.79429 5.86203,23.23375 23.99152,40.20011 46.9771,48.56525 22.98559,8.36516 51.06858,8.7118 79.43777,-0.20881 28.17202,-8.85968 51.63922,-25.27992 67.10316,-45.28922 15.11575,-19.55878 22.6137,-43.00949 17.8945,-65.63444 0.0958,-97.93303 2.19062,-346.98525 2.27954,-357.6746 l 361.93245,-162.00765 1.09631,342.23982 c -18.70902,-3.02345 -39.47714,-1.55946 -60.4287,5.03951 -28.3881,8.92057 -51.99688,25.51467 -67.4557,45.73741 -15.45881,20.22271 -22.87761,44.56152 -17.01581,67.79429 5.86199,23.23374 23.96183,40.20035 46.94738,48.56549 22.98558,8.36512 51.09825,8.71157 79.46748,-0.20906 28.38806,-8.92056 51.99687,-25.51468 67.45567,-45.7374 15.4588,-20.22271 22.87761,-44.56151 17.01584,-67.7943 -8e-5,-0.01 -1.7e-4,-0.0198 -2.6e-4,-0.0297 L 951.8232,98.80988 c -0.0126,-2.56607 -1.0627,-5.01793 -2.91137,-6.7976 -1.84871,-1.77967 -4.33872,-2.73578 -6.90343,-2.65076 z"
     id="path6618"
     sodipodi:nodetypes="ccccccssscscccccssscscscsc" />
  <path
     style="fill:url(#radialGradient4733);fill-opacity:1;stroke:#0e0e0e;stroke-width:2;stroke-miterlimit:4;stroke-opacity:1;stroke-dasharray:none;filter:url(#filter4729)"
     d="m 411.5,133.59375 c -34.82926,0 -63.0625,26.9157 -63.0625,60.125 0,33.2093 28.23324,60.125 63.0625,60.125 34.82925,0 63.0625,-26.9157 63.0625,-60.125 0,-33.2093 -28.23325,-60.125 -63.0625,-60.125 z M 411.65625,156.5 c 2.59252,0 5.14913,0.24178 7.59375,0.71875 2.44463,0.47698 4.7536,1.18779 7,2.09375 2.24641,0.90595 4.40841,2.02556 6.40625,3.3125 1.99785,1.28694 3.86355,2.75507 5.5625,4.375 1.69895,1.61993 3.21279,3.37633 4.5625,5.28125 1.34972,1.90493 2.51861,3.95183 3.46875,6.09375 0.95015,2.14192 1.68725,4.38783 2.1875,6.71875 0.50024,2.33093 0.78125,4.74681 0.78125,7.21875 0,2.47193 -0.28101,4.91908 -0.78125,7.25 -0.50025,2.33093 -1.23735,4.57683 -2.1875,6.71875 -0.95014,2.14193 -2.11903,4.12632 -3.46875,6.03125 -1.34971,1.90492 -2.86355,3.72382 -4.5625,5.34375 -1.69895,1.61993 -3.56465,3.05681 -5.5625,4.34375 -1.99784,1.28694 -4.15984,2.40654 -6.40625,3.3125 -2.2464,0.90595 -4.55537,1.58552 -7,2.0625 -2.44462,0.47697 -5.00123,0.75 -7.59375,0.75 -2.59251,0 -5.11787,-0.27303 -7.5625,-0.75 -2.44462,-0.47698 -4.8161,-1.15655 -7.0625,-2.0625 -2.24641,-0.90596 -4.37715,-2.02556 -6.375,-3.3125 -1.99785,-1.28694 -3.86355,-2.72382 -5.5625,-4.34375 -1.69896,-1.61993 -3.24404,-3.43883 -4.59375,-5.34375 -1.34972,-1.90493 -2.48736,-3.88932 -3.4375,-6.03125 -0.95015,-2.14192 -1.68726,-4.38782 -2.1875,-6.71875 -0.50025,-2.33092 -0.75,-4.77807 -0.75,-7.25 0,-2.47194 0.24975,-4.88782 0.75,-7.21875 0.50024,-2.33092 1.23735,-4.57683 2.1875,-6.71875 0.95014,-2.14192 2.08778,-4.18882 3.4375,-6.09375 1.34971,-1.90492 2.89479,-3.66132 4.59375,-5.28125 1.69895,-1.61993 3.56465,-3.08806 5.5625,-4.375 1.99785,-1.28694 4.12859,-2.40655 6.375,-3.3125 2.2464,-0.90596 4.61788,-1.61677 7.0625,-2.09375 2.44463,-0.47697 4.96999,-0.71875 7.5625,-0.71875 z"
     id="path4664" />
  <path
     style="fill:url(#radialGradient4719);fill-opacity:1;fill-rule:evenodd;stroke:none;opacity:0.9"
     id="path2514"
     d="M 941.1178,644.49783 938.33087,96.86466 460.489,308.4827 l 5.22084,416.42086 c -19.94446,-6.08931 -44.29931,-5.96189 -69.03002,1.81181 -53.18207,16.71174 -85.69339,54.98592 -58.60211,97.28463 3.57341,28.91564 179.85763,-16.34856 174.63748,-44.29871 -0.13861,-3.50964 -0.64259,-6.97966 -1.43913,-10.44728 0.0922,-99.83799 2.30182,-364.44314 2.30182,-364.44314 l 380.83015,-170.48203 1.20676,368.61981 c -19.57423,-5.54381 -43.15936,-5.20331 -67.12395,2.34469 -50.92057,15.99826 -87.5679,65.90898 -66.98523,97.05157 12.70123,22.89486 185.90433,-22.7817 179.61219,-57.84708 z"
     clip-rule="evenodd"
     sodipodi:nodetypes="cccccccccccccc" />
  <path
     style="opacity:0.7;fill:url(#radialGradient4721);fill-opacity:1;fill-rule:evenodd;stroke:none;filter:url(#filter4791)"
     id="path2516"
     d="m 961.8707,415.19957 -1.53983,-298.0362 -477.84187,211.61804 3.10409,248.17782 c 8.7774,11.74666 50.37763,-2.86695 48.94046,-16.64022 0.52144,-74.35194 1.04433,-135.20943 1.04433,-135.20943 l 380.83015,-170.48203 0.5701,175.82584 c 16.82551,2.16889 33.65102,0.71104 44.89257,-15.25382 z"
     clip-rule="evenodd"
     transform="matrix(0.9949121,0,0,1.0212184,-14.228093,-23.467647)"
     sodipodi:nodetypes="ccccccccc" />
  <path
     id="path3323"
     style="opacity:1;fill:none;stroke:#000000;stroke-width:18;stroke-linecap:round;stroke-linejoin:round;stroke-miterlimit:4;stroke-opacity:1;stroke-dasharray:none;filter:url(#filter3795)"
     d="m 400.0625,67.8125 c -1.1878,0.221192 -3.7123,0.228122 -3.12666,2.084729 7.58389,30.138421 15.16777,60.276851 22.75166,90.415271 1.83654,-21.97084 3.58235,-44.38288 -1.06154,-66.135683 -1.91372,-8.595301 -4.72009,-17.669914 -11.4519,-23.756319 -1.97573,-1.636662 -4.49566,-2.809672 -7.11156,-2.607998 z m -13.71875,2.34375 c -5.71229,1.708777 -12.23656,3.921105 -15.0625,9.65625 -2.92368,7.162699 -0.49277,14.948331 1.33485,22.05945 5.49733,19.28194 12.17445,38.20226 17.83418,57.43648 0.38658,1.41017 0.72556,2.52149 0.54965,0.40109 -0.62498,-30.1115 -1.24995,-60.223012 -1.87493,-90.33452 -0.92708,0.260417 -1.85417,0.520833 -2.78125,0.78125 z"
     sodipodi:nodetypes="cscs"
     transform="matrix(1.124752,0,0,1.0330043,-46.435357,5.3676857)" />
  <path
     id="path6340"
     style="fill:none;stroke:#0e0e0e;stroke-width:30;stroke-linecap:round;stroke-linejoin:round;stroke-miterlimit:4;stroke-opacity:1;stroke-dasharray:none;opacity:1;filter:url(#filter3791)"
     d="m 392.56475,63.688516 c -34.50637,8.980087 -22.35679,20.598066 2.12678,102.158424 m 6.27903,-102.819289 c 12.65941,-6.744997 33.9467,15.447692 25.6008,101.832799"
     sodipodi:nodetypes="cscs" />
  <path
     style="fill:none;stroke:#0e0e0e;stroke-width:30;stroke-linecap:butt;stroke-linejoin:miter;stroke-miterlimit:4;stroke-opacity:1;stroke-dasharray:none;opacity:1;filter:url(#filter3787)"
     d="M 38.710157,710.86348 C 276.93836,642.57991 278.82416,125.23919 303.49049,72.800013 319.14159,39.5267 379.86763,41.002252 386.55456,77.737452"
     id="path5522"
     sodipodi:nodetypes="csc" />
  <path
     style="fill:none;stroke:#0e0e0e;stroke-width:30;stroke-linecap:butt;stroke-linejoin:miter;stroke-miterlimit:4;stroke-opacity:1;stroke-dasharray:none;opacity:1;filter:url(#filter3783)"
     d="M 26.440262,584.45934 C 173.04395,581.75506 246.51142,63.728521 281.97791,31.133723 315.1622,0.6363239 393.79838,37.653088 400.4853,74.388298"
     id="path3310"
     sodipodi:nodetypes="csc" />
</svg>
