<?xml version="1.0" encoding="utf-8"?>
<!-- Generator: Adobe Illustrator 27.8.1, SVG Export Plug-In . SVG Version: 6.00 Build 0)  -->
<svg version="1.1" id="Layer_2_00000057131925191428662150000015138191158868132242_"
	 xmlns="http://www.w3.org/2000/svg" xmlns:xlink="http://www.w3.org/1999/xlink" x="0px" y="0px" viewBox="0 0 61.6 61.6"
	 style="enable-background:new 0 0 61.6 61.6;" xml:space="preserve">
<style type="text/css">
	.st0{fill:#8A8C8E;}
</style>
<path class="st0" d="M49.2,21.2l-2.5-10.4c-0.3-1.3-1.7-2.2-3-1.8s-2.2,1.7-1.8,3l0.7,2.9C39.4,13,35.8,12,32.1,12
	c-11.5,0-20.8,9.3-20.8,20.8c0,11.5,9.3,20.8,20.8,20.8c5,0,9.7-1.7,13.2-4.6c1.5-1.3,1.6-3.5,0.4-4.9c-1.3-1.5-3.5-1.6-4.9-0.4
	c-2.2,1.9-5.3,3-8.6,3c-7.6,0-13.8-6.2-13.8-13.8S24.5,19,32.1,19c2.6,0,5.2,0.8,7.4,2.2l-4,1c-1.3,0.3-2.2,1.7-1.8,3
	c0.3,1.1,1.3,1.9,2.4,1.9c0.2,0,0.4,0,0.6-0.1l10.4-2.6c0.4-0.1,0.7-0.3,1-0.5C49,23.4,49.5,22.3,49.2,21.2z"/>
</svg>
