<?xml version="1.0" encoding="utf-8"?>
<!-- Generator: Adobe Illustrator 27.5.0, SVG Export Plug-In . SVG Version: 6.00 Build 0)  -->
<svg version="1.1" id="Layer_1" xmlns="http://www.w3.org/2000/svg" xmlns:xlink="http://www.w3.org/1999/xlink" x="0px" y="0px"
	 viewBox="0 0 512 512" style="enable-background:new 0 0 512 512;" xml:space="preserve">
<style type="text/css">
	.st0{fill-rule:evenodd;clip-rule:evenodd;}
</style>
<g>
	<path class="st0" d="M32,255.96C32.01,132.25,132.31,31.98,256.02,32C379.72,32.01,480,132.31,479.98,256.01
		S379.67,479.99,255.96,479.98c-47.12-0.01-93.05-14.87-131.23-42.49c-5.34-3.87-6.91-12.99-0.06-19.84l57.6-57.6
		c44.59,33.36,106.93,28.89,146.3-10.5l45.25-45.28c6.25-6.25,6.25-16.38,0-22.62l-22.62-22.62l49.89-50.01
		c6.35-6.15,6.51-16.28,0.36-22.62c-6.15-6.35-16.28-6.51-22.62-0.36l-0.39,0.39l-49.89,49.98l-45.25-45.25l49.92-49.98
		c6.5-5.99,6.91-16.11,0.92-22.61c-5.99-6.5-16.11-6.91-22.61-0.92l-0.94,0.94l-49.92,49.92l-22.62-22.59
		c-6.25-6.25-16.38-6.25-22.62,0l-45.25,45.25c-39.37,39.37-43.84,101.68-10.5,146.27l-57.6,57.6
		c-18.56,18.56-19.84,51.2,3.87,68.38c114.55,82.87,274.59,57.18,357.45-57.37s57.18-274.59-57.37-357.45S131.45-8.59,48.58,105.96
		C17.01,149.6,0.01,202.09,0,255.96c0,8.84,7.16,16,16,16S32,264.8,32,255.96z"/>
</g>
</svg>
