<?xml version="1.0" encoding="utf-8"?>
<!-- Generator: Adobe Illustrator 27.8.1, SVG Export Plug-In . SVG Version: 6.00 Build 0)  -->
<svg version="1.1" id="Layer_2_00000057131925191428662150000015138191158868132242_"
	 xmlns="http://www.w3.org/2000/svg" xmlns:xlink="http://www.w3.org/1999/xlink" x="0px" y="0px" viewBox="0 0 61.6 61.6"
	 style="enable-background:new 0 0 61.6 61.6;" xml:space="preserve">
<style type="text/css">
	.st0{fill:#FF5555;}
</style>
<path class="st0" d="M30.8,0C13.8,0,0,13.8,0,30.8s13.8,30.8,30.8,30.8s30.8-13.8,30.8-30.8S47.8,0,30.8,0z M47.3,42.2
	c1.4,1.4,1.4,3.6,0,5c-0.7,0.7-1.6,1-2.5,1s-1.8-0.3-2.5-1L30.8,35.7L19.4,47.2c-0.7,0.7-1.6,1-2.5,1s-1.8-0.3-2.5-1
	c-1.4-1.4-1.4-3.6,0-5l11.5-11.4L14.4,19.4c-1.4-1.4-1.4-3.6,0-4.9c1.4-1.4,3.6-1.4,4.9,0l11.5,11.4l11.5-11.4c1.4-1.4,3.6-1.4,5,0
	s1.4,3.6,0,4.9L35.8,30.8L47.3,42.2z"/>
</svg>
