<?xml version="1.0" encoding="utf-8"?>
<!-- Generator: Adobe Illustrator 27.8.1, SVG Export Plug-In . SVG Version: 6.00 Build 0)  -->
<svg version="1.1" id="Layer_2_00000057131925191428662150000015138191158868132242_"
	 xmlns="http://www.w3.org/2000/svg" xmlns:xlink="http://www.w3.org/1999/xlink" x="0px" y="0px" viewBox="0 0 61.6 61.6"
	 style="enable-background:new 0 0 61.6 61.6;" xml:space="preserve">
<style type="text/css">
	.st0{fill:#C9C9C9;}
</style>
<path class="st0" d="M40.7,23.5H20.8c-1.9,0-3.5,1.6-3.5,3.5v21.3c0,1.9,1.6,3.5,3.5,3.5h19.9c1.9,0,3.5-1.6,3.5-3.5V27
	C44.2,25.1,42.6,23.5,40.7,23.5z M24.8,47c0,1.1-0.9,2-2,2s-2-0.9-2-2V29.2c0-1.1,0.9-2,2-2s2,0.9,2,2V47z M32.8,47c0,1.1-0.9,2-2,2
	s-2-0.9-2-2V29.2c0-1.1,0.9-2,2-2s2,0.9,2,2V47z M40.8,47c0,1.1-0.9,2-2,2s-2-0.9-2-2V29.2c0-1.1,0.9-2,2-2s2,0.9,2,2V47z"/>
<path class="st0" d="M42.2,17.2h-5v-4c0-1.1-0.9-2-2-2h-8.8c-1.1,0-2,0.9-2,2v4h-5c-1.1,0-2,0.9-2,2s0.9,2,2,2h22.8c1.1,0,2-0.9,2-2
	S43.3,17.2,42.2,17.2z M28.4,15.2h4.8v2h-4.8C28.4,17.2,28.4,15.2,28.4,15.2z"/>
</svg>
