<?xml version="1.0" encoding="utf-8"?>
<!-- Generator: Adobe Illustrator 27.8.1, SVG Export Plug-In . SVG Version: 6.00 Build 0)  -->
<svg version="1.1" id="Layer_2_00000057131925191428662150000015138191158868132242_"
	 xmlns="http://www.w3.org/2000/svg" xmlns:xlink="http://www.w3.org/1999/xlink" x="0px" y="0px" viewBox="0 0 61.6 61.6"
	 style="enable-background:new 0 0 61.6 61.6;" xml:space="preserve">
<style type="text/css">
	.st0{fill:#FF5555;}
	.st1{fill:#FFFFFF;}
</style>
<g>
	<g id="Layer_1-2_00000018226003914745471900000004340747815206289576_">
		<g>
			
				<ellipse id="circle2_00000008141809902483071610000003487830323454248849_" class="st0" cx="30.8" cy="30.8" rx="30.8" ry="30.8"/>
		</g>
	</g>
	<path class="st1" d="M35.8,30.8l11.5-11.4c1.4-1.4,1.4-3.6,0-4.9c-1.4-1.4-3.6-1.4-5,0L30.8,25.9L19.4,14.4c-1.4-1.4-3.6-1.4-4.9,0
		c-1.4,1.4-1.4,3.6,0,4.9L26,30.7L14.4,42.2c-1.4,1.4-1.4,3.6,0,5c0.7,0.7,1.6,1,2.5,1s1.8-0.3,2.5-1l11.5-11.4l11.5,11.4
		c0.7,0.7,1.6,1,2.5,1s1.8-0.3,2.5-1c1.4-1.4,1.4-3.6,0-5L35.8,30.8z"/>
</g>
</svg>
