<?xml version="1.0" encoding="UTF-8"?>
<svg id="Layer_2" data-name="Layer 2" xmlns="http://www.w3.org/2000/svg" width="61.6" height="61.6" viewBox="0 0 61.6 61.6">
  <defs>
    <style>
      .cls-1 {
        fill: #53c469;
        stroke-width: 0px;
      }
    </style>
  </defs>
  <path class="cls-1" d="m30.8,0C13.79,0,0,13.79,0,30.8s13.79,30.8,30.8,30.8,30.8-13.79,30.8-30.8S47.81,0,30.8,0Zm-3.17,13.49c0-1.75,1.42-3.16,3.16-3.16s3.16,1.42,3.16,3.16v17.22c0,1.75-1.42,3.16-3.16,3.16s-3.16-1.42-3.16-3.16V13.49Zm3.16,37.69c-10.11,0-18.33-8.22-18.33-18.33,0-5.02,1.99-9.71,5.61-13.2,1.26-1.21,3.26-1.18,4.47.08,1.21,1.26,1.18,3.26-.08,4.47-2.37,2.28-3.67,5.35-3.67,8.64,0,6.62,5.38,12,12,12s12-5.38,12-12c0-3.29-1.3-6.36-3.67-8.64-1.26-1.21-1.3-3.22-.08-4.47,1.21-1.26,3.22-1.29,4.47-.08,3.62,3.49,5.61,8.17,5.61,13.2,0,10.11-8.22,18.33-18.33,18.33Z"/>
</svg>