<?xml version="1.0" encoding="UTF-8" standalone="no"?>
<!-- Generator: Adobe Illustrator 27.5.0, SVG Export Plug-In . SVG Version: 6.00 Build 0)  -->

<svg
   version="1.1"
   id="Layer_1"
   x="0px"
   y="0px"
   viewBox="0 0 512 512"
   style="enable-background:new 0 0 512 512;"
   xml:space="preserve"
   sodipodi:docname="plugin-dark.svg"
   inkscape:version="1.1.2 (0a00cf5339, 2022-02-04)"
   xmlns:inkscape="http://www.inkscape.org/namespaces/inkscape"
   xmlns:sodipodi="http://sodipodi.sourceforge.net/DTD/sodipodi-0.dtd"
   xmlns="http://www.w3.org/2000/svg"
   xmlns:svg="http://www.w3.org/2000/svg"><defs
   id="defs11" /><sodipodi:namedview
   id="namedview9"
   pagecolor="#ffffff"
   bordercolor="#666666"
   borderopacity="1.0"
   inkscape:pageshadow="2"
   inkscape:pageopacity="0.0"
   inkscape:pagecheckerboard="0"
   showgrid="false"
   inkscape:zoom="1.6210938"
   inkscape:cx="256"
   inkscape:cy="256"
   inkscape:window-width="1920"
   inkscape:window-height="1008"
   inkscape:window-x="0"
   inkscape:window-y="0"
   inkscape:window-maximized="1"
   inkscape:current-layer="Layer_1" />
<style
   type="text/css"
   id="style2">
	.st0{fill-rule:evenodd;clip-rule:evenodd;}
</style>
<g
   id="g6">
	<path
   class="st0"
   d="M32,255.96C32.01,132.25,132.31,31.98,256.02,32C379.72,32.01,480,132.31,479.98,256.01   S379.67,479.99,255.96,479.98c-47.12-0.01-93.05-14.87-131.23-42.49c-5.34-3.87-6.91-12.99-0.06-19.84l57.6-57.6   c44.59,33.36,106.93,28.89,146.3-10.5l45.25-45.28c6.25-6.25,6.25-16.38,0-22.62l-22.62-22.62l49.89-50.01   c6.35-6.15,6.51-16.28,0.36-22.62c-6.15-6.35-16.28-6.51-22.62-0.36l-0.39,0.39l-49.89,49.98l-45.25-45.25l49.92-49.98   c6.5-5.99,6.91-16.11,0.92-22.61c-5.99-6.5-16.11-6.91-22.61-0.92l-0.94,0.94l-49.92,49.92l-22.62-22.59   c-6.25-6.25-16.38-6.25-22.62,0l-45.25,45.25c-39.37,39.37-43.84,101.68-10.5,146.27l-57.6,57.6   c-18.56,18.56-19.84,51.2,3.87,68.38c114.55,82.87,274.59,57.18,357.45-57.37s57.18-274.59-57.37-357.45S131.45-8.59,48.58,105.96   C17.01,149.6,0.01,202.09,0,255.96c0,8.84,7.16,16,16,16S32,264.8,32,255.96z"
   id="path4" />
</g>
<path
   style="fill:#ffffff;fill-opacity:1;stroke:#000000;stroke-width:0;stroke-miterlimit:4;stroke-dasharray:none;stroke-opacity:1"
   d="m 239.96145,511.31767 c -32.95717,-2.90002 -57.60744,-8.77232 -83.99771,-20.01032 -21.67412,-9.22968 -48.25507,-25.27475 -56.34229,-34.00991 -10.807574,-11.67347 -13.92949,-28.0375 -8.406102,-44.06194 3.290846,-9.5474 3.718532,-10.04985 37.240932,-43.75093 17.22182,-17.31361 31.31239,-31.66714 31.31239,-31.89674 0,-0.22961 -1.54578,-2.71935 -3.43507,-5.53277 -13.43168,-20.00163 -20.3217,-46.42273 -18.26421,-70.0376 1.48891,-17.0889 6.22734,-32.86147 13.85366,-46.11385 7.03119,-12.21822 8.97784,-14.45334 37.99392,-43.62424 15.50651,-15.58925 29.03923,-28.69392 30.25831,-29.3012 3.09158,-1.54008 10.02618,-1.49213 13.30906,0.092 1.43423,0.69208 7.63367,6.30029 14.80482,13.3929 l 12.33735,12.20222 26.5253,-26.42102 c 24.77747,-24.68008 26.74432,-26.49243 29.84923,-27.50458 10.66519,-3.47665 21.08133,3.97022 21.02879,15.03422 -0.0274,5.7652 -0.80718,6.70523 -28.84845,34.77628 l -26.34392,26.37192 23.01196,22.97748 23.01196,22.97749 25.71871,-26.01834 c 16.63955,-16.8334 26.59487,-26.44876 28.20065,-27.23763 12.78661,-6.28164 26.46636,5.78034 21.92059,19.32826 -0.65976,1.96632 -6.21461,7.8915 -27.35003,29.17339 l -26.52211,26.70592 12.63445,12.7736 c 11.27297,11.39712 12.7521,13.12954 13.72631,16.07674 1.29199,3.90855 1.07627,8.49975 -0.56939,12.11854 -1.67477,3.68282 -51.75952,53.5141 -59.9361,59.63277 -29.47343,22.05547 -66.49809,28.30424 -101.70615,17.16526 -7.65457,-2.42171 -20.54366,-8.65509 -27.32253,-13.21361 -2.81342,-1.89191 -5.31837,-3.43984 -5.56656,-3.43984 -0.24819,0 -13.66962,13.25494 -29.82541,29.45542 -18.99035,19.04289 -29.82802,30.36218 -30.65806,32.0205 -2.5215,5.03763 -2.29208,9.72658 0.68337,13.96665 2.45161,3.49359 22.76931,16.11132 36.55425,22.70098 61.47074,29.38506 132.94218,29.48261 193.77339,0.2645 65.50375,-31.4624 111.31236,-91.63395 124.1845,-163.1216 4.34302,-24.11967 4.34302,-54.33757 0,-78.45724 -6.84107,-37.99304 -22.61624,-72.4164 -46.96188,-102.47661 C 422.78061,105.57911 405.72353,88.514097 397.54236,81.982735 382.74371,70.16836 371.21017,62.847291 354.39036,54.591442 321.34371,38.370797 286.89699,30.918172 249.83133,31.969859 209.89507,33.102995 173.68425,43.742021 139.22812,64.465957 103.38076,86.026659 70.885728,122.11027 53.254841,159.93368 c -13.58782,29.14984 -19.99821,56.25949 -21.526289,91.03501 -0.365065,8.30807 -0.555798,9.45038 -2.058082,12.32608 -5.623003,10.76366 -21.3097352,11.00185 -27.1661535,0.4125 C 0.37376888,259.8549 0.11983416,257.13187 0.68486712,244.19669 2.2709657,207.88646 11.157789,174.11763 27.854818,140.95422 40.815072,115.21274 55.392709,95.206511 76.410072,74.317405 104.75529,46.145146 137.47547,26.039303 175.8985,13.183896 191.17105,8.0740771 212.32902,3.5427499 230.70843,1.4454508 c 10.54829,-1.203679 42.43975,-1.02563702 53.05061,0.2961682 51.45246,6.4094858 93.44348,23.983414 133.38651,55.824452 10.2864,8.19991 29.14353,27.005873 37.22411,37.123086 33.01505,41.336213 51.60358,87.450013 56.40697,139.932543 0.84489,9.23147 0.83573,34.27004 -0.0159,43.58553 -5.4248,59.33501 -30.42834,113.72907 -71.84245,156.28993 -28.22162,29.00307 -62.23468,50.49252 -100.56642,63.53786 -16.64279,5.664 -35.35224,9.85215 -54.28434,12.15165 -7.61614,0.92507 -37.68406,1.69609 -44.10602,1.131 z"
   id="path50" /></svg>
