<?xml version="1.0" encoding="UTF-8"?>
<svg id="Layer_2" data-name="Layer 2" xmlns="http://www.w3.org/2000/svg" width="61.6" height="61.6" viewBox="0 0 61.6 61.6">
  <defs>
    <style>
      .cls-1 {
        fill: #8a8c8e;
        stroke-width: 0px;
      }
    </style>
  </defs>
  <path class="cls-1" d="m36.3,30.8l15.66-15.66c1.52-1.52,1.52-3.98,0-5.51-1.52-1.52-3.98-1.52-5.5,0l-15.66,15.66-15.66-15.66c-1.52-1.52-3.99-1.52-5.5,0-1.52,1.52-1.52,3.98,0,5.51l15.66,15.66-15.66,15.66c-1.52,1.52-1.52,3.98,0,5.5.76.76,1.76,1.14,2.75,1.14s1.99-.38,2.75-1.14l15.66-15.66,15.66,15.66c.76.76,1.76,1.14,2.75,1.14s1.99-.38,2.75-1.14c1.52-1.52,1.52-3.99,0-5.5l-15.66-15.66Z"/>
</svg>