<?xml version="1.0" encoding="utf-8"?>
<!-- Generator: Adobe Illustrator 27.8.1, SVG Export Plug-In . SVG Version: 6.00 Build 0)  -->
<svg version="1.1" id="Layer_2_00000057131925191428662150000015138191158868132242_"
	 xmlns="http://www.w3.org/2000/svg" xmlns:xlink="http://www.w3.org/1999/xlink" x="0px" y="0px" viewBox="0 0 61.6 61.6"
	 style="enable-background:new 0 0 61.6 61.6;" xml:space="preserve">
<style type="text/css">
	.st0{fill:#53C469;}
	.st1{fill:#FFFFFF;}
</style>
<g id="Layer_1-2_00000015324309340309895890000014725836181367702717_">
	<g>
		<circle id="circle2_00000001637081799501310720000015124582373908021387_" class="st0" cx="30.8" cy="30.8" r="30.8"/>
	</g>
</g>
<path class="st1" d="M49,19.3c-1.4-1.4-3.6-1.4-4.9,0L25.3,38.1l-6.6-6.6c-1.4-1.4-3.6-1.4-5,0s-1.4,3.6,0,4.9l9.1,9.1l0,0l0,0
	c0.1,0.1,0.2,0.2,0.3,0.2c0.1,0.1,0.2,0.1,0.2,0.2c0.1,0.1,0.2,0.1,0.4,0.2c0.1,0,0.2,0.1,0.3,0.1c0.1,0.1,0.3,0.1,0.4,0.1
	s0.1,0.1,0.2,0.1c0.2,0,0.4,0.1,0.7,0.1c0.2,0,0.4,0,0.7-0.1c0.1,0,0.2-0.1,0.3-0.1c0.1,0,0.3-0.1,0.4-0.1s0.2-0.1,0.3-0.1
	c0.1-0.1,0.2-0.1,0.3-0.2c0.1,0,0.1-0.1,0.2-0.2c0.1-0.1,0.2-0.2,0.4-0.3l0,0l0,0L49,24.3C50.3,22.9,50.3,20.7,49,19.3z"/>
</svg>
