<?xml version="1.0" encoding="UTF-8"?>
<svg id="Layer_2" data-name="Layer 2" xmlns="http://www.w3.org/2000/svg" width="61.6" height="61.6" viewBox="0 0 61.6 61.6">
  <defs>
    <style>
      .cls-1 {
        fill: #8a8c8e;
        stroke-width: 0px;
      }
    </style>
  </defs>
  <path class="cls-1" d="m48.41,35.08c-1.56-1.56-4-1.56-5.45,0l-8.23,8.23V8.83c0-2.11-1.78-3.89-3.89-3.89s-3.89,1.78-3.89,3.89v34.48l-8.23-8.23c-1.56-1.56-4-1.56-5.45,0-1.56,1.56-1.56,4,0,5.45l14.68,15.01h0c.22.22.33.33.56.44.11.11.22.11.33.11.11.11.22.11.33.22.11,0,.22.11.44.11.11,0,.22.11.33.11.22,0,.56.11.78.11s.56,0,.78-.11c.11,0,.22-.11.33-.11s.22-.11.44-.11c.11,0,.22-.11.33-.22.11,0,.22-.11.33-.11.22-.11.44-.33.56-.44l14.9-14.9c1.45-1.56,1.45-4,0-5.56Z"/>
</svg>