<?xml version="1.0" encoding="UTF-8"?>
<svg id="Layer_2" data-name="Layer 2" xmlns="http://www.w3.org/2000/svg" width="61.6" height="61.6" viewBox="0 0 61.6 61.6">
  <defs>
    <style>
      .cls-1 {
        fill: #c9c9c9;
        stroke-width: 0px;
      }
    </style>
  </defs>
  <path class="cls-1" d="m45.29,19.15h-28.98c-2.77,0-5.1,2.33-5.1,5.1v31.02c0,2.77,2.33,5.1,5.1,5.1h28.98c2.77,0,5.1-2.33,5.1-5.1v-31.02c0-2.77-2.33-5.1-5.1-5.1Zm-23.16,34.22c0,1.6-1.31,2.91-2.91,2.91s-2.91-1.31-2.91-2.91v-25.92c0-1.6,1.31-2.91,2.91-2.91s2.91,1.31,2.91,2.91v25.92Zm11.65,0c0,1.6-1.31,2.91-2.91,2.91s-2.91-1.31-2.91-2.91v-25.92c0-1.6,1.31-2.91,2.91-2.91s2.91,1.31,2.91,2.91v25.92Zm11.65,0c0,1.6-1.31,2.91-2.91,2.91s-2.91-1.31-2.91-2.91v-25.92c0-1.6,1.31-2.91,2.91-2.91s2.91,1.31,2.91,2.91v25.92Z"/>
  <path class="cls-1" d="m47.4,9.97h-7.28v-5.83c0-1.6-1.31-2.91-2.91-2.91h-12.82c-1.6,0-2.91,1.31-2.91,2.91v5.83h-7.28c-1.6,0-2.91,1.31-2.91,2.91s1.31,2.91,2.91,2.91h33.2c1.6,0,2.91-1.31,2.91-2.91s-1.31-2.91-2.91-2.91Zm-20.1-2.91h6.99v2.91h-6.99v-2.91Z"/>
</svg>