<?xml version="1.0" encoding="iso-8859-1"?>
<!-- Generator: Adobe Illustrator 19.0.0, SVG Export Plug-In . SVG Version: 6.00 Build 0)  -->
<svg version="1.1" id="Capa_1" xmlns="http://www.w3.org/2000/svg" xmlns:xlink="http://www.w3.org/1999/xlink" x="0px" y="0px"
	 viewBox="0 0 58 58" style="enable-background:new 0 0 58 58;" xml:space="preserve">
<path style="fill:#E7ECED;" d="M45,26H13C5.85,26,0,20.15,0,13v0C0,5.85,5.85,0,13,0h32c7.15,0,13,5.85,13,13v0
	C58,20.15,52.15,26,45,26z"/>
<path style="fill:#E7ECED;" d="M13,58h32c7.15,0,13-5.85,13-13v0c0-7.15-5.85-13-13-13H13C5.85,32,0,37.85,0,45v0
	C0,52.15,5.85,58,13,58z"/>
<circle style="fill:#88C057;stroke:#659C35;stroke-width:2;stroke-linecap:round;stroke-miterlimit:10;" cx="45" cy="13" r="9"/>
<circle style="fill:#ED7161;stroke:#D75A4A;stroke-width:2;stroke-linecap:round;stroke-miterlimit:10;" cx="13" cy="45" r="9"/>
<g>
</g>
<g>
</g>
<g>
</g>
<g>
</g>
<g>
</g>
<g>
</g>
<g>
</g>
<g>
</g>
<g>
</g>
<g>
</g>
<g>
</g>
<g>
</g>
<g>
</g>
<g>
</g>
<g>
</g>
</svg>
