<?xml version="1.0" encoding="UTF-8" standalone="no"?>
<!-- Generator: Adobe Illustrator 19.0.0, SVG Export Plug-In . SVG Version: 6.00 Build 0)  -->

<svg
   xmlns:dc="http://purl.org/dc/elements/1.1/"
   xmlns:cc="http://creativecommons.org/ns#"
   xmlns:rdf="http://www.w3.org/1999/02/22-rdf-syntax-ns#"
   xmlns:svg="http://www.w3.org/2000/svg"
   xmlns="http://www.w3.org/2000/svg"
   xmlns:sodipodi="http://sodipodi.sourceforge.net/DTD/sodipodi-0.dtd"
   xmlns:inkscape="http://www.inkscape.org/namespaces/inkscape"
   version="1.1"
   id="Capa_1"
   x="0px"
   y="0px"
   viewBox="0 0 58 58"
   style="enable-background:new 0 0 58 58;"
   xml:space="preserve"
   sodipodi:docname="speaker-66.svg"
   inkscape:version="0.92.4 5da689c313, 2019-01-14"
   inkscape:export-filename="/home/phw/devel/musicbrainz/picard/resources/img-src/speaker-66.png"
   inkscape:export-xdpi="36.41"
   inkscape:export-ydpi="36.41"><metadata
   id="metadata47"><rdf:RDF><cc:Work
       rdf:about=""><dc:format>image/svg+xml</dc:format><dc:type
         rdf:resource="http://purl.org/dc/dcmitype/StillImage" /><dc:title></dc:title></cc:Work></rdf:RDF></metadata><defs
   id="defs45" /><sodipodi:namedview
   pagecolor="#ffffff"
   bordercolor="#666666"
   borderopacity="1"
   objecttolerance="10"
   gridtolerance="10"
   guidetolerance="10"
   inkscape:pageopacity="0"
   inkscape:pageshadow="2"
   inkscape:window-width="1920"
   inkscape:window-height="1016"
   id="namedview43"
   showgrid="false"
   inkscape:zoom="4.0689655"
   inkscape:cx="29.491525"
   inkscape:cy="48.661017"
   inkscape:window-x="0"
   inkscape:window-y="27"
   inkscape:window-maximized="1"
   inkscape:current-layer="Capa_1" />

<path
   style="fill:#7383BF;"
   d="M16.427,20H8.104C6.942,20,6,20.942,6,22.104v12.793C6,36.058,6.942,37,8.104,37h8.323  c0.375,0,0.743,0.1,1.067,0.29L30.83,49.706C32.232,50.531,34,49.52,34,47.893V9.107c0-1.627-1.768-2.638-3.17-1.813L17.494,19.71  C17.17,19.9,16.802,20,16.427,20z"
   id="path4" />
<path
   style="fill:#ebba16;fill-opacity:1"
   d="M41.541,42.042c-0.256,0-0.512-0.098-0.707-0.293c-0.391-0.391-0.391-1.023,0-1.414  c6.238-6.238,6.238-16.39,0-22.628c-0.391-0.391-0.391-1.023,0-1.414s1.023-0.391,1.414,0c7.018,7.019,7.018,18.438,0,25.456  C42.052,41.944,41.796,42.042,41.541,42.042z"
   id="path6" />
<path
   style="fill:#ebba16;fill-opacity:1"
   d="M38,38c-0.256,0-0.512-0.098-0.707-0.293c-0.391-0.391-0.391-1.023,0-1.414  c4.297-4.297,4.297-11.289,0-15.586c-0.391-0.391-0.391-1.023,0-1.414s1.023-0.391,1.414,0c5.077,5.077,5.077,13.337,0,18.414  C38.512,37.902,38.256,38,38,38z"
   id="path8" />

<g
   id="g12">
</g>
<g
   id="g14">
</g>
<g
   id="g16">
</g>
<g
   id="g18">
</g>
<g
   id="g20">
</g>
<g
   id="g22">
</g>
<g
   id="g24">
</g>
<g
   id="g26">
</g>
<g
   id="g28">
</g>
<g
   id="g30">
</g>
<g
   id="g32">
</g>
<g
   id="g34">
</g>
<g
   id="g36">
</g>
<g
   id="g38">
</g>
<g
   id="g40">
</g>
</svg>