<?xml version="1.0" encoding="UTF-8" standalone="no"?>
<!-- Generator: Adobe Illustrator 19.0.0, SVG Export Plug-In . SVG Version: 6.00 Build 0)  -->

<svg
   xmlns:dc="http://purl.org/dc/elements/1.1/"
   xmlns:cc="http://creativecommons.org/ns#"
   xmlns:rdf="http://www.w3.org/1999/02/22-rdf-syntax-ns#"
   xmlns:svg="http://www.w3.org/2000/svg"
   xmlns="http://www.w3.org/2000/svg"
   xmlns:sodipodi="http://sodipodi.sourceforge.net/DTD/sodipodi-0.dtd"
   xmlns:inkscape="http://www.inkscape.org/namespaces/inkscape"
   version="1.1"
   id="Capa_1"
   x="0px"
   y="0px"
   viewBox="0 0 54.888 54.888"
   style="enable-background:new 0 0 54.888 54.888;"
   xml:space="preserve"
   sodipodi:docname="music-player-4.svg"
   inkscape:version="0.92.1 r"><metadata
     id="metadata39"><rdf:RDF><cc:Work
         rdf:about=""><dc:format>image/svg+xml</dc:format><dc:type
           rdf:resource="http://purl.org/dc/dcmitype/StillImage" /><dc:title></dc:title></cc:Work></rdf:RDF></metadata><defs
     id="defs37" /><sodipodi:namedview
     pagecolor="#ffffff"
     bordercolor="#666666"
     borderopacity="1"
     objecttolerance="10"
     gridtolerance="10"
     guidetolerance="10"
     inkscape:pageopacity="0"
     inkscape:pageshadow="2"
     inkscape:window-width="830"
     inkscape:window-height="480"
     id="namedview35"
     showgrid="false"
     inkscape:zoom="4.2996647"
     inkscape:cx="27.444"
     inkscape:cy="27.444"
     inkscape:window-x="0"
     inkscape:window-y="28"
     inkscape:window-maximized="0"
     inkscape:current-layer="Capa_1" /><path
     style="fill:#008080"
     d="M52.104,0.249c-0.216-0.189-0.501-0.275-0.789-0.241l-31,4.011c-0.499,0.065-0.872,0.489-0.872,0.992  v6.017v4.212v26.035C17.706,39.285,14.997,38,11.944,38c-5.247,0-9.5,3.781-9.5,8.444s4.253,8.444,9.5,8.444s9.5-3.781,9.5-8.444  c0-0.332-0.027-0.658-0.069-0.981c0.04-0.108,0.069-0.221,0.069-0.343V16.118l29-3.753v18.909C48.706,29.285,45.997,28,42.944,28  c-5.247,0-9.5,3.781-9.5,8.444s4.253,8.444,9.5,8.444s9.5-3.781,9.5-8.444c0-0.092-0.012-0.181-0.015-0.272  c0.002-0.027,0.015-0.05,0.015-0.077V11.227V7.016V1C52.444,0.712,52.32,0.438,52.104,0.249z"
     id="path2" /><g
     id="g4" /><g
     id="g6" /><g
     id="g8" /><g
     id="g10" /><g
     id="g12" /><g
     id="g14" /><g
     id="g16" /><g
     id="g18" /><g
     id="g20" /><g
     id="g22" /><g
     id="g24" /><g
     id="g26" /><g
     id="g28" /><g
     id="g30" /><g
     id="g32" /></svg>