<?xml version="1.0" encoding="UTF-8" standalone="no"?>
<!-- Created with Inkscape (http://www.inkscape.org/) -->

<svg
   xmlns:dc="http://purl.org/dc/elements/1.1/"
   xmlns:cc="http://creativecommons.org/ns#"
   xmlns:rdf="http://www.w3.org/1999/02/22-rdf-syntax-ns#"
   xmlns:svg="http://www.w3.org/2000/svg"
   xmlns="http://www.w3.org/2000/svg"
   xmlns:sodipodi="http://sodipodi.sourceforge.net/DTD/sodipodi-0.dtd"
   xmlns:inkscape="http://www.inkscape.org/namespaces/inkscape"
   width="16"
   height="16"
   id="svg2"
   version="1.1"
   inkscape:version="0.48.5 r10040"
   sodipodi:docname="track-audio.svg">
  <defs
     id="defs4" />
  <sodipodi:namedview
     id="base"
     pagecolor="#ffffff"
     bordercolor="#666666"
     borderopacity="1.0"
     inkscape:pageopacity="0.0"
     inkscape:pageshadow="2"
     inkscape:zoom="31.678384"
     inkscape:cx="2.9538089"
     inkscape:cy="5.6845783"
     inkscape:document-units="px"
     inkscape:current-layer="layer1"
     showgrid="false"
     inkscape:window-width="1920"
     inkscape:window-height="1136"
     inkscape:window-x="0"
     inkscape:window-y="27"
     inkscape:window-maximized="1" />
  <metadata
     id="metadata7">
    <rdf:RDF>
      <cc:Work
         rdf:about="">
        <dc:format>image/svg+xml</dc:format>
        <dc:type
           rdf:resource="http://purl.org/dc/dcmitype/StillImage" />
        <dc:title></dc:title>
      </cc:Work>
    </rdf:RDF>
  </metadata>
  <g
     inkscape:label="Ebene 1"
     inkscape:groupmode="layer"
     id="layer1"
     transform="translate(0,-1036.3622)">
    <g
       transform="matrix(0.43076923,0,0,0.43076923,-21.542308,976.87951)"
       style="font-size:40px;font-style:normal;font-variant:normal;font-weight:normal;font-stretch:normal;line-height:125%;letter-spacing:0px;word-spacing:0px;fill:#000000;fill-opacity:1;stroke:none;font-family:FontAwesome;-inkscape-font-specification:FontAwesome"
       id="flowRoot2985">
      <path
         d="m 85.723214,140.22768 c 0,-1.18304 -0.959822,-2.14286 -2.142857,-2.14286 -0.223214,0 -0.424107,0.0223 -0.625,0.0893 l -18.571428,5.71428 c -0.892857,0.29018 -1.517858,1.11608 -1.517858,2.05357 l 0,21.58483 c -1.339284,-0.60268 -2.812501,-0.87054 -4.285714,-0.87054 -2.433033,0 -7.142857,1.1384 -7.142857,4.28571 0,3.14732 4.709824,4.28572 7.142857,4.28572 2.433033,0 7.142857,-1.1384 7.142857,-4.28572 l 0,-15.82589 17.142857,-5.29018 0,11.98661 c -1.339284,-0.60268 -2.812501,-0.87054 -4.285714,-0.87054 -2.433033,0 -7.142857,1.1384 -7.142857,4.28572 0,3.14732 4.709824,4.28571 7.142857,4.28571 2.433033,0 7.142857,-1.13839 7.142857,-4.28571 l 0,-25"
         style=""
         id="path3013" />
    </g>
  </g>
</svg>
